<svg xmlns="http://www.w3.org/2000/svg" width="121.776" height="160.466" viewBox="0 0 121.776 160.466">
  <g id="Grupo_2377" data-name="Grupo 2377" opacity="0.28">
    <path id="Trazado_975" data-name="Trazado 975" d="M11104.685-1824.139a.473.473,0,0,1-.113-.073q-1.141-.1-1.281.932a3.661,3.661,0,0,0,.087,1.537,11.984,11.984,0,0,0,.616,1.511c.19.445.1,2.711.984,2.313A26.693,26.693,0,0,1,11104.685-1824.139Z" transform="translate(-11075.414 1882.356)" fill="none"/>
    <path id="Trazado_976" data-name="Trazado 976" d="M11128.31-1812.2c1.446-2.682,2.7-5.022,2.824-8.159a47.294,47.294,0,0,0-.269-6.236,9.8,9.8,0,0,1-4.631-2.633,20.138,20.138,0,0,1-2.285-3.13c-.531,2.7-2.9,4.57-6,5.063-2.373.377-4.877.148-7.132,1.09-1.8.753-4.9,2.381-5.157,4.557a.591.591,0,0,1-.125.286c0,.334,0,.668.019,1,.127,3.137,1.377,5.477,2.823,8.159a22.16,22.16,0,0,0,5.007,6.144,10.127,10.127,0,0,0,4.427,2.543c.207.034.378.05.534.086.157-.036.328-.052.535-.086a10.108,10.108,0,0,0,4.426-2.543A22.142,22.142,0,0,0,11128.31-1812.2Zm-6.4,2.253a.44.44,0,0,1-.4.227h-5.877a.493.493,0,0,1-.155-.955.45.45,0,0,1,.1-.051,6.2,6.2,0,0,1,1.657-.5c.793-.019,1.133.529,1.974.205a2.326,2.326,0,0,1,2.688.418A.41.41,0,0,1,11121.91-1809.947Z" transform="translate(-11075.414 1882.356)" fill="none"/>
    <path id="Trazado_977" data-name="Trazado 977" d="M11120.075-1802.879a5.2,5.2,0,0,1-1.733.349,5.194,5.194,0,0,1-1.732-.349,12.313,12.313,0,0,1-2.209-1.135c-.234-.168-.456-.343-.675-.52.014,1.93.062,3.86.074,5.786.02,2.914,2.413,2.757,4.542,2.849,2.13-.092,4.523.065,4.543-2.849.014-1.926.061-3.856.073-5.786-.218.177-.44.352-.674.52A12.28,12.28,0,0,1,11120.075-1802.879Z" transform="translate(-11075.414 1882.356)" fill="none"/>
    <path id="Trazado_978" data-name="Trazado 978" d="M11131.75-1817.929c.921.466.822-1.853,1.015-2.3a11.428,11.428,0,0,0,.616-1.511,3.629,3.629,0,0,0,.087-1.537q-.141-1.036-1.279-.932a.521.521,0,0,1-.187.117,26.613,26.613,0,0,1-.292,6.154C11131.723-1817.935,11131.736-1817.936,11131.75-1817.929Z" transform="translate(-11075.414 1882.356)" fill="none"/>
    <path id="Trazado_979" data-name="Trazado 979" d="M11138.872-1792.566a9.7,9.7,0,0,0-2.391-2.387,60.4,60.4,0,0,0-6.438-3.134c-2.036-.965-4.125-2.158-6.24-2.909-.031-1.466.149-2.945.15-4.41.384-.357.763-.723,1.154-1.1a20.28,20.28,0,0,0,2.22-2.536c1.49-.59,3.1-2.537,4.017-3.807a24.873,24.873,0,0,0,4.247-7.691,26.3,26.3,0,0,0-.559-15.641,22.907,22.907,0,0,0-5.623-9c2.623-2.151.642-7.58-1.115-9.54a8.58,8.58,0,0,0-1.7-1.423.477.477,0,0,0-.346-.318c-.385-.173-.779-.335-1.179-.49-.157-.063-.314-.125-.476-.179-3.749-1.358-8-1.8-11.728-.166a8.662,8.662,0,0,0-4.293,2.576c-1.733,1.933-3.688,7.242-1.226,9.452a22.876,22.876,0,0,0-5.709,9.086,26.319,26.319,0,0,0-.56,15.641,24.9,24.9,0,0,0,4.248,7.691c.922,1.274,2.538,3.232,4.032,3.815a19.939,19.939,0,0,0,2.215,2.528c.39.375.769.741,1.153,1.1,0,1.47.183,2.954.148,4.425-2.1.751-4.178,1.935-6.2,2.894a60.4,60.4,0,0,0-6.438,3.134,9.763,9.763,0,0,0-2.415,2.422l-.014-.009-.9,1.764a39.247,39.247,0,0,0,21.413,6.336,39.246,39.246,0,0,0,21.1-6.135l-.536-2Zm-6.87-31.529a.521.521,0,0,0,.187-.117q1.14-.1,1.279.932a3.629,3.629,0,0,1-.087,1.537,11.428,11.428,0,0,1-.616,1.511c-.192.45-.094,2.769-1.015,2.3-.014-.007-.027-.006-.04-.012A26.613,26.613,0,0,0,11132-1824.095Zm-28.009,3.863a11.984,11.984,0,0,1-.616-1.511,3.661,3.661,0,0,1-.087-1.537q.141-1.036,1.281-.932a.473.473,0,0,0,.113.073,26.693,26.693,0,0,0,.293,6.22C11104.091-1817.521,11104.184-1819.787,11103.993-1820.232Zm13.252-30.885c4.064-.654,9.6.96,11.252,5.127h0a17.966,17.966,0,0,0-2.262-1.684c-.369-.227-.751-.43-1.138-.622.2-.246-4.549-1.712-6.761-1.635-2.211-.077-6.956,1.389-6.76,1.635-.386.192-.769.4-1.138.622a18.279,18.279,0,0,0-2.318,1.727C11109.953-1849.487,11113.585-1850.528,11117.245-1851.117Zm5.64,52.369c-.02,2.914-2.413,2.757-4.543,2.849-2.129-.092-4.522.065-4.542-2.849-.013-1.926-.061-3.856-.074-5.786.219.177.44.352.675.52a12.313,12.313,0,0,0,2.209,1.135,5.194,5.194,0,0,0,1.732.349,5.2,5.2,0,0,0,1.733-.349,12.28,12.28,0,0,0,2.209-1.135c.233-.168.456-.343.674-.52C11122.945-1802.6,11122.9-1800.674,11122.885-1798.748Zm-4.008-4.765c-.207.034-.378.05-.535.086-.156-.036-.327-.052-.534-.086a10.127,10.127,0,0,1-4.427-2.543,22.16,22.16,0,0,1-5.007-6.144c-1.446-2.682-2.7-5.022-2.823-8.159-.014-.335-.017-.669-.019-1a.591.591,0,0,0,.125-.286c.255-2.176,3.355-3.8,5.157-4.557,2.255-.942,4.759-.713,7.132-1.09,3.1-.493,5.472-2.36,6-5.063a20.138,20.138,0,0,0,2.285,3.13,9.8,9.8,0,0,0,4.631,2.633,47.294,47.294,0,0,1,.269,6.236c-.128,3.137-1.378,5.477-2.824,8.159a22.142,22.142,0,0,1-5.007,6.144A10.108,10.108,0,0,1,11118.877-1803.513Z" transform="translate(-11075.414 1882.356)" fill="#fff"/>
    <path id="Trazado_980" data-name="Trazado 980" d="M11119.209-1811.018c-.841.324-1.181-.224-1.974-.205a6.2,6.2,0,0,0-1.657.5.45.45,0,0,0-.1.051.493.493,0,0,0,.155.955h5.877a.44.44,0,0,0,.4-.227.41.41,0,0,0-.013-.653A2.326,2.326,0,0,0,11119.209-1811.018Z" transform="translate(-11075.414 1882.356)" fill="#fff"/>
    <g id="Grupo_1796" data-name="Grupo 1796">
      <path id="Trazado_981" data-name="Trazado 981" d="M11150.055-1849.607a10.939,10.939,0,0,1,5.89-1.892,4.141,4.141,0,0,1,3.239,1.6,1.619,1.619,0,0,1,.262,1.031,33.563,33.563,0,0,1-.072,3.63,18.266,18.266,0,0,0,2.08,10.329c2.09,4.071,2.932,8.488,4.006,12.851.9,3.652,1.808,7.3,2.644,10.969a24.113,24.113,0,0,0,3.5,7.544,37.414,37.414,0,0,1,5.253,11.168,39.9,39.9,0,0,1,.658,11.841,4.578,4.578,0,0,0,.214,1.664c2.19,6.7,5.927,12.537,10.07,18.154,4.37,5.923,4.637,6.422,9.04,12.32.983,1.317-.293,1.163-1.061.156-10.227-13.976-14.937-19.645-15.008-19.725a35.069,35.069,0,0,0-3.208,5.005c-2.156,3.68-4.018,5.968-7.135,7.958-2.427,1.551-4.751,3.262-7.134,4.883-1.082.736-2.169,1.473-3.3,2.127a9.1,9.1,0,0,0-3.286,3.2c-.839,1.378-1.657,2.77-2.544,4.116-.489.742-1.1,1.4-1.7,2.155a33.373,33.373,0,0,1,6.507,8.171c1.006,1.041,3.059,7.3,3.429,8.234l-.286.232c-.342-.294-.8-.525-1-.894a18.73,18.73,0,0,1-1.36-2.915,30.873,30.873,0,0,0-7.958-11.861,6.261,6.261,0,0,0-2.047-.9,6.01,6.01,0,0,1-1.374-.534c-2.6-1.957-5.158-3.978-7.761-5.938-1.661-1.252-3.405-2.4-5.058-3.664-.95-.728-1.789-1.6-2.678-2.409-1.042-.948-2.062-1.924-3.145-2.822-.231-.192-.7-.136-1.057-.136q-15.942-.009-31.883,0c-6.013,0-9.976-3.968-9.979-9.99,0-4.034,0-8.068,0-12.207a6.969,6.969,0,0,1-5.025.29c-3.047-.88-4.633-3.295-4.122-6.216a4.251,4.251,0,0,1,1.817-2.784c.683-.5,1.189-1.235,1.834-1.795a6.853,6.853,0,0,1,1.777-1.227c1.171-.483,2.407-.806,3.666-1.212v-2.084a10.58,10.58,0,0,1-6.055-.138,1.606,1.606,0,0,1-1.432-1.578c-.041-2.223-.862-4.239-1.455-6.335a6.184,6.184,0,0,1,2.3-7.089c1.652-1.261,3.237-2.612,4.948-4-.939.316-1.8.578-2.646.9-2.366.9-4.048-.456-5.6-1.845a4.25,4.25,0,0,1-1.117-4.739,65.051,65.051,0,0,1,2.7-7.044c1.707-3.6,4.776-5.793,8.361-7.415v-12.929c-3.221-1.47-5.634-3.975-8.18-6.277a5.205,5.205,0,0,1-1.311-2.439,7.719,7.719,0,0,1,.98-6.274,4.608,4.608,0,0,1,4.677-1.827c1.263.306,2.516.648,3.886,1,0-2.751-.009-5.4,0-8.053.009-2.218-.122-4.452.092-6.651a9.288,9.288,0,0,1,9.269-8.406q22.248-.053,44.494,0c5.352.014,9.38,4.283,9.385,9.8q.012,10.746,0,21.491Zm-4.48,85.665v-110.721h-54.819v110.721Zm18.253-59.8c-1.681,1.237-5.486-.093-3.688-.04,2.222.053,3.645-1.1,3.622-1.4-.267-3.667-3.967-12.07-4.26-13.277-.887.257-1.647.842-2.531.284a13.173,13.173,0,0,1-1.813-.715c-1.071-.767-2.168-1.467-2.044-4.776,0,0,.419-3.168,1.416-4.557a6.307,6.307,0,0,1,1.788-1.233,8.876,8.876,0,0,1,1.709-.476l.039-.257c-.875-.515-4.573-.8-7.368,1.213a26.367,26.367,0,0,0-2.493,14.773c.079,3.637.174,6.665.963,8.681.543,3.116,2.074,9.7,1.986,10.711.59,4.434-.161,11.914-.609,12.733.107.065-.3,9.636-.8,11.4-.686,2.447,1.161,20.3.462,24.865.558,6.081-2.227,8.2-3.414,9.613-1.261,2.075-8.618,2.424-10.693,2.361-2.4-.289-5.286-.528-4.942.429a151.33,151.33,0,0,0,12.205,9.265c3.384,2.8,5.512,5.3,8.049,4.9.632-.1,1.512-.228,1.8-.661,1.543-4.2,3.9-8.107,11.764-12.338-.022-.043,5.318-3.674,7.156-5.376,4.8-4.441,9.147-10.83,4.706-17.655-1.111-3.962-.077-10.783-.617-12.4-.809-9.448-7.46-18-8.055-18.789C11167.892-1809.134,11166.682-1815.106,11163.827-1823.738Zm-74.181,29.565-.19-.014a6.718,6.718,0,0,1-.9,1.328,2.827,2.827,0,0,0-.8,2.355c.037,3.889.019,7.78.019,11.67q0,7.666,0,15.332a8.425,8.425,0,0,0,8.417,8.62q22.247.079,44.493,0a8.447,8.447,0,0,0,8.422-8.629c.006-3.06.108-6.125-.026-9.18-.168-3.788.161-8.624-.357-12.375-.489-3.546.431-14.65.4-17.286-.059-5.919-.008-11.838-.031-17.757a10.544,10.544,0,0,0-.282-2.489,47.21,47.21,0,0,1-.526-22.658,17.994,17.994,0,0,0,.784-3.817c.072-7.869.038-15.739.033-23.609a9.119,9.119,0,0,0-.079-1.406,8.49,8.49,0,0,0-8.572-7.294q-16.446-.027-32.892-.011c-3.732,0-7.466-.015-11.2.011a8.449,8.449,0,0,0-8.589,8.648v6.756q0,20.682.012,41.363a15.339,15.339,0,0,0,.335,2.783c.42,2.248,1.095,4.534.346,6.77a22.2,22.2,0,0,0-.691,7.16,8.377,8.377,0,0,1-.015,1.41c-.334,1.905.521,3.336,1.893,4.767v-74.038h56.987v112.876h-56.992Zm-7.532-29.969a4.017,4.017,0,0,1-2.282,3.921,7.1,7.1,0,0,0-1.63,1.34,22.473,22.473,0,0,0-1.446,1.915c-2.1,3.42.125,5.006,1.681,6.14,1.78.981,2.573,1.245,6.331-.18a4.491,4.491,0,0,0,2.967-3.493c.684-2.665-.856-13.214-.789-13.28-.291-.315-.53-.769-.89-.906a1.551,1.551,0,0,0-1.26.1C11084.132-1828.112,11081.719-1827.377,11082.114-1824.142Zm2.264,17.524c-1.663-1.244-6.606,1.347-6.1,6.158.244-.207.394-.325.533-.453a4.239,4.239,0,0,1,4.854-.752c.537.267,1.332.624,1.417,1.192a4.48,4.48,0,0,1-1.159,1.163c-.963.73-2.109,1.337-2.386,2.615-.3,1.406-.429,2.853-.6,4.285-.019.158.146.339.337.744,5.725.671,7.173-1.376,7.515-2.736a6.573,6.573,0,0,0,.69-4.143C11089.278-1801.068,11085.855-1806.126,11084.378-1806.618Zm2.41-37.6c.017-1.463.014-3.226-.02-5.306.083-.037-.174-4.1-.088-4.142-.316-1.006.265-3.937-.67-4.441a11.314,11.314,0,0,0-3.7-1.329c-3.383-.927-4.335,3.232-4.335,3.232-.9,3.145-.043,6.522,4.894,9.247Zm-8.118-13.374,6.5,81.425c1.256-.369,1.67-2.351,1.66-3.561-.021-2.562,0-5.851-.125-6.874-.214-1.617-.481-1.8-1.948-1.292-.633.219-2.441.993-5.518,3.908-.057,1.283.019,1.96.017,3.11,0,.728-.074,3.1.68,3.44A7.041,7.041,0,0,0,11085.174-1776.163Zm73.521-73.174a8.537,8.537,0,0,0-2.732.853,2.418,2.418,0,0,0-1.16,1.283,27.222,27.222,0,0,0-.8,4.644,3.062,3.062,0,0,0,2.138,3.127c.517-.7.87-1.58,1.521-1.968,1.127-.674,1.065-1.616,1.111-2.718A16.626,16.626,0,0,0,11158.7-1849.337Zm-74.481,49.068-.232-.248a2.271,2.271,0,0,0-2.418-.67c-1.723.1-2.622,1.518-2.2,3.393.3,1.333.7,2.645,1.049,3.966C11080.388-1796.7,11081.361-1799,11084.214-1800.269Zm65.9-15.772v11.64A24.983,24.983,0,0,0,11150.116-1816.041Zm-68.582-8.116c-2.661.216-3.461,2.8-3.971,4.969,1.053-1.154,2.345-1.9,3.148-2.783A8.523,8.523,0,0,0,11081.534-1824.157Zm75.208-14.757a8.609,8.609,0,0,0,1.545.391c.187.009.553-.288.556-.452.016-.751-.069-1.5-.119-2.255l-.353-.12Zm-77.732,60.647-.4-5.211C11077.682-1782.119,11077.889-1779.084,11079.01-1778.267Zm7.169-28.107c.1-.061.59.053.688-.008a5.778,5.778,0,0,0,.025-3.225c-.925-1-2.193.132-3.858,1.647C11084.277-1807.431,11085.2-1806.789,11086.179-1806.374Z" transform="translate(-11075.414 1882.356)" fill="#fff"/>
      <path id="Trazado_982" data-name="Trazado 982" d="M11175.176-1741.178l-11.371,5.422a8.611,8.611,0,0,1,.938-.9c2.535-1.831,5.478-2.8,8.354-3.909.672-.259,1.347-.512,2.021-.767Z" transform="translate(-11075.414 1882.356)" fill="#fff"/>
      <path id="Trazado_983" data-name="Trazado 983" d="M11152.941-1775.268a20.506,20.506,0,0,0,.6,11.249C11151.7-1766.19,11151.076-1772.6,11152.941-1775.268Z" transform="translate(-11075.414 1882.356)" fill="#fff"/>
    </g>
  </g>
</svg>
