<svg id="Grupo_2379" data-name="Grupo 2379" xmlns="http://www.w3.org/2000/svg" viewBox="0 0 121.776 160.466"><defs><style>.cls-1{fill:#fff;}</style></defs><title>icono registro svg</title><path id="Trazado_979" data-name="Trazado 979" class="cls-1" d="M61.272,86.842a8.263,8.263,0,0,0-2.034-2.031,51.367,51.367,0,0,0-5.478-2.666c-1.733-.821-3.51-1.836-5.31-2.475-.027-1.248.127-2.506.128-3.753.327-.3.649-.615.982-.936a17.3,17.3,0,0,0,1.889-2.157,9.919,9.919,0,0,0,3.417-3.24A21.143,21.143,0,0,0,58.48,63.04a22.377,22.377,0,0,0-.475-13.308,19.481,19.481,0,0,0-4.785-7.657c2.232-1.831.546-6.45-.949-8.118a7.29,7.29,0,0,0-1.446-1.21.406.406,0,0,0-.294-.271c-.328-.147-.663-.285-1-.417-.134-.053-.268-.106-.405-.152-3.19-1.156-6.807-1.532-9.978-.141a7.368,7.368,0,0,0-3.653,2.191C34.017,35.6,32.354,40.119,34.449,42a19.457,19.457,0,0,0-4.857,7.731,22.385,22.385,0,0,0-.476,13.308,21.186,21.186,0,0,0,3.614,6.544c.784,1.084,2.16,2.75,3.431,3.246a17.042,17.042,0,0,0,1.884,2.151c.332.319.654.63.982.936,0,1.25.155,2.513.126,3.765-1.786.639-3.555,1.646-5.275,2.462A51.3,51.3,0,0,0,28.4,84.81a8.3,8.3,0,0,0-2.055,2.061l-.011-.008-.766,1.5a33.482,33.482,0,0,0,36.172.171l-.456-1.7ZM55.426,60.016a.456.456,0,0,0,.159-.1q.97-.085,1.089.793a3.09,3.09,0,0,1-.074,1.308,9.688,9.688,0,0,1-.525,1.286c-.163.382-.079,2.356-.863,1.957-.012-.006-.023-.005-.034-.011a22.7,22.7,0,0,0,.247-5.233ZM31.6,63.3a10.164,10.164,0,0,1-.524-1.286A3.123,3.123,0,0,1,31,60.709q.119-.881,1.09-.793a.4.4,0,0,0,.1.062,22.661,22.661,0,0,0,.25,5.293C31.678,65.609,31.757,63.681,31.6,63.3ZM42.87,37.024c3.459-.557,8.168.817,9.574,4.362h0a15.371,15.371,0,0,0-1.924-1.433c-.314-.193-.639-.366-.968-.529.17-.209-3.871-1.456-5.753-1.391-1.881-.065-5.918,1.182-5.751,1.391-.328.164-.654.341-.968.529a15.547,15.547,0,0,0-1.973,1.47c1.559-3.012,4.649-3.9,7.763-4.4Zm4.8,44.558c-.017,2.48-2.053,2.346-3.865,2.424-1.812-.078-3.848.056-3.865-2.424-.011-1.638-.052-3.28-.063-4.923.186.151.375.3.574.443a10.427,10.427,0,0,0,1.88.965,3.806,3.806,0,0,0,2.948,0,10.427,10.427,0,0,0,1.88-.965c.2-.143.388-.292.573-.443C47.721,78.305,47.682,79.944,47.669,81.582Zm-3.41-4.054c-.176.029-.322.043-.455.073-.133-.03-.279-.044-.455-.073a8.616,8.616,0,0,1-3.766-2.164,18.861,18.861,0,0,1-4.261-5.227c-1.23-2.282-2.3-4.273-2.4-6.943-.011-.285-.014-.569-.015-.85a.511.511,0,0,0,.106-.244c.217-1.851,2.855-3.233,4.388-3.877,1.918-.8,4.049-.607,6.068-.928,2.637-.419,4.656-2.008,5.105-4.307a17.153,17.153,0,0,0,1.945,2.663,8.333,8.333,0,0,0,3.94,2.24,40.186,40.186,0,0,1,.228,5.306c-.109,2.669-1.172,4.66-2.4,6.942a18.83,18.83,0,0,1-4.26,5.228,8.606,8.606,0,0,1-3.763,2.161Z"/><path id="Trazado_1015" data-name="Trazado 1015" class="cls-1" d="M74.12,34.679a10.521,10.521,0,0,1,5.662-1.819A3.987,3.987,0,0,1,82.9,34.4a1.566,1.566,0,0,1,.252.992,32.494,32.494,0,0,1-.07,3.489,17.57,17.57,0,0,0,2,9.931c2.01,3.913,2.818,8.16,3.852,12.355.864,3.511,1.738,7.02,2.541,10.545a23.185,23.185,0,0,0,3.36,7.253A36.022,36.022,0,0,1,99.882,89.7a38.514,38.514,0,0,1,.633,11.385,4.391,4.391,0,0,0,.2,1.6c2.106,6.439,5.7,12.054,9.682,17.454,4.2,5.694,4.458,6.175,8.691,11.845.945,1.266-.282,1.117-1.02.149-9.832-13.436-14.361-18.886-14.428-18.963a33.5,33.5,0,0,0-3.084,4.812c-2.075,3.537-3.863,5.737-6.86,7.651-2.333,1.492-4.567,3.135-6.858,4.694-1.041.708-2.086,1.416-3.174,2.045a8.732,8.732,0,0,0-3.16,3.073c-.806,1.324-1.592,2.662-2.447,3.956-.47.716-1.059,1.348-1.637,2.072a32.134,32.134,0,0,1,6.256,7.856c.967,1,2.941,7.02,3.3,7.916l-.275.223c-.328-.283-.768-.5-.965-.86a17.941,17.941,0,0,1-1.309-2.8,29.66,29.66,0,0,0-7.651-11.4,5.983,5.983,0,0,0-1.969-.863,5.783,5.783,0,0,1-1.321-.514c-2.5-1.882-4.96-3.824-7.461-5.708-1.6-1.2-3.275-2.306-4.863-3.522-.913-.7-1.72-1.538-2.573-2.316-1-.911-1.982-1.85-3.024-2.714-.223-.184-.671-.13-1.014-.13q-15.325-.007-30.651,0c-5.781,0-9.592-3.815-9.594-9.6V105.292a6.7,6.7,0,0,1-4.835.279c-2.929-.846-4.453-3.168-3.963-5.976a4.082,4.082,0,0,1,1.748-2.676c.657-.482,1.143-1.188,1.764-1.726a6.608,6.608,0,0,1,1.707-1.18c1.125-.464,2.314-.776,3.526-1.165v-2a10.188,10.188,0,0,1-5.822-.133,1.544,1.544,0,0,1-1.376-1.518,24.008,24.008,0,0,0-1.4-6.088,5.946,5.946,0,0,1,2.212-6.815c1.59-1.213,3.114-2.512,4.759-3.846-.9.3-1.735.555-2.545.862-2.275.861-3.892-.438-5.38-1.774a4.086,4.086,0,0,1-1.074-4.555,62.823,62.823,0,0,1,2.6-6.773c1.64-3.462,4.592-5.569,8.04-7.129V40.647c-3.1-1.414-5.417-3.82-7.865-6.035a5.011,5.011,0,0,1-1.26-2.345,7.428,7.428,0,0,1,.942-6.032,4.433,4.433,0,0,1,4.5-1.756c1.213.294,2.419.623,3.735.964,0-2.644-.008-5.192,0-7.742.008-2.133-.119-4.28.089-6.394a8.928,8.928,0,0,1,8.911-8.082q21.388-.051,42.777,0a9.076,9.076,0,0,1,9.022,9.421q.01,10.331,0,20.661Zm-4.308,82.359V10.59H17.11V117.038ZM87.36,59.55c-1.616,1.189-5.274-.089-3.546-.038,2.135.05,3.5-1.063,3.482-1.347-.256-3.526-3.814-11.6-4.1-12.765-.853.247-1.583.81-2.433.274a12.769,12.769,0,0,1-1.744-.689c-1.031-.737-2.085-1.411-1.966-4.591a12.752,12.752,0,0,1,1.362-4.381,6.063,6.063,0,0,1,1.719-1.186,8.589,8.589,0,0,1,1.642-.458l.038-.247c-.841-.495-4.4-.77-7.083,1.166a25.346,25.346,0,0,0-2.4,14.205c.076,3.5.168,6.408.926,8.346.522,3,1.993,9.324,1.91,10.3.567,4.262-.155,11.453-.586,12.24.1.06-.289,9.264-.766,10.965-.656,2.352,1.117,19.517.445,23.905.538,5.849-2.141,7.885-3.282,9.241-1.213,2-8.286,2.331-10.28,2.268-2.31-.278-5.084-.508-4.753.413a145.832,145.832,0,0,0,11.734,8.907c3.254,2.7,5.3,5.1,7.738,4.71.608-.095,1.454-.219,1.727-.634,1.484-4.042,3.752-7.795,11.31-11.862-.023-.041,5.112-3.533,6.879-5.169,4.612-4.27,8.794-10.412,4.525-16.974-1.068-3.808-.074-10.366-.594-11.925C98.5,85.14,92.1,76.913,91.528,76.159c-.259-2.569-1.422-8.31-4.168-16.609ZM16.043,87.974l-.183-.013A6.564,6.564,0,0,1,15,89.237a2.716,2.716,0,0,0-.772,2.263c.035,3.74.016,7.48.016,11.221v14.743a8.1,8.1,0,0,0,7.911,8.285c.061,0,.121,0,.181,0q21.387.077,42.776,0a8.115,8.115,0,0,0,8.1-8.135c0-.054,0-.107,0-.161,0-2.942.105-5.889-.025-8.826-.162-3.641.155-8.291-.343-11.9-.471-3.41.412-14.086.387-16.619-.06-5.691-.008-11.382-.03-17.07a10.144,10.144,0,0,0-.271-2.393,45.389,45.389,0,0,1-.507-21.785,17.216,17.216,0,0,0,.754-3.67c.07-7.565.038-15.132.033-22.7a8.862,8.862,0,0,0-.076-1.353,8.162,8.162,0,0,0-8.242-7.011q-15.811-.027-31.622-.012c-3.589,0-7.178-.015-10.767.012a8.122,8.122,0,0,0-8.258,7.985c0,.11,0,.219,0,.328v6.5q0,19.883.011,39.766a14.677,14.677,0,0,0,.322,2.675c.4,2.162,1.053,4.357.333,6.509a21.312,21.312,0,0,0-.665,6.883,8.3,8.3,0,0,1-.013,1.356c-.322,1.832.5,3.207,1.818,4.583V9.535H70.834V118.054H16.043ZM8.8,59.162a3.863,3.863,0,0,1-2.193,3.769A6.84,6.84,0,0,0,5.04,64.219,21.438,21.438,0,0,0,3.65,66.06c-2.015,3.288.119,4.813,1.616,5.9,1.711.944,2.474,1.2,6.088-.172a4.313,4.313,0,0,0,2.852-3.359c.656-2.562-.823-12.7-.759-12.768-.281-.3-.509-.739-.856-.87a1.483,1.483,0,0,0-1.211.1c-.639.454-2.958,1.159-2.578,4.271Zm2.176,16.847c-1.6-1.193-6.35,1.3-5.861,5.92.235-.2.379-.312.513-.435a4.076,4.076,0,0,1,4.668-.723c.516.256,1.281.6,1.362,1.146a4.322,4.322,0,0,1-1.114,1.118c-.926.7-2.03,1.285-2.294,2.514-.293,1.352-.413,2.742-.581,4.118-.018.152.141.325.323.716,5.5.645,6.9-1.323,7.222-2.63a6.317,6.317,0,0,0,.664-3.983c-.19-2.425-3.481-7.288-4.9-7.761ZM13.3,39.864c.015-1.407.012-3.1-.019-5.1.079-.036-.167-3.944-.085-3.982-.3-.968.254-3.785-.643-4.27a10.875,10.875,0,0,0-3.56-1.278c-3.252-.891-4.167,3.108-4.167,3.108-.863,3.024-.042,6.27,4.7,8.89ZM11.743,105.29c1.209-.355,1.607-2.259,1.6-3.423-.02-2.463,0-5.626-.12-6.609-.2-1.552-.461-1.731-1.872-1.242-.608.21-2.348.955-5.305,3.76-.054,1.233.019,1.884.017,2.989,0,.7-.072,2.977.653,3.308A6.766,6.766,0,0,0,11.743,105.29ZM82.427,34.941a8.22,8.22,0,0,0-2.627.82,2.33,2.33,0,0,0-1.114,1.233,26.1,26.1,0,0,0-.769,4.465,2.946,2.946,0,0,0,2.056,3.007c.5-.672.836-1.52,1.46-1.893,1.084-.647,1.026-1.552,1.069-2.613a16.016,16.016,0,0,0-.075-5.021ZM10.821,82.115l-.224-.239a2.189,2.189,0,0,0-2.328-.644c-1.655.1-2.52,1.459-2.114,3.262.288,1.282.668,2.543,1.008,3.813-.02-2.761.915-4.976,3.658-6.194ZM74.179,66.952v11.19a24.027,24.027,0,0,0,0-11.192Zm-65.935-7.8c-2.558.207-3.328,2.692-3.82,4.775,1.015-1.11,2.255-1.83,3.027-2.676a8.2,8.2,0,0,0,.793-2.1ZM80.549,44.962a8.449,8.449,0,0,0,1.486.376c.179.008.531-.278.534-.435.014-.722-.068-1.445-.114-2.168l-.34-.116Zm-74.732,58.3-.382-5.01c-.894,1.3-.695,4.223.382,5.009Zm6.892-27.022c.094-.06.568.051.662-.007a5.586,5.586,0,0,0,.025-3.1c-.89-.961-2.11.127-3.711,1.584,1.2.509,2.086,1.127,3.024,1.525Z"/></svg>