<svg id="Layer_1" data-name="Layer 1" xmlns="http://www.w3.org/2000/svg" xmlns:xlink="http://www.w3.org/1999/xlink" viewBox="0 0 44.508 43.379"><defs><style>.cls-1,.cls-6{fill:none;}.cls-2{clip-path:url(#clip-path);}.cls-3{fill:url(#Degradado_sin_nombre_27);}.cls-4{fill:url(#Degradado_sin_nombre_27-2);}.cls-5{fill:#fff;}.cls-6{stroke:#fff;stroke-linecap:round;stroke-linejoin:round;stroke-width:1.697px;}</style><clipPath id="clip-path"><rect class="cls-1" width="44.508" height="43.379"/></clipPath><linearGradient id="Degradado_sin_nombre_27" x1="66.636" y1="47.976" x2="62.407" y2="-3.304" gradientUnits="userSpaceOnUse"><stop offset="0" stop-color="#00de96"/><stop offset="1" stop-color="#00ecea"/></linearGradient><linearGradient id="Degradado_sin_nombre_27-2" x1="65.237" y1="0.229" x2="62.75" y2="48.84" xlink:href="#Degradado_sin_nombre_27"/></defs><title>buttoms</title><g class="cls-2"><path class="cls-3" d="M0,21.565H0A21.414,21.414,0,0,0,21.414,42.979h105.81V.15H21.414A21.414,21.414,0,0,0,0,21.565Z"/><path class="cls-4" d="M0,21.565H0A21.414,21.414,0,0,0,21.414,42.979h105.81V.15H21.414A21.414,21.414,0,0,0,0,21.565Z"/><circle class="cls-5" cx="32.554" cy="11.107" r="1.365"/><path class="cls-6" d="M27.89,13.009,25.422,9.925a.486.486,0,0,0-.8.053L16.47,23.518a.486.486,0,0,0,.036.554l6.9,8.647a1.773,1.773,0,0,0,2.905-.191l7.211-11.971A.486.486,0,0,0,33.487,20l-2.031-2.537M29.05,23.01l-6.713,2.8.936-7.258m-.936,7.258,7.313-10.6"/></g></svg>