<svg id="Layer_1" data-name="Layer 1" xmlns="http://www.w3.org/2000/svg" xmlns:xlink="http://www.w3.org/1999/xlink" viewBox="0 0 44.508 42.828"><defs><style>.cls-1,.cls-6{fill:none;}.cls-2{clip-path:url(#clip-path);}.cls-3{fill:url(#Degradado_sin_nombre_27);}.cls-4{fill:url(#Degradado_sin_nombre_27-2);}.cls-5{fill:#fff;}.cls-6{stroke:#fff;stroke-linecap:round;stroke-linejoin:round;stroke-width:1.697px;}</style><clipPath id="clip-path"><rect class="cls-1" width="44.508" height="42.828"/></clipPath><linearGradient id="Degradado_sin_nombre_27" x1="66.636" y1="47.825" x2="62.407" y2="-3.455" gradientUnits="userSpaceOnUse"><stop offset="0" stop-color="#00de96"/><stop offset="1" stop-color="#00ecea"/></linearGradient><linearGradient id="Degradado_sin_nombre_27-2" x1="65.237" y1="0.078" x2="62.75" y2="48.689" xlink:href="#Degradado_sin_nombre_27"/></defs><title>BTTFIX</title><g class="cls-2"><path class="cls-3" d="M0,21.414H0A21.414,21.414,0,0,0,21.414,42.828h105.81V0H21.414A21.414,21.414,0,0,0,0,21.414Z"/><path class="cls-4" d="M0,21.414H0A21.414,21.414,0,0,0,21.414,42.828h105.81V0H21.414A21.414,21.414,0,0,0,0,21.414Z"/><circle class="cls-5" cx="32.554" cy="10.957" r="1.365"/><path class="cls-6" d="M27.89,12.859,25.422,9.775a.486.486,0,0,0-.8.052L16.47,23.368a.484.484,0,0,0,.036.553l6.9,8.648a1.773,1.773,0,0,0,2.905-.191l7.211-11.971a.485.485,0,0,0-.036-.554l-2.031-2.537M29.05,22.859l-6.713,2.8.936-7.258m-.936,7.258,7.313-10.6"/></g></svg>