<svg id="Layer_1" data-name="Layer 1" xmlns="http://www.w3.org/2000/svg" xmlns:xlink="http://www.w3.org/1999/xlink" viewBox="0 0 127.224 42.828"><defs><style>.cls-1{fill:none;}.cls-2{clip-path:url(#clip-path);}.cls-3{fill:url(#Degradado_sin_nombre_29);}.cls-4{fill:url(#Degradado_sin_nombre_29-2);}.cls-5{fill:url(#Degradado_sin_nombre_29-3);}.cls-6{fill:url(#Degradado_sin_nombre_29-4);}.cls-7,.cls-8{fill:#fff;}.cls-8{font-size:13.564px;font-family:Roboto-Bold, Roboto;font-weight:700;}</style><clipPath id="clip-path"><rect class="cls-1" x="185.838" y="-3.562" width="44.508" height="42.828" transform="translate(416.184 35.705) rotate(180)"/></clipPath><linearGradient id="Degradado_sin_nombre_29" x1="161.288" y1="-37.929" x2="159.055" y2="-64.998" gradientUnits="userSpaceOnUse"><stop offset="0" stop-color="#ff7267"/><stop offset="1" stop-color="#ff007f"/></linearGradient><linearGradient id="Degradado_sin_nombre_29-2" x1="167.241" y1="-2.474" x2="164.754" y2="46.138" xlink:href="#Degradado_sin_nombre_29"/><linearGradient id="Degradado_sin_nombre_29-3" x1="58.165" y1="-34.367" x2="55.933" y2="-61.437" xlink:href="#Degradado_sin_nombre_29"/><linearGradient id="Degradado_sin_nombre_29-4" x1="64.118" y1="1.088" x2="61.631" y2="49.699" xlink:href="#Degradado_sin_nombre_29"/></defs><title>red buttom</title><g class="cls-2"><path class="cls-3" d="M230.346,17.852h0a21.414,21.414,0,0,1-21.414,21.415H103.123V-3.562H208.932A21.414,21.414,0,0,1,230.346,17.852Z"/><path class="cls-4" d="M230.346,17.852h0a21.414,21.414,0,0,1-21.414,21.415H103.123V-3.562H208.932A21.414,21.414,0,0,1,230.346,17.852Z"/></g><path class="cls-5" d="M127.224,21.414h0a21.414,21.414,0,0,1-21.415,21.414H0V0H105.809A21.414,21.414,0,0,1,127.224,21.414Z"/><path class="cls-6" d="M127.224,21.414h0a21.414,21.414,0,0,1-21.415,21.414H0V0H105.809A21.414,21.414,0,0,1,127.224,21.414Z"/><path class="cls-7" d="M110.852,18.19a.762.762,0,0,0,.761-.762V13.547a.762.762,0,0,0-.761-.762h-4.324a.762.762,0,0,0,0,1.524h3.562v3.119A.762.762,0,0,0,110.852,18.19Z"/><path class="cls-7" d="M106.971,30.043h3.881a.762.762,0,0,0,.761-.762V24.958a.762.762,0,1,0-1.523,0v3.561h-3.119a.762.762,0,0,0,0,1.524Z"/><path class="cls-7" d="M95.118,30.043h4.323a.762.762,0,0,0,0-1.524H95.88V25.4a.762.762,0,1,0-1.524,0v3.88A.762.762,0,0,0,95.118,30.043Z"/><path class="cls-7" d="M95.118,18.632a.762.762,0,0,0,.762-.761V14.309H99a.762.762,0,1,0,0-1.524h-3.88a.762.762,0,0,0-.762.762v4.324A.762.762,0,0,0,95.118,18.632Z"/><text class="cls-8" transform="translate(29.777 25.379)">ENVIAR</text></svg>