<svg xmlns="http://www.w3.org/2000/svg" xmlns:xlink="http://www.w3.org/1999/xlink" width="125.904" height="185.263" viewBox="0 0 125.904 185.263">
  <defs>
    <clipPath id="clip-path">
      <rect width="125.904" height="185.263" fill="none"/>
    </clipPath>
    <linearGradient id="linear-gradient" x1="-0.161" y1="-0.017" x2="1.037" y2="1.107" gradientUnits="objectBoundingBox">
      <stop offset="0" stop-color="#14a9ff"/>
      <stop offset="0.117" stop-color="#18a2ff"/>
      <stop offset="0.285" stop-color="#248fff"/>
      <stop offset="0.484" stop-color="#386fff"/>
      <stop offset="0.707" stop-color="#5444ff"/>
      <stop offset="0.947" stop-color="#770dff"/>
      <stop offset="1" stop-color="#8000ff"/>
    </linearGradient>
    <linearGradient id="linear-gradient-2" x1="-3.818" y1="-30.789" x2="3.561" y2="22.987" xlink:href="#linear-gradient"/>
    <linearGradient id="linear-gradient-3" x1="-0.994" y1="0.282" x2="10.301" y2="2.199" xlink:href="#linear-gradient"/>
    <linearGradient id="linear-gradient-4" x1="-1.439" y1="0.085" x2="6.634" y2="1.994" xlink:href="#linear-gradient"/>
    <linearGradient id="linear-gradient-5" x1="-3.626" y1="-0.138" x2="8.345" y2="1.726" xlink:href="#linear-gradient"/>
    <linearGradient id="linear-gradient-6" x1="-4.742" y1="-0.312" x2="7.229" y2="1.552" xlink:href="#linear-gradient"/>
    <linearGradient id="linear-gradient-7" x1="-5.621" y1="-0.503" x2="5.674" y2="1.414" xlink:href="#linear-gradient"/>
    <linearGradient id="linear-gradient-8" x1="-4.889" y1="-0.724" x2="3.307" y2="1.137" xlink:href="#linear-gradient"/>
    <linearGradient id="linear-gradient-9" x1="-7.215" y1="-0.964" x2="2.552" y2="0.952" xlink:href="#linear-gradient"/>
    <linearGradient id="linear-gradient-10" x1="-8.642" y1="-1.229" x2="1.69" y2="0.687" xlink:href="#linear-gradient"/>
  </defs>
  <g id="Componente_52_1" data-name="Componente 52 – 1" clip-path="url(#clip-path)">
    <g id="Grupo_1839" data-name="Grupo 1839" transform="translate(28.712 44.894)" opacity="0.67">
      <path id="Trazado_994" data-name="Trazado 994" d="M10565.582-3688.2a.73.73,0,0,1-.184-.119q-1.835-.168-2.062,1.506a5.908,5.908,0,0,0,.14,2.484,19.153,19.153,0,0,0,.992,2.442c.309.718.158,4.382,1.587,3.738A43.319,43.319,0,0,1,10565.582-3688.2Z" transform="translate(-10553.056 3743.483)" fill="none" stroke="rgba(0,0,0,0)" stroke-width="1"/>
      <path id="Trazado_995" data-name="Trazado 995" d="M10603.637-3668.863c2.33-4.333,4.344-8.115,4.549-13.185a76.305,76.305,0,0,0-.434-10.08c-2.644-.869-5.676-2.05-7.459-4.254a32.56,32.56,0,0,1-3.68-5.06c-.856,4.37-4.677,7.386-9.67,8.183-3.822.61-7.856.24-11.489,1.763-2.9,1.215-7.9,3.848-8.306,7.364a.954.954,0,0,1-.2.461c0,.541.009,1.081.03,1.622.206,5.07,2.22,8.852,4.549,13.185a35.762,35.762,0,0,0,8.064,9.93c1.923,1.668,4.531,3.679,7.131,4.111.333.055.608.08.86.139.253-.059.528-.084.861-.139,2.6-.431,5.208-2.442,7.13-4.111A35.762,35.762,0,0,0,10603.637-3668.863Zm-10.308,3.641a.707.707,0,0,1-.644.367h-9.467a.8.8,0,0,1-.25-1.543.826.826,0,0,1,.16-.083,10.047,10.047,0,0,1,2.67-.8c1.276-.03,1.824.856,3.178.331a3.736,3.736,0,0,1,4.331.677A.663.663,0,0,1,10593.329-3665.222Z" transform="translate(-10553.056 3743.439)" fill="none" stroke="rgba(0,0,0,0)" stroke-width="1"/>
      <path id="Trazado_996" data-name="Trazado 996" d="M10590.373-3653.949a8.32,8.32,0,0,1-2.792.566,8.327,8.327,0,0,1-2.792-.566,19.86,19.86,0,0,1-3.558-1.833c-.378-.272-.734-.555-1.085-.842.021,3.12.1,6.239.117,9.353.032,4.708,3.889,4.455,7.317,4.6,3.43-.149,7.285.1,7.317-4.6.021-3.115.1-6.233.117-9.353-.35.287-.708.57-1.085.842A19.828,19.828,0,0,1,10590.373-3653.949Z" transform="translate(-10553.056 3743.589)" fill="none" stroke="rgba(0,0,0,0)" stroke-width="1"/>
      <path id="Trazado_997" data-name="Trazado 997" d="M10609.178-3678.166c1.485.754,1.324-2.994,1.637-3.721a19.006,19.006,0,0,0,.991-2.442,5.893,5.893,0,0,0,.141-2.484q-.227-1.675-2.062-1.506a.8.8,0,0,1-.3.189,43.179,43.179,0,0,1-.471,9.947C10609.135-3678.175,10609.156-3678.177,10609.178-3678.166Z" transform="translate(-10553.056 3743.483)" fill="none" stroke="rgba(0,0,0,0)" stroke-width="1"/>
      <path id="Trazado_998" data-name="Trazado 998" d="M10620.65-3636.99a15.669,15.669,0,0,0-3.851-3.858c-3.231-2.041-6.925-3.428-10.371-5.066-3.279-1.558-6.645-3.488-10.051-4.7-.052-2.37.24-4.76.241-7.128.619-.577,1.229-1.168,1.858-1.773a32.623,32.623,0,0,0,3.577-4.1c2.4-.954,4.989-4.1,6.47-6.154,2.854-3.958,5.481-7.7,6.842-12.429a42.646,42.646,0,0,0-.9-25.279,37.022,37.022,0,0,0-9.058-14.543c4.226-3.478,1.034-12.251-1.8-15.417a13.788,13.788,0,0,0-2.731-2.3.771.771,0,0,0-.557-.514q-.932-.419-1.9-.792c-.253-.1-.5-.2-.765-.291-6.039-2.193-12.88-2.91-18.892-.268a13.955,13.955,0,0,0-6.915,4.165c-2.791,3.123-5.939,11.7-1.974,15.275a36.983,36.983,0,0,0-9.2,14.685,42.639,42.639,0,0,0-.9,25.279c1.36,4.726,3.987,8.471,6.842,12.429,1.485,2.059,4.088,5.222,6.494,6.165a32.587,32.587,0,0,0,3.567,4.088c.63.605,1.239,1.2,1.859,1.773,0,2.376.294,4.774.24,7.152-3.386,1.214-6.731,3.127-9.991,4.677-3.446,1.638-7.139,3.025-10.371,5.066a15.79,15.79,0,0,0-3.891,3.914l-.021-.014-1.455,2.851a63.059,63.059,0,0,0,34.492,10.24,63.049,63.049,0,0,0,33.987-9.916l-.863-3.232Zm-11.066-50.957a.8.8,0,0,0,.3-.189q1.837-.168,2.063,1.506a5.893,5.893,0,0,1-.141,2.484,19.006,19.006,0,0,1-.991,2.442c-.312.727-.151,4.476-1.637,3.721-.021-.011-.043-.009-.064-.018A43.179,43.179,0,0,0,10609.584-3687.947Zm-45.116,6.244a19.153,19.153,0,0,1-.992-2.442,5.908,5.908,0,0,1-.14-2.484q.227-1.675,2.063-1.506a.73.73,0,0,0,.184.119,43.319,43.319,0,0,0,.473,10.052C10564.626-3677.322,10564.776-3680.985,10564.468-3681.7Zm21.348-49.916c6.546-1.057,15.462,1.551,18.124,8.287h0a28.957,28.957,0,0,0-3.643-2.72c-.6-.368-1.211-.7-1.833-1.005.316-.4-7.327-2.767-10.889-2.643-3.562-.125-11.206,2.245-10.891,2.643-.622.309-1.236.637-1.832,1.005a29.328,29.328,0,0,0-3.734,2.792C10574.068-3728.984,10579.918-3730.667,10585.815-3731.619Zm9.083,84.638c-.032,4.708-3.888,4.455-7.317,4.6-3.429-.149-7.285.1-7.317-4.6-.021-3.115-.1-6.233-.117-9.353.351.287.707.57,1.085.842a19.86,19.86,0,0,0,3.558,1.833,8.327,8.327,0,0,0,2.792.566,8.32,8.32,0,0,0,2.792-.566,19.828,19.828,0,0,0,3.558-1.833c.377-.272.735-.555,1.085-.842C10595-3653.213,10594.919-3650.095,10594.9-3646.98Zm-6.456-7.7c-.333.055-.608.08-.861.139-.252-.059-.527-.084-.86-.139-2.6-.431-5.208-2.442-7.131-4.111a35.762,35.762,0,0,1-8.064-9.93c-2.329-4.333-4.343-8.115-4.549-13.185-.021-.542-.027-1.082-.03-1.622a.954.954,0,0,0,.2-.461c.41-3.516,5.405-6.149,8.306-7.364,3.633-1.523,7.667-1.153,11.489-1.763,4.993-.8,8.813-3.814,9.67-8.183a32.56,32.56,0,0,0,3.68,5.06c1.783,2.2,4.815,3.385,7.459,4.254a76.305,76.305,0,0,1,.434,10.08c-.205,5.07-2.219,8.852-4.549,13.185a35.762,35.762,0,0,1-8.064,9.93C10593.65-3657.125,10591.042-3655.114,10588.442-3654.682Z" transform="translate(-10553.056 3743.299)" stroke="rgba(0,0,0,0)" stroke-width="1" fill="url(#linear-gradient)"/>
      <path id="Trazado_999" data-name="Trazado 999" d="M10588.977-3667.067c-1.354.525-1.9-.361-3.178-.331a10.047,10.047,0,0,0-2.67.8.826.826,0,0,0-.16.083.8.8,0,0,0,.25,1.543h9.467a.707.707,0,0,0,.644-.367.663.663,0,0,0-.021-1.053A3.736,3.736,0,0,0,10588.977-3667.067Z" transform="translate(-10553.056 3743.553)" stroke="rgba(0,0,0,0)" stroke-width="1" fill="url(#linear-gradient-2)"/>
    </g>
    <rect id="Rectángulo_6928" data-name="Rectángulo 6928" width="124.904" height="184.263" rx="15.88" transform="translate(0.5 0.5)" fill="none" stroke="#3d95ff" stroke-miterlimit="10" stroke-width="1"/>
    <g id="Grupo_1840" data-name="Grupo 1840" transform="translate(25.656 16.912)">
      <path id="Trazado_1000" data-name="Trazado 1000" d="M10557.4-3767.668a3.289,3.289,0,0,1-1.08,2.653,4.611,4.611,0,0,1-3.073.919h-.973v3.821H10550v-10.744h3.42a4.54,4.54,0,0,1,2.963.842A3.072,3.072,0,0,1,10557.4-3767.668Zm-5.126,1.7h.746a2.474,2.474,0,0,0,1.567-.416,1.453,1.453,0,0,0,.521-1.208,1.491,1.491,0,0,0-.437-1.183,2.036,2.036,0,0,0-1.366-.382h-1.031Z" transform="translate(-10550 3771.188)" stroke="rgba(0,0,0,0)" stroke-width="1" fill="url(#linear-gradient-3)"/>
      <path id="Trazado_1001" data-name="Trazado 1001" d="M10565.974-3760.275l-.775-2.556h-3.9l-.776,2.556h-2.446l3.779-10.788h2.775l3.795,10.788Zm-1.318-4.468q-1.075-3.475-1.212-3.931c-.09-.3-.155-.544-.194-.72q-.24.941-1.384,4.652Z" transform="translate(-10550 3771.188)" stroke="rgba(0,0,0,0)" stroke-width="1" fill="url(#linear-gradient-4)"/>
      <path id="Trazado_1002" data-name="Trazado 1002" d="M10576.089-3763.258a2.781,2.781,0,0,1-1.043,2.292,4.521,4.521,0,0,1-2.9.838,6.794,6.794,0,0,1-3.032-.647v-2.116a12.461,12.461,0,0,0,1.835.683,5.4,5.4,0,0,0,1.373.2,1.945,1.945,0,0,0,1.146-.287.983.983,0,0,0,.4-.852.94.94,0,0,0-.176-.562,1.963,1.963,0,0,0-.516-.475,13.246,13.246,0,0,0-1.389-.727,6.585,6.585,0,0,1-1.472-.889,3.347,3.347,0,0,1-.784-.992,2.843,2.843,0,0,1-.293-1.323,2.778,2.778,0,0,1,.964-2.24,3.992,3.992,0,0,1,2.662-.816,6.26,6.26,0,0,1,1.593.2,10.954,10.954,0,0,1,1.586.559l-.732,1.771a10.822,10.822,0,0,0-1.417-.492,4.579,4.579,0,0,0-1.1-.139,1.453,1.453,0,0,0-.988.3,1,1,0,0,0-.345.787.969.969,0,0,0,.14.526,1.52,1.52,0,0,0,.442.434,13.94,13.94,0,0,0,1.439.753,5.718,5.718,0,0,1,2.058,1.444A2.823,2.823,0,0,1,10576.089-3763.258Z" transform="translate(-10550 3771.187)" stroke="rgba(0,0,0,0)" stroke-width="1" fill="url(#linear-gradient-5)"/>
      <path id="Trazado_1003" data-name="Trazado 1003" d="M10584.351-3763.258a2.781,2.781,0,0,1-1.043,2.292,4.521,4.521,0,0,1-2.9.838,6.794,6.794,0,0,1-3.032-.647v-2.116a12.461,12.461,0,0,0,1.835.683,5.4,5.4,0,0,0,1.373.2,1.945,1.945,0,0,0,1.146-.287.98.98,0,0,0,.4-.852.94.94,0,0,0-.176-.562,1.963,1.963,0,0,0-.516-.475,13.246,13.246,0,0,0-1.389-.727,6.585,6.585,0,0,1-1.472-.889,3.347,3.347,0,0,1-.784-.992,2.843,2.843,0,0,1-.293-1.323,2.778,2.778,0,0,1,.964-2.24,3.992,3.992,0,0,1,2.662-.816,6.26,6.26,0,0,1,1.593.2,10.954,10.954,0,0,1,1.586.559l-.732,1.771a10.822,10.822,0,0,0-1.417-.492,4.579,4.579,0,0,0-1.1-.139,1.453,1.453,0,0,0-.988.3,1,1,0,0,0-.345.787.977.977,0,0,0,.139.526,1.537,1.537,0,0,0,.443.434,13.83,13.83,0,0,0,1.439.753,5.718,5.718,0,0,1,2.058,1.444A2.823,2.823,0,0,1,10584.351-3763.258Z" transform="translate(-10550 3771.187)" stroke="rgba(0,0,0,0)" stroke-width="1" fill="url(#linear-gradient-6)"/>
      <path id="Trazado_1004" data-name="Trazado 1004" d="M10593.689-3767.668a3.289,3.289,0,0,1-1.08,2.653,4.611,4.611,0,0,1-3.073.919h-.973v3.821h-2.271v-10.744h3.42a4.54,4.54,0,0,1,2.963.842A3.072,3.072,0,0,1,10593.689-3767.668Zm-5.126,1.7h.746a2.474,2.474,0,0,0,1.567-.416,1.453,1.453,0,0,0,.521-1.208,1.491,1.491,0,0,0-.437-1.183,2.036,2.036,0,0,0-1.366-.382h-1.031Z" transform="translate(-10550 3771.188)" stroke="rgba(0,0,0,0)" stroke-width="1" fill="url(#linear-gradient-7)"/>
      <path id="Trazado_1005" data-name="Trazado 1005" d="M10605.429-3765.661a5.845,5.845,0,0,1-1.318,4.1,4.879,4.879,0,0,1-3.779,1.433,4.879,4.879,0,0,1-3.779-1.433,5.868,5.868,0,0,1-1.318-4.116,5.788,5.788,0,0,1,1.322-4.1,4.937,4.937,0,0,1,3.791-1.415,4.869,4.869,0,0,1,3.775,1.426A5.859,5.859,0,0,1,10605.429-3765.661Zm-7.814,0a4.489,4.489,0,0,0,.682,2.711,2.376,2.376,0,0,0,2.035.912q2.717,0,2.718-3.623t-2.7-3.63a2.4,2.4,0,0,0-2.044.914A4.483,4.483,0,0,0,10597.614-3765.661Z" transform="translate(-10550 3771.187)" stroke="rgba(0,0,0,0)" stroke-width="1" fill="url(#linear-gradient-8)"/>
      <path id="Trazado_1006" data-name="Trazado 1006" d="M10609.92-3764.4v4.123h-2.271v-10.744h3.12a5.325,5.325,0,0,1,3.229.8,2.85,2.85,0,0,1,1.048,2.421,2.857,2.857,0,0,1-.521,1.687,3.443,3.443,0,0,1-1.472,1.158q2.417,3.623,3.149,4.681h-2.52l-2.557-4.123Zm0-1.851h.732a2.8,2.8,0,0,0,1.589-.36,1.287,1.287,0,0,0,.514-1.132,1.176,1.176,0,0,0-.524-1.088,3.164,3.164,0,0,0-1.622-.323h-.688Z" transform="translate(-10550 3771.188)" stroke="rgba(0,0,0,0)" stroke-width="1" fill="url(#linear-gradient-9)"/>
      <path id="Trazado_1007" data-name="Trazado 1007" d="M10621.683-3760.275h-2.271v-8.847h-2.907v-1.9h8.086v1.9h-2.908Z" transform="translate(-10550 3771.188)" stroke="rgba(0,0,0,0)" stroke-width="1" fill="url(#linear-gradient-10)"/>
    </g>
  </g>
</svg>
