<svg xmlns="http://www.w3.org/2000/svg" xmlns:xlink="http://www.w3.org/1999/xlink" width="28.208" height="28.208" viewBox="0 0 28.208 28.208">
  <defs>
    <clipPath id="clip-path">
      <rect width="28.208" height="28.208" fill="none"/>
    </clipPath>
  </defs>
  <g id="Símbolo_29_2" data-name="Símbolo 29 – 2" transform="translate(0 0)" clip-path="url(#clip-path)">
    <path id="Trazado_158" data-name="Trazado 158" d="M994.4,500.863h-1.287a1.017,1.017,0,0,1-.719-1.737l.9-.895a2.868,2.868,0,0,0,.142-3.974,2.784,2.784,0,0,0-3.988-.053l-.986.986a1.017,1.017,0,0,1-1.737-.719v-1.287a2.855,2.855,0,0,0-2.61-2.885,2.783,2.783,0,0,0-2.957,2.778v1.395a1.017,1.017,0,0,1-1.737.719l-.986-.986a2.784,2.784,0,0,0-3.988.053,2.868,2.868,0,0,0,.142,3.974l.9.895a1.017,1.017,0,0,1-.719,1.737h-1.286a2.855,2.855,0,0,0-2.885,2.609,2.784,2.784,0,0,0,2.778,2.957h1.394a1.017,1.017,0,0,1,.719,1.737l-.906.906a2.859,2.859,0,0,0-.211,3.877,2.784,2.784,0,0,0,4.067.139l.986-.986a1.017,1.017,0,0,1,1.737.719v1.287a2.855,2.855,0,0,0,2.609,2.885,2.783,2.783,0,0,0,2.957-2.778v-1.394a1.017,1.017,0,0,1,1.737-.719l.986.986a2.784,2.784,0,0,0,4.066-.139,2.858,2.858,0,0,0-.211-3.877l-.906-.906a1.017,1.017,0,0,1,.719-1.737h1.4a2.784,2.784,0,0,0,2.778-2.957A2.855,2.855,0,0,0,994.4,500.863Z" transform="translate(-969.838 -489.542)" fill="none" stroke="#fff" stroke-miterlimit="10" stroke-width="1.5"/>
    <circle id="Elipse_33" data-name="Elipse 33" cx="2.829" cy="2.829" r="2.829" transform="translate(11.276 11.276)" fill="none" stroke="#fff" stroke-miterlimit="10" stroke-width="1.5"/>
  </g>
</svg>
