<svg xmlns="http://www.w3.org/2000/svg" width="22.927" height="24.472" viewBox="0 0 22.927 24.472">
  <path id="Trazado_1355" data-name="Trazado 1355" d="M380.7,1915.874H367.262a4.749,4.749,0,0,0-4.744,4.744v9.781a4.749,4.749,0,0,0,4.744,4.744h4.114a4.346,4.346,0,0,0-3.654,4.283v.92h12.246v-.92a4.346,4.346,0,0,0-3.654-4.283H380.7a4.749,4.749,0,0,0,4.744-4.744v-9.781A4.749,4.749,0,0,0,380.7,1915.874Zm-2.749,22.632h-8.216a2.507,2.507,0,0,1,2.328-1.583h3.56A2.507,2.507,0,0,1,377.953,1938.506Zm5.652-8.107a2.907,2.907,0,0,1-2.9,2.9H367.262a2.907,2.907,0,0,1-2.9-2.9v-9.781a2.907,2.907,0,0,1,2.9-2.9H380.7a2.907,2.907,0,0,1,2.9,2.9Z" transform="translate(-362.518 -1915.874)" fill="#5496ff"/>
</svg>
