<svg xmlns="http://www.w3.org/2000/svg" xmlns:xlink="http://www.w3.org/1999/xlink" width="58" height="52.806" viewBox="0 0 58 52.806">
  <defs>
    <clipPath id="clip-path">
      <rect width="32.939" height="36.237" fill="none"/>
    </clipPath>
  </defs>
  <g id="Grupo_2375" data-name="Grupo 2375" transform="translate(-30.298 -546.189)">
    <g id="Grupo_2374" data-name="Grupo 2374" transform="translate(-2662 -1419)">
      <g id="Componente_72_1" data-name="Componente 72 – 1" transform="translate(2704.54 1965.189)" clip-path="url(#clip-path)">
        <g id="Grupo_246" data-name="Grupo 246" transform="translate(0.75 0.75)">
          <path id="Trazado_166" data-name="Trazado 166" d="M175.3,1349.74v-13.182a3.03,3.03,0,0,1,3.03-3.03h12.857a3.03,3.03,0,0,1,3.03,3.03v28.677a3.03,3.03,0,0,1-3.03,3.03H178.329a3.03,3.03,0,0,1-3.03-3.03v-6.318" transform="translate(-169.097 -1333.528)" fill="none" stroke="#272759" stroke-linecap="round" stroke-linejoin="round" stroke-width="1.5"/>
          <line id="Línea_15" data-name="Línea 15" x1="18.917" transform="translate(6.202 4.687)" fill="none" stroke="#272759" stroke-linecap="round" stroke-linejoin="round" stroke-width="1.5"/>
          <path id="Trazado_167" data-name="Trazado 167" d="M194.216,1412.523c-1.966-.167-18.917,0-18.917,0" transform="translate(-169.097 -1383.394)" fill="none" stroke="#272759" stroke-linecap="round" stroke-linejoin="round" stroke-width="1.5"/>
          <path id="Trazado_168" data-name="Trazado 168" d="M200.329,1419.7h-3.767" transform="translate(-182.532 -1387.975)" fill="none" stroke="#272759" stroke-linecap="round" stroke-linejoin="round" stroke-width="1.5"/>
          <path id="Trazado_169" data-name="Trazado 169" d="M233.4,1372.573a3.338,3.338,0,0,1,.617,4.25" transform="translate(-205.807 -1358.198)" fill="none" stroke="#272759" stroke-linecap="round" stroke-linejoin="round" stroke-width="1.5"/>
          <path id="Trazado_170" data-name="Trazado 170" d="M238.246,1366.99a6.067,6.067,0,0,1-.02,9.112" transform="translate(-208.857 -1354.671)" fill="none" stroke="#272759" stroke-linecap="round" stroke-linejoin="round" stroke-width="1.5"/>
          <path id="Trazado_171" data-name="Trazado 171" d="M233.4,1378.863a3.338,3.338,0,0,0,.617-4.25" transform="translate(-205.807 -1359.488)" fill="none" stroke="#272759" stroke-linecap="round" stroke-linejoin="round" stroke-width="1.5"/>
          <path id="Trazado_172" data-name="Trazado 172" d="M238.246,1376.1a6.067,6.067,0,0,0-.02-9.112" transform="translate(-208.857 -1354.671)" fill="none" stroke="#272759" stroke-linecap="round" stroke-linejoin="round" stroke-width="1.5"/>
          <path id="Trazado_173" data-name="Trazado 173" d="M166.986,1378.863a3.338,3.338,0,0,1-.617-4.25" transform="translate(-163.138 -1359.488)" fill="none" stroke="#272759" stroke-linecap="round" stroke-linejoin="round" stroke-width="1.5"/>
          <path id="Trazado_174" data-name="Trazado 174" d="M160.5,1376.1a6.067,6.067,0,0,1,.02-9.112" transform="translate(-158.452 -1354.671)" fill="none" stroke="#272759" stroke-linecap="round" stroke-linejoin="round" stroke-width="1.5"/>
        </g>
        <path id="Trazado_175" data-name="Trazado 175" d="M192.211,1373.592c-.466-1.1-1.968-4.5-1.968-4.5l1.258-6.181a5.975,5.975,0,1,0-11.711-2.383l-1.3,6.412s-2.261,2.388-3.121,3.22a.213.213,0,0,0,.107.362l8.25,1.679,8.25,1.678A.213.213,0,0,0,192.211,1373.592Z" transform="translate(-168.347 -1346.816)" fill="none" stroke="#5496ff" stroke-linecap="round" stroke-linejoin="round" stroke-width="1.5"/>
        <path id="Trazado_176" data-name="Trazado 176" d="M196.543,1400.287a2.381,2.381,0,1,1-4.625-1.114" transform="translate(-178.79 -1374.256)" fill="none" stroke="#5496ff" stroke-linecap="round" stroke-linejoin="round" stroke-width="1.5"/>
      </g>
      <text id="Notificaciones" transform="translate(2692.298 2015.996)" fill="#93b5e5" font-size="8" font-family="OpenSans-Bold, Open Sans" font-weight="700" letter-spacing="0.001em"><tspan x="0" y="0">Notificaciones</tspan></text>
    </g>
  </g>
</svg>
