<svg xmlns="http://www.w3.org/2000/svg" xmlns:xlink="http://www.w3.org/1999/xlink" width="44.757" height="52.316" viewBox="0 0 44.757 52.316">
  <defs>
    <clipPath id="clip-path">
      <rect width="44.757" height="31.553" fill="none"/>
    </clipPath>
  </defs>
  <g id="Grupo_2376" data-name="Grupo 2376" transform="translate(-2783.912 -1970.68)">
    <g id="Componente_73_1" data-name="Componente 73 – 1" transform="translate(2783.912 1970.68)" clip-path="url(#clip-path)">
      <g id="Grupo_244" data-name="Grupo 244" transform="translate(0.75 0.75)">
        <g id="Grupo_241" data-name="Grupo 241" transform="translate(14.176 2.967)">
          <path id="Trazado_161" data-name="Trazado 161" d="M438.29,1396.838h-1.327" transform="translate(-426.978 -1379.988)" fill="none" stroke="#272759" stroke-linecap="round" stroke-linejoin="round" stroke-width="1.5"/>
          <path id="Trazado_162" data-name="Trazado 162" d="M414.291,1385.154a5.441,5.441,0,0,1-4.45-5.349,1.317,1.317,0,0,1,1.317-1.317h11.524a2.063,2.063,0,0,1,2.063,2.063v2.629a2.063,2.063,0,0,1-2.063,2.063h-1.529" transform="translate(-409.841 -1368.394)" fill="none" stroke="#272759" stroke-linecap="round" stroke-linejoin="round" stroke-width="1.5"/>
          <circle id="Elipse_35" data-name="Elipse 35" cx="3.86" cy="3.86" r="3.86" transform="translate(3.592)" stroke-width="1.5" stroke="#272759" stroke-linecap="round" stroke-linejoin="round" fill="none"/>
        </g>
        <circle id="Elipse_36" data-name="Elipse 36" cx="1.053" cy="1.053" r="1.053" transform="translate(0 10.117)" stroke-width="1.5" stroke="#5496ff" stroke-linecap="round" stroke-linejoin="round" fill="none"/>
        <circle id="Elipse_37" data-name="Elipse 37" cx="1.053" cy="1.053" r="1.053" transform="translate(41.15 10.117)" stroke-width="1.5" stroke="#5496ff" stroke-linecap="round" stroke-linejoin="round" fill="none"/>
        <g id="Grupo_242" data-name="Grupo 242" transform="translate(2.106 1.556)">
          <path id="Trazado_163" data-name="Trazado 163" d="M394.831,1352.626H392.4l-1.052-2.53h-2.155" transform="translate(-384.725 -1349.043)" fill="none" stroke="#5496ff" stroke-linecap="round" stroke-linejoin="round" stroke-width="1.5"/>
          <circle id="Elipse_38" data-name="Elipse 38" cx="1.053" cy="1.053" r="1.053" transform="translate(2.363)" stroke-width="1.5" stroke="#5496ff" stroke-linecap="round" stroke-linejoin="round" fill="none"/>
          <circle id="Elipse_39" data-name="Elipse 39" cx="1.053" cy="1.053" r="1.053" transform="translate(3.835 14.593)" stroke-width="1.5" stroke="#5496ff" stroke-linecap="round" stroke-linejoin="round" fill="none"/>
          <line id="Línea_10" data-name="Línea 10" x1="6.624" transform="translate(0 9.615)" fill="none" stroke="#5496ff" stroke-linecap="round" stroke-linejoin="round" stroke-width="1.5"/>
          <line id="Línea_11" data-name="Línea 11" x1="4.165" transform="translate(5.941 15.646)" fill="none" stroke="#5496ff" stroke-linecap="round" stroke-linejoin="round" stroke-width="1.5"/>
        </g>
        <g id="Grupo_243" data-name="Grupo 243" transform="translate(31.045 1.556)">
          <path id="Trazado_164" data-name="Trazado 164" d="M455.66,1352.626h2.43l1.052-2.53H461.3" transform="translate(-455.66 -1349.043)" fill="none" stroke="#5496ff" stroke-linecap="round" stroke-linejoin="round" stroke-width="1.5"/>
          <circle id="Elipse_40" data-name="Elipse 40" cx="1.053" cy="1.053" r="1.053" transform="translate(5.637)" stroke-width="1.5" stroke="#5496ff" stroke-linecap="round" stroke-linejoin="round" fill="none"/>
          <circle id="Elipse_41" data-name="Elipse 41" cx="1.053" cy="1.053" r="1.053" transform="translate(4.165 14.593)" stroke-width="1.5" stroke="#5496ff" stroke-linecap="round" stroke-linejoin="round" fill="none"/>
          <line id="Línea_12" data-name="Línea 12" x2="6.624" transform="translate(3.482 9.615)" fill="none" stroke="#5496ff" stroke-linecap="round" stroke-linejoin="round" stroke-width="1.5"/>
          <line id="Línea_13" data-name="Línea 13" x2="4.165" transform="translate(0 15.646)" fill="none" stroke="#5496ff" stroke-linecap="round" stroke-linejoin="round" stroke-width="1.5"/>
        </g>
        <rect id="Rectángulo_6389" data-name="Rectángulo 6389" width="8.911" height="8.911" rx="2.148" transform="translate(17.173 21.141)" stroke-width="1.5" stroke="#5496ff" stroke-linecap="round" stroke-linejoin="round" fill="none"/>
        <path id="Rectángulo_6390" data-name="Rectángulo 6390" d="M2.662,0h0A2.662,2.662,0,0,1,5.323,2.662V4.7a0,0,0,0,1,0,0H0a0,0,0,0,1,0,0V2.662A2.662,2.662,0,0,1,2.662,0Z" transform="translate(18.838 16.439)" fill="none" stroke="#5496ff" stroke-linecap="round" stroke-linejoin="round" stroke-width="1.5"/>
        <path id="Trazado_165" data-name="Trazado 165" d="M414.343,1365.35h.052l6.449-11.17-6.449-11.17H401.5l-6.449,11.17,6.4,11.078" transform="translate(-386.317 -1343.009)" fill="none" stroke="#272759" stroke-linecap="round" stroke-linejoin="round" stroke-width="1.5"/>
      </g>
      <line id="Línea_14" data-name="Línea 14" x2="8.911" transform="translate(17.923 24.928)" fill="none" stroke="#272759" stroke-linecap="round" stroke-linejoin="round" stroke-width="1.5"/>
    </g>
    <text id="Seguridad" transform="translate(2786.195 2020.996)" fill="#93b5e5" font-size="8" font-family="OpenSans-Bold, Open Sans" font-weight="700" letter-spacing="0.001em"><tspan x="0" y="0">Seguridad</tspan></text>
  </g>
</svg>
