<svg id="Capa_1" data-name="Capa 1" xmlns="http://www.w3.org/2000/svg" xmlns:xlink="http://www.w3.org/1999/xlink" viewBox="0 0 189 189"><defs><style>.cls-1{opacity:0.18;fill:url(#Degradado_sin_nombre_9);}</style><linearGradient id="Degradado_sin_nombre_9" x1="2.558" y1="166.608" x2="193.362" y2="16.475" gradientUnits="userSpaceOnUse"><stop offset="0" stop-color="#29abe2"/><stop offset="1" stop-color="#345d9d"/></linearGradient></defs><title>icon LTC color </title><path class="cls-1" d="M94.5,1.029a93.236,93.236,0,1,0,93.235,93.235v0A93.232,93.232,0,0,0,94.5,1.029Zm36.432,127.838-3.775,15.1a1.587,1.587,0,0,1-1.538,1.2H58.988l10.991-37.295-11.962,3.674,2.611-9.148,12.078-3.754L88.673,44.492a1.587,1.587,0,0,1,1.544-1.136l18.563.278a1.556,1.556,0,0,1,.424.065,1.588,1.588,0,0,1,1.072,1.972L96.712,91.181l12.2-3.793-1.956,9.148-13.018,4L86.09,126.882h43.322a1.527,1.527,0,0,1,.381.051A1.586,1.586,0,0,1,130.932,128.867Z"/></svg>