<svg id="Capa_1" data-name="Capa 1" xmlns="http://www.w3.org/2000/svg" xmlns:xlink="http://www.w3.org/1999/xlink" viewBox="0 0 189 189"><defs><style>.cls-1{opacity:0.18;fill:url(#Degradado_sin_nombre_10);}</style><linearGradient id="Degradado_sin_nombre_10" x1="180.684" y1="-1.519" x2="0.684" y2="199.411" gradientUnits="userSpaceOnUse"><stop offset="0" stop-color="#4daaff"/><stop offset="0.217" stop-color="#5584ff"/><stop offset="1" stop-color="#7300ff"/></linearGradient></defs><title>icon ETH color </title><path class="cls-1" d="M94.5,3.683a91,91,0,1,0,91,91v-.005A91,91,0,0,0,94.5,3.683Zm-.008,31.724L120.466,78.02l1.369,2.246,8.411,13.8-10.592-4.391L95.475,79.65l-.193-.08-.79-.365-.791.365-34.963,14.5ZM112.3,108.4,94.5,118.651l-10.048-5.789-25.3-14.575L94.1,83.789l.391-.162,20.26,8.4,15.087,6.257ZM94.5,153.96l-37.56-51.772L83,117.216l6.1,3.515,5.4,3.113,1.46-.841,18.5-10.669,17.6-10.146Z"/></svg>