<svg id="Capa_1" data-name="Capa 1" xmlns="http://www.w3.org/2000/svg" xmlns:xlink="http://www.w3.org/1999/xlink" viewBox="0 0 189 189"><defs><style>.cls-1{opacity:0.18;}.cls-2{fill:url(#Degradado_sin_nombre_8);}.cls-3{fill:url(#Degradado_sin_nombre_8-2);}.cls-4{fill:url(#Degradado_sin_nombre_8-3);}</style><linearGradient id="Degradado_sin_nombre_8" x1="-315.6" y1="216.359" x2="-292.171" y2="227.397" gradientTransform="matrix(12.231, 0, 0, -10.031, 3776.788, 2352.511)" gradientUnits="userSpaceOnUse"><stop offset="0" stop-color="#8dc351"/><stop offset="1" stop-color="#199168"/></linearGradient><linearGradient id="Degradado_sin_nombre_8-2" x1="-315.159" y1="212.518" x2="-289.202" y2="225.218" gradientTransform="matrix(11.041, 0, 0, -8.723, 3386.938, 2011.522)" xlink:href="#Degradado_sin_nombre_8"/><linearGradient id="Degradado_sin_nombre_8-3" x1="-327.924" y1="246.541" x2="-323.777" y2="248.144" gradientTransform="matrix(69.092, 0, 0, -69.092, 22567.421, 17199.862)" xlink:href="#Degradado_sin_nombre_8"/></defs><title>icon btc Cash color</title><g id="Grupo_2051" data-name="Grupo 2051" class="cls-1"><path id="Trazado_1124-2" data-name="Trazado 1124-2" class="cls-2" d="M111.017,107.2a34.488,34.488,0,0,0-10.828-4.785l-11.1-3.669-6.647,20.035,12.886,4.269a38.913,38.913,0,0,0,8.287,2.239,9.9,9.9,0,0,0,6.489-1.181,9.669,9.669,0,0,0,4.227-5.649,10.235,10.235,0,0,0,.25-6.277A9.674,9.674,0,0,0,111.017,107.2Z"/><path id="Trazado_1125-2" data-name="Trazado 1125-2" class="cls-3" d="M117.156,75.252a109.463,109.463,0,0,0-10.608-3.8l-7.568-2.5L93.243,86.28l8.8,2.908a78.386,78.386,0,0,0,8.836,2.64,10.573,10.573,0,0,0,7-.659,8.4,8.4,0,0,0,4.157-5.118,8.668,8.668,0,0,0-.05-6.276A9.153,9.153,0,0,0,117.156,75.252Z"/><g id="Grupo_2050" data-name="Grupo 2050"><g id="Grupo_2049" data-name="Grupo 2049"><path id="Trazado_1126" data-name="Trazado 1126" class="cls-4" d="M94.5,2.846a91.84,91.84,0,1,0,91.84,91.84v-.005A91.837,91.837,0,0,0,94.5,2.846Zm45.194,86.693a18.659,18.659,0,0,1-15.9,12.761,20.735,20.735,0,0,1,8.267,10.286,18.982,18.982,0,0,1-.05,12.516,23.526,23.526,0,0,1-5.668,9.156,21.248,21.248,0,0,1-9.039,5.567,22.675,22.675,0,0,1-11.325.188c-1.63-.359-4.817-1.27-9.228-2.629l-4.538,13.7-11.365-3.762,4.488-13.558-7.377-2.449-4.5,13.577-11.2-3.722,4.5-13.577-18.434-6.1,4.129-12.477,7.428,2.459a5.456,5.456,0,0,0,6.9-3.456L79.884,68.391a5.443,5.443,0,0,0-3.442-6.884l-.014,0L69,59.044l4.129-12.477,18.423,6.115,4.769-14.4,11.206,3.722-4.759,14.385,7.377,2.449,4.77-14.4,11.346,3.759L121.476,62.67a67.994,67.994,0,0,1,8.348,3.5,20.449,20.449,0,0,1,6.8,5.69,20.2,20.2,0,0,1,3.68,8.156,17.892,17.892,0,0,1-.615,9.525Z"/></g></g></g></svg>