<svg xmlns="http://www.w3.org/2000/svg" xmlns:xlink="http://www.w3.org/1999/xlink" width="189.362" height="189.366" viewBox="0 0 189.362 189.366">
  <defs>
    <linearGradient id="linear-gradient" x1="-3.666" y1="5.644" x2="3.729" y2="-3.457" gradientUnits="objectBoundingBox">
      <stop offset="0" stop-color="#ebc37c"/>
      <stop offset="1" stop-color="#cc5938"/>
    </linearGradient>
    <filter id="Trazado_1127" x="66.114" y="93.498" width="65.851" height="59.808" filterUnits="userSpaceOnUse">
      <feOffset dy="10.775" input="SourceAlpha"/>
      <feGaussianBlur stdDeviation="5.387" result="blur"/>
      <feFlood flood-color="#e58f28" flood-opacity="0.2"/>
      <feComposite operator="in" in2="blur"/>
      <feComposite in="SourceGraphic"/>
    </filter>
    <linearGradient id="linear-gradient-2" x1="-4.811" y1="7.299" x2="3.383" y2="-3.17" xlink:href="#linear-gradient"/>
    <filter id="Trazado_1128" x="77.214" y="62.783" width="62.58" height="56.216" filterUnits="userSpaceOnUse">
      <feOffset dy="10.775" input="SourceAlpha"/>
      <feGaussianBlur stdDeviation="5.387" result="blur-2"/>
      <feFlood flood-color="#e58f28" flood-opacity="0.2"/>
      <feComposite operator="in" in2="blur-2"/>
      <feComposite in="SourceGraphic"/>
    </filter>
    <linearGradient id="linear-gradient-3" x1="-0.275" y1="1.282" x2="1.034" y2="-0.039" xlink:href="#linear-gradient"/>
  </defs>
  <g id="Grupo_2054" data-name="Grupo 2054" transform="translate(-124.668 -82.124)" opacity="0.18">
    <g transform="matrix(1, 0, 0, 1, 124.67, 82.12)" filter="url(#Trazado_1127)">
      <path id="Trazado_1127-2" data-name="Trazado 1127" d="M400.148,175.521c-1.88-1.429-4.061-2.572-11.157-4.922l-11.439-3.787-6.844,20.659,13.285,4.4c5.622,1.861,6.927,2.117,8.54,2.305a10.194,10.194,0,0,0,6.69-1.211,9.991,9.991,0,0,0,4.362-5.828,10.516,10.516,0,0,0,.256-6.468A10,10,0,0,0,400.148,175.521Z" transform="translate(-288.43 -67.93)" fill="url(#linear-gradient)"/>
    </g>
    <g transform="matrix(1, 0, 0, 1, 124.67, 82.12)" filter="url(#Trazado_1128)">
      <path id="Trazado_1128-2" data-name="Trazado 1128" d="M398.31,165.138a115.893,115.893,0,0,0-10.931-3.907l-7.8-2.587-5.915,17.865,9.066,3a79.071,79.071,0,0,0,9.107,2.719,10.826,10.826,0,0,0,7.216-.681,8.6,8.6,0,0,0,4.287-5.28,8.935,8.935,0,0,0-.045-6.464A9.427,9.427,0,0,0,398.31,165.138Z" transform="translate(-280.28 -90.47)" fill="url(#linear-gradient-2)"/>
    </g>
    <g id="Grupo_2053" data-name="Grupo 2053">
      <g id="Grupo_2052" data-name="Grupo 2052" transform="translate(124.668 82.124)">
        <path id="Trazado_1129" data-name="Trazado 1129" d="M443.51,140.515A94.683,94.683,0,1,0,538.191,235.2,94.681,94.681,0,0,0,443.51,140.515ZM490.1,229.89a19.262,19.262,0,0,1-16.4,13.165,21.416,21.416,0,0,1,8.532,10.6,19.6,19.6,0,0,1-.056,12.905A24.319,24.319,0,0,1,476.326,276,21.822,21.822,0,0,1,467,281.738a23.271,23.271,0,0,1-11.676.2c-1.685-.365-4.967-1.309-9.517-2.711l-4.674,14.116-11.7-3.877,4.633-13.988-7.611-2.523-4.633,13.992-11.556-3.824,4.633-13.992-19-6.295,4.26-12.857,7.656,2.538a5.625,5.625,0,0,0,7.1-3.572l13.53-40.852a5.626,5.626,0,0,0-3.572-7.1l-7.656-2.534,4.26-12.857,19,6.291,4.911-14.835,11.555,3.824-4.911,14.834,7.611,2.523,4.911-14.834,11.706,3.873-4.937,14.91a70.615,70.615,0,0,1,8.6,3.614,20.524,20.524,0,0,1,10.8,14.274A18.354,18.354,0,0,1,490.1,229.89Z" transform="translate(-348.829 -140.515)" fill="url(#linear-gradient-3)"/>
      </g>
    </g>
  </g>
</svg>
