<svg xmlns="http://www.w3.org/2000/svg" xmlns:xlink="http://www.w3.org/1999/xlink" width="82.984" height="82.995" viewBox="0 0 82.984 82.995">
  <defs>
    <clipPath id="clip-path">
      <rect width="82.984" height="82.995" fill="none"/>
    </clipPath>
    <linearGradient id="linear-gradient" y1="0.5" x2="1" y2="0.5" gradientUnits="objectBoundingBox">
      <stop offset="0" stop-color="#ff7267"/>
      <stop offset="1" stop-color="#ff007f"/>
    </linearGradient>
  </defs>
  <g id="Componente_48_1" data-name="Componente 48 – 1" transform="translate(0 0)" clip-path="url(#clip-path)">
    <path id="Trazado_1313" data-name="Trazado 1313" d="M11811.126,134.581a41.492,41.492,0,1,1-41.454-41.509A41.534,41.534,0,0,1,11811.126,134.581Zm-2.524-.013a38.968,38.968,0,1,0-38.889,38.98A38.994,38.994,0,0,0,11808.6,134.568Z" transform="translate(-11728.142 -93.072)" fill="url(#linear-gradient)"/>
    <path id="Trazado_1314" data-name="Trazado 1314" d="M11737.609,134.525h-2.506a33.826,33.826,0,0,1,8.226-22.253c6.866-8,15.669-11.981,26.238-12.257v2.529a32.2,32.2,0,0,0-31.958,31.981Z" transform="translate(-11728.142 -93.072)" fill="url(#linear-gradient)"/>
    <g id="Grupo_2287" data-name="Grupo 2287" transform="translate(-11728.142 -93.072)">
      <path id="Trazado_1315" data-name="Trazado 1315" d="M11780.641,155.963l-1.639-1.715q-.52-.557-1.046-1.113l-.654-.689c-.635-.673-1.271-1.346-1.925-2q-2.867-2.871-5.759-5.713c-1.254,1.192-2.509,2.385-3.7,3.6-1.326,1.352-2.633,2.724-3.939,4.1l-3.269,3.439-.919-.644-5.312-5.308c-.248-.247-.5-.488-.759-.73l-.663-.631v-.862l.318-.353,1.243-1.156c.957-.887,1.915-1.775,2.86-2.675,1.343-1.281,2.781-2.662,4.213-4.1.668-.673,1.319-1.4,1.952-2.107l.257-.287c-.311-.376-.6-.733-.92-1.051-1.564-1.574-3.1-3.114-4.681-4.637-1.124-1.082-2.264-2.145-3.405-3.209l-1.838-1.716v-.936l.506-.427q2.59-2.574,5.165-5.158c.247-.249.487-.5.729-.76l.625-.66h.917l1.007,1.075c.5.535,1,1.069,1.507,1.6l.958,1c1.169,1.219,2.34,2.439,3.533,3.634,1.019,1.021,2.064,2.012,3.109,3l.5.48.05-.046c.779-.715,1.584-1.454,2.335-2.207,1.283-1.284,2.542-2.59,3.8-3.9l.568-.587c.819-.849,1.631-1.7,2.445-2.557l1.425-1.495h.971l.386.513q2.484,2.485,4.975,4.967c.293.294.592.58.895.871l1.188,1.143-1.48,1.38c-.47.436-.927.859-1.375,1.289l-.951.909c-1.245,1.19-2.491,2.379-3.716,3.59-1.433,1.418-2.675,2.7-3.792,3.9,1.241,1.335,2.467,2.6,3.7,3.812s2.467,2.386,3.709,3.569l3.8,3.614Zm-27.148-7.861c.135.13.269.26.4.393l4.647,4.641,1.993-2.092c1.313-1.379,2.628-2.758,3.961-4.118,1.215-1.24,2.49-2.451,3.721-3.622,1.061-1.007,1.776-1,2.778-.023q2.918,2.856,5.8,5.752c.666.667,1.314,1.353,1.962,2.039l.65.685c.354.373.707.75,1.058,1.126l.206.218,5.029-5.046-2.319-2.207c-1.25-1.19-2.5-2.381-3.731-3.591-1.284-1.263-2.557-2.572-3.78-3.89-.976-1.048-.983-1.637-.1-2.588l.086-.093c1.146-1.238,2.412-2.544,3.878-3.992,1.23-1.22,2.485-2.417,3.739-3.614l.95-.908c.436-.416.875-.826,1.33-1.247-.2-.191-.394-.381-.587-.575q-2.24-2.228-4.472-4.466l-.424.444q-1.223,1.285-2.453,2.566l-.567.588c-1.268,1.314-2.536,2.628-3.826,3.92-.782.783-1.6,1.537-2.4,2.267l-.4.372a1.331,1.331,0,0,1-2.034-.023l-.846-.8c-1.061-1.005-2.118-2.009-3.149-3.042-1.2-1.2-2.381-2.434-3.56-3.664l-.956-1c-.515-.534-1.021-1.076-1.527-1.618l-.009-.011c-.13.136-.26.271-.392.4q-2.322,2.329-4.647,4.65l.761.712c1.15,1.07,2.3,2.142,3.431,3.231,1.6,1.538,3.14,3.086,4.712,4.668.39.392.732.811,1.065,1.215l.237.288a1.367,1.367,0,0,1-.023,1.97l-.546.608c-.647.724-1.317,1.474-2.023,2.184-1.446,1.456-2.9,2.85-4.252,4.139-.951.907-1.915,1.8-2.879,2.695Z" fill="url(#linear-gradient)"/>
    </g>
  </g>
</svg>
