<svg id="Capa_1" data-name="Capa 1" xmlns="http://www.w3.org/2000/svg" xmlns:xlink="http://www.w3.org/1999/xlink" viewBox="0 0 82.984 82.995"><defs><style>.cls-1{fill:none;}.cls-2{clip-path:url(#clip-path);}.cls-3{fill:url(#Degradado_sin_nombre);}.cls-4{fill:url(#Degradado_sin_nombre_2);}.cls-5{fill:url(#Degradado_sin_nombre_3);}</style><clipPath id="clip-path"><rect class="cls-1" width="82.984" height="82.995"/></clipPath><linearGradient id="Degradado_sin_nombre" x1="-379.373" y1="197.102" x2="-378.373" y2="197.102" gradientTransform="matrix(82.985, 0, 0, -82.984, 31482.374, 16397.816)" gradientUnits="userSpaceOnUse"><stop offset="0" stop-color="#ff7267"/><stop offset="1" stop-color="#ff007f"/></linearGradient><linearGradient id="Degradado_sin_nombre_2" x1="-372.858" y1="195.139" x2="-371.858" y2="195.139" gradientTransform="matrix(34.465, 0, 0, -34.51, 12857.461, 6758.432)" xlink:href="#Degradado_sin_nombre"/><linearGradient id="Degradado_sin_nombre_3" x1="-373.785" y1="195.407" x2="-372.785" y2="195.407" gradientTransform="matrix(37.593, 0, 0, -37.501, 14074.541, 7372.087)" xlink:href="#Degradado_sin_nombre"/></defs><title>icono X </title><g class="cls-2"><g id="Componente_48_1" data-name="Componente 48 1"><path id="Trazado_1313" data-name="Trazado 1313" class="cls-3" d="M82.984,41.509A41.492,41.492,0,1,1,41.51,0h.02A41.533,41.533,0,0,1,82.984,41.509ZM80.46,41.5A38.968,38.968,0,1,0,41.5,80.476h.067A38.994,38.994,0,0,0,80.458,41.5Z"/><path id="Trazado_1314" data-name="Trazado 1314" class="cls-4" d="M9.468,41.453H6.962A33.827,33.827,0,0,1,15.188,19.2c6.866-8,15.668-11.981,26.238-12.257V9.472A32.2,32.2,0,0,0,9.468,41.453Z"/><g id="Grupo_2287" data-name="Grupo 2287"><path id="Trazado_1315" data-name="Trazado 1315" class="cls-5" d="M52.5,62.891,50.86,61.176q-.517-.556-1.046-1.113l-.654-.689c-.635-.673-1.271-1.346-1.925-2q-2.867-2.871-5.758-5.713c-1.254,1.192-2.509,2.385-3.7,3.6-1.326,1.352-2.632,2.724-3.939,4.1L30.568,62.8l-.919-.644-5.311-5.308c-.248-.247-.5-.488-.759-.73l-.663-.631v-.862l.318-.353,1.244-1.156c.957-.887,1.915-1.775,2.86-2.675,1.343-1.281,2.781-2.662,4.213-4.1.668-.673,1.319-1.4,1.952-2.107l.257-.287c-.311-.376-.6-.733-.92-1.051-1.565-1.574-3.1-3.114-4.681-4.637-1.124-1.082-2.263-2.145-3.4-3.209l-1.838-1.716V32.4l.506-.427q2.589-2.574,5.165-5.158c.247-.249.487-.5.728-.76l.625-.66h.917l1.007,1.075c.5.535,1,1.069,1.507,1.6l.958,1c1.169,1.219,2.34,2.439,3.533,3.634,1.019,1.021,2.065,2.012,3.11,3l.5.48.049-.046c.78-.715,1.584-1.454,2.335-2.207,1.284-1.284,2.542-2.59,3.8-3.9l.569-.587c.819-.849,1.63-1.7,2.445-2.557l1.425-1.5h.97l.386.513q2.484,2.486,4.975,4.967c.293.294.592.58.894.871l1.189,1.143-1.481,1.38c-.469.436-.926.859-1.375,1.289l-.951.909c-1.245,1.19-2.491,2.379-3.716,3.59-1.432,1.418-2.674,2.7-3.792,3.9,1.242,1.335,2.467,2.6,3.7,3.812s2.466,2.386,3.709,3.569l3.8,3.614ZM25.351,55.03c.134.13.268.26.4.393L30.4,60.064l1.994-2.092c1.313-1.379,2.628-2.758,3.961-4.118,1.214-1.24,2.49-2.451,3.72-3.622,1.061-1.007,1.777-1,2.779-.023q2.917,2.856,5.8,5.752c.666.667,1.315,1.353,1.962,2.039l.651.685c.353.373.707.75,1.057,1.126l.206.218,5.03-5.046-2.32-2.207c-1.25-1.19-2.5-2.381-3.731-3.591-1.284-1.263-2.557-2.572-3.78-3.89-.976-1.048-.984-1.637-.1-2.588l.086-.093c1.146-1.238,2.412-2.544,3.878-3.992,1.23-1.22,2.485-2.417,3.739-3.614l.95-.908c.436-.416.875-.826,1.33-1.247-.2-.191-.393-.381-.587-.575q-2.239-2.227-4.471-4.466l-.424.444q-1.223,1.285-2.453,2.566l-.568.588c-1.267,1.314-2.536,2.628-3.826,3.92-.782.783-1.6,1.537-2.4,2.267l-.4.372a1.329,1.329,0,0,1-1.876.137,1.257,1.257,0,0,1-.158-.16l-.845-.8c-1.061-1.005-2.119-2.009-3.15-3.042-1.2-1.2-2.381-2.434-3.559-3.664l-.956-1c-.515-.534-1.022-1.076-1.528-1.618l-.009-.011c-.129.136-.259.271-.391.4q-2.322,2.33-4.648,4.65l.761.712c1.151,1.07,2.3,2.142,3.431,3.231,1.6,1.538,3.139,3.086,4.712,4.668.389.392.732.811,1.065,1.215l.237.288a1.366,1.366,0,0,1,.015,1.933l-.038.037L35,45.553c-.647.724-1.317,1.474-2.023,2.184-1.447,1.456-2.9,2.85-4.252,4.139-.951.907-1.915,1.8-2.879,2.7Z"/></g></g></g></svg>