<svg id="Grupo_2373" data-name="Grupo 2373" xmlns="http://www.w3.org/2000/svg" xmlns:xlink="http://www.w3.org/1999/xlink" width="413.875" height="247.68" viewBox="0 0 413.875 247.68">
  <defs>
    <linearGradient id="linear-gradient" x1="0.478" y1="1.115" x2="0.502" y2="0.456" gradientUnits="objectBoundingBox">
      <stop offset="0" stop-color="#4daaff"/>
      <stop offset="0.217" stop-color="#5584ff"/>
      <stop offset="1" stop-color="#7300ff"/>
    </linearGradient>
    <linearGradient id="linear-gradient-2" x1="0.498" y1="1.191" x2="0.501" y2="0.277" xlink:href="#linear-gradient"/>
    <linearGradient id="linear-gradient-3" x1="1.097" y1="0.461" x2="-0.708" y2="0.579" xlink:href="#linear-gradient"/>
    <clipPath id="clip-path">
      <path id="Rectángulo_6333" data-name="Rectángulo 6333" d="M0,0H413.875a0,0,0,0,1,0,0V223.221a0,0,0,0,1,0,0H90a90,90,0,0,1-90-90V0A0,0,0,0,1,0,0Z" fill="none"/>
    </clipPath>
    <linearGradient id="linear-gradient-4" x1="0.506" y1="0.673" x2="0.475" y2="0.03" gradientUnits="objectBoundingBox">
      <stop offset="0.011" stop-color="#4daaff" stop-opacity="0"/>
      <stop offset="0.481" stop-color="#5f58ff" stop-opacity="0.482"/>
      <stop offset="1" stop-color="#7300ff"/>
    </linearGradient>
    <linearGradient id="linear-gradient-5" x1="0.898" y1="-1.687" x2="0.867" y2="-2.19" xlink:href="#linear-gradient-4"/>
  </defs>
  <path id="Rectángulo_6330" data-name="Rectángulo 6330" d="M0,0H388.512a0,0,0,0,1,0,0V209.541a0,0,0,0,1,0,0H90a90,90,0,0,1-90-90V0A0,0,0,0,1,0,0Z" transform="translate(12.682 26.314)" opacity="0.5" fill="url(#linear-gradient)"/>
  <path id="Rectángulo_6331" data-name="Rectángulo 6331" d="M0,0H366.637a0,0,0,0,1,0,0V197.744a0,0,0,0,1,0,0H90a90,90,0,0,1-90-90V0A0,0,0,0,1,0,0Z" transform="translate(23.619 49.936)" opacity="0.23" fill="url(#linear-gradient-2)"/>
  <path id="Rectángulo_6332" data-name="Rectángulo 6332" d="M0,0H413.875a0,0,0,0,1,0,0V223.221a0,0,0,0,1,0,0H90a90,90,0,0,1-90-90V0A0,0,0,0,1,0,0Z" fill="url(#linear-gradient-3)"/>
  <g id="Grupo_69" data-name="Grupo 69">
    <g id="Grupo_68" data-name="Grupo 68" clip-path="url(#clip-path)">
      <path id="Trazado_51" data-name="Trazado 51" d="M361.334,167.96s-12.688,48.46-51.634,43.948-98.715-32.826-152.94-19.9-40.747,40.18-114.61,46.817c-72.915,6.551-101.054-20.952-123.237-9.245S-91.562,338.326-91.562,338.326s57.777,54.612,83.729,55.5,340.832,7.122,349.146,0S421.72,280.009,421.72,276.36s-33.89-84.88-33.89-84.88" transform="translate(59.881 -106.151)" opacity="0.49" fill="url(#linear-gradient-4)"/>
      <path id="Trazado_52" data-name="Trazado 52" d="M391.144,33.81s-3.17,49.994-42.259,53.025S245.71,73.527,194.965,96.6s-32.3,47.242-103.52,67.9C21.136,184.9-11.75,163.3-31.28,179.038s10.551,108.741,10.551,108.741,67.169,42.533,92.811,38.434,335.884-58.3,342.679-66.882,57.115-127.113,56.416-130.694-49.522-76.816-49.522-76.816" transform="translate(23.998 -21.368)" opacity="0.49" fill="url(#linear-gradient-5)"/>
    </g>
  </g>
</svg>
