<svg xmlns="http://www.w3.org/2000/svg" width="24.08" height="29.413" viewBox="0 0 24.08 29.413">
  <path id="Trazado_233" data-name="Trazado 233" d="M3531.1-43.384a4.638,4.638,0,0,1-.154,2.487,4.782,4.782,0,0,1-1.572,2.273,4.856,4.856,0,0,1-2.576,1.057,5.42,5.42,0,0,1,2.154,2.685,4.931,4.931,0,0,1-.01,3.256,6.187,6.187,0,0,1-1.479,2.387,5.584,5.584,0,0,1-2.358,1.46,5.962,5.962,0,0,1-2.953.049c-.427-.094-1.256-.337-2.406-.685l-1.182,3.569-2.962-.978,1.171-3.544L3514.849-30l-1.171,3.538-2.92-.968,1.171-3.538-4.8-1.593,1.077-3.251,1.936.64a1.426,1.426,0,0,0,1.8-.9l3.419-10.331a1.422,1.422,0,0,0-.9-1.8l-1.936-.641L3513.6-52.1l4.8,1.593,1.245-3.753,2.92.968-1.246,3.752,1.926.635,1.246-3.753,2.958.984L3526.2-47.9a17.909,17.909,0,0,1,2.174.913,5.28,5.28,0,0,1,1.772,1.485A5.22,5.22,0,0,1,3531.1-43.384Zm-4.765,1.579a2.254,2.254,0,0,0-.01-1.633,2.381,2.381,0,0,0-1.26-1.181c-.377-.174-.908-.373-2.765-.988l-1.976-.655-1.5,4.522,2.3.76a20.2,20.2,0,0,0,2.3.685,2.73,2.73,0,0,0,1.826-.173,2.157,2.157,0,0,0,1.083-1.338Zm-2,8.456a2.7,2.7,0,0,0,.065-1.637,2.563,2.563,0,0,0-.937-1.306,9.079,9.079,0,0,0-2.819-1.235l-2.894-.958-1.732,5.226,3.36,1.112a9.66,9.66,0,0,0,2.158.581,2.432,2.432,0,0,0,2.8-1.777Z" transform="translate(-3507.125 54.258)" fill="#8dc351"/>
</svg>
