<svg xmlns="http://www.w3.org/2000/svg" xmlns:xlink="http://www.w3.org/1999/xlink" width="21.451" height="26.194" viewBox="0 0 21.451 26.194">
  <defs>
    <clipPath id="clip-path">
      <rect width="21.451" height="26.194" fill="none"/>
    </clipPath>
    <linearGradient id="linear-gradient" y1="0.5" x2="1" y2="0.5" gradientUnits="objectBoundingBox">
      <stop offset="0" stop-color="#fac579"/>
      <stop offset="1" stop-color="#ea5933"/>
    </linearGradient>
  </defs>
  <g id="Componente_67_1" data-name="Componente 67 – 1" clip-path="url(#clip-path)">
    <path id="Trazado_233" data-name="Trazado 233" d="M280.33,2090.336a4.133,4.133,0,0,1-.137,2.215,4.259,4.259,0,0,1-1.4,2.024,4.323,4.323,0,0,1-2.294.941,4.826,4.826,0,0,1,1.918,2.391,4.39,4.39,0,0,1-.009,2.9,5.511,5.511,0,0,1-1.317,2.126,4.974,4.974,0,0,1-2.1,1.3,5.31,5.31,0,0,1-2.63.044c-.38-.084-1.118-.3-2.143-.61l-1.052,3.178-2.638-.871,1.043-3.156-1.715-.565-1.043,3.151-2.6-.862,1.043-3.151-4.278-1.419.959-2.895,1.724.57a1.27,1.27,0,0,0,1.6-.8l3.045-9.2a1.266,1.266,0,0,0-.8-1.6l-1.724-.571.959-2.9,4.278,1.419,1.109-3.342,2.6.862-1.109,3.341,1.715.566,1.109-3.342,2.634.876-1.109,3.359a15.917,15.917,0,0,1,1.936.813,4.7,4.7,0,0,1,1.578,1.322A4.649,4.649,0,0,1,280.33,2090.336Zm-4.243,1.406a2.007,2.007,0,0,0-.009-1.454,2.121,2.121,0,0,0-1.122-1.052c-.336-.155-.809-.332-2.462-.88l-1.759-.583L269.4,2091.8l2.046.677a18,18,0,0,0,2.051.61,2.43,2.43,0,0,0,1.626-.154A1.92,1.92,0,0,0,276.088,2091.742Zm-1.777,7.53a2.4,2.4,0,0,0,.058-1.458,2.285,2.285,0,0,0-.835-1.163,8.089,8.089,0,0,0-2.51-1.1l-2.577-.853-1.542,4.654,2.992.99a8.6,8.6,0,0,0,1.922.517,2.166,2.166,0,0,0,2.493-1.582Z" transform="translate(-258.971 -2080.649)" fill="url(#linear-gradient)"/>
  </g>
</svg>
