<svg xmlns="http://www.w3.org/2000/svg" xmlns:xlink="http://www.w3.org/1999/xlink" width="188.832" height="107.829" viewBox="0 0 188.832 107.829">
  <defs>
    <clipPath id="clip-path">
      <rect width="188.832" height="107.829" fill="none"/>
    </clipPath>
    <linearGradient id="linear-gradient" x1="-0.161" y1="-0.017" x2="1.037" y2="1.107" gradientUnits="objectBoundingBox">
      <stop offset="0" stop-color="#14a9ff"/>
      <stop offset="0.117" stop-color="#18a2ff"/>
      <stop offset="0.285" stop-color="#248fff"/>
      <stop offset="0.484" stop-color="#386fff"/>
      <stop offset="0.707" stop-color="#5444ff"/>
      <stop offset="0.947" stop-color="#770dff"/>
      <stop offset="1" stop-color="#8000ff"/>
    </linearGradient>
    <linearGradient id="linear-gradient-2" x1="-3.818" y1="-30.784" x2="3.561" y2="22.983" xlink:href="#linear-gradient"/>
  </defs>
  <g id="Componente_51_1" data-name="Componente 51 – 1" clip-path="url(#clip-path)">
    <g id="Grupo_1892" data-name="Grupo 1892" transform="translate(16.359 13.344)" opacity="0.67">
      <path id="Trazado_1029" data-name="Trazado 1029" d="M10938.732-3773.962a.6.6,0,0,1-.124-.08q-1.238-.115-1.392,1.022a4.065,4.065,0,0,0,.094,1.688,13.394,13.394,0,0,0,.67,1.66c.209.488.108,2.976,1.071,2.54A29.654,29.654,0,0,1,10938.732-3773.962Z" transform="translate(-10930.28 3811.516)" fill="none"/>
      <path id="Trazado_1030" data-name="Trazado 1030" d="M10964.244-3760.162c1.572-2.944,2.932-5.513,3.07-8.957a52.182,52.182,0,0,0-.294-6.848c-1.782-.591-3.829-1.393-5.032-2.89a22.163,22.163,0,0,1-2.484-3.437c-.577,2.968-3.154,5.018-6.526,5.559-2.578.414-5.3.163-7.753,1.2-1.956.826-5.327,2.615-5.6,5a.648.648,0,0,1-.137.314c0,.367.007.734.021,1.1.138,3.444,1.5,6.013,3.069,8.957a24.268,24.268,0,0,0,5.441,6.745,10.96,10.96,0,0,0,4.813,2.792c.224.038.409.054.58.094.171-.04.356-.056.581-.094a10.954,10.954,0,0,0,4.812-2.792A24.254,24.254,0,0,0,10964.244-3760.162Zm-6.956,2.474a.478.478,0,0,1-.435.249h-6.389a.542.542,0,0,1-.168-1.048.466.466,0,0,1,.107-.056,6.715,6.715,0,0,1,1.8-.545c.86-.021,1.231.581,2.146.225a2.509,2.509,0,0,1,2.922.459A.453.453,0,0,1,10957.288-3757.688Z" transform="translate(-10930.109 3810.824)" fill="none"/>
      <path id="Trazado_1031" data-name="Trazado 1031" d="M10954.685-3752.3a5.62,5.62,0,0,1-1.885.384,5.632,5.632,0,0,1-1.884-.384,13.384,13.384,0,0,1-2.4-1.245c-.255-.186-.5-.377-.731-.573.014,2.12.064,4.239.079,6.353.021,3.2,2.622,3.027,4.938,3.128,2.315-.1,4.917.071,4.938-3.128.015-2.115.066-4.233.08-6.353-.237.2-.478.387-.731.573A13.468,13.468,0,0,1,10954.685-3752.3Z" transform="translate(-10929.502 3813.191)" fill="none"/>
      <path id="Trazado_1032" data-name="Trazado 1032" d="M10966.043-3767.145c1,.512.893-2.035,1.1-2.528a13.093,13.093,0,0,0,.669-1.66,4.017,4.017,0,0,0,.095-1.688q-.154-1.136-1.391-1.022a.56.56,0,0,1-.2.128,29.476,29.476,0,0,1-.318,6.758A.276.276,0,0,1,10966.043-3767.145Z" transform="translate(-10928.168 3811.516)" fill="none"/>
      <path id="Trazado_1033" data-name="Trazado 1033" d="M10976.364-3736.4a10.591,10.591,0,0,0-2.6-2.621,65.508,65.508,0,0,0-7-3.442c-2.213-1.058-4.483-2.369-6.782-3.194-.036-1.61.161-3.233.162-4.842.419-.391.83-.793,1.254-1.2a22.178,22.178,0,0,0,2.415-2.785c1.619-.648,3.367-2.786,4.366-4.18,1.926-2.689,3.7-5.234,4.616-8.444a29.162,29.162,0,0,0-.607-17.173,25.2,25.2,0,0,0-6.112-9.879c2.852-2.362.7-8.323-1.212-10.473a9.31,9.31,0,0,0-1.844-1.563.519.519,0,0,0-.376-.349c-.419-.189-.848-.369-1.282-.538-.171-.069-.341-.138-.517-.2-4.074-1.491-8.691-1.978-12.749-.182a9.391,9.391,0,0,0-4.666,2.829c-1.883,2.122-4.009,7.951-1.332,10.377a25.148,25.148,0,0,0-6.205,9.976,29.162,29.162,0,0,0-.609,17.173c.918,3.211,2.691,5.755,4.618,8.444,1,1.4,2.759,3.548,4.383,4.188a22.214,22.214,0,0,0,2.407,2.776c.425.411.836.813,1.255,1.2,0,1.614.2,3.243.161,4.858-2.284.825-4.541,2.125-6.743,3.177a65.767,65.767,0,0,0-7,3.442,10.666,10.666,0,0,0-2.625,2.659l-.014-.01-.982,1.937a42.364,42.364,0,0,0,23.278,6.956,42.342,42.342,0,0,0,22.935-6.736l-.583-2.2Zm-7.467-34.617a.56.56,0,0,0,.2-.128q1.238-.115,1.391,1.022a4.017,4.017,0,0,1-.095,1.688,13.093,13.093,0,0,1-.669,1.66c-.211.493-.1,3.04-1.1,2.528a.276.276,0,0,0-.045-.012A29.476,29.476,0,0,0,10968.9-3771.012Zm-30.447,4.242a13.394,13.394,0,0,1-.67-1.66,4.065,4.065,0,0,1-.094-1.688q.152-1.136,1.392-1.022a.6.6,0,0,0,.124.08,29.654,29.654,0,0,0,.319,6.829C10938.559-3763.794,10938.659-3766.282,10938.45-3766.77Zm14.406-33.909c4.418-.719,10.436,1.054,12.23,5.629h0a19.558,19.558,0,0,0-2.457-1.848c-.4-.25-.816-.473-1.238-.683.214-.271-4.943-1.879-7.348-1.8-2.4-.084-7.562,1.524-7.349,1.8-.421.21-.835.434-1.237.683a19.874,19.874,0,0,0-2.52,1.9C10944.93-3798.89,10948.877-3800.033,10952.856-3800.679Zm6.13,57.5c-.021,3.2-2.622,3.027-4.937,3.128-2.315-.1-4.916.071-4.937-3.128-.015-2.115-.065-4.233-.079-6.353.235.2.477.387.731.573a13.384,13.384,0,0,0,2.4,1.245,5.632,5.632,0,0,0,1.884.384,5.62,5.62,0,0,0,1.885-.384,13.468,13.468,0,0,0,2.4-1.245c.254-.186.494-.377.731-.573C10959.053-3747.416,10959-3745.3,10958.986-3743.183Zm-4.356-5.231c-.225.038-.41.054-.581.094-.171-.04-.356-.056-.58-.094a10.963,10.963,0,0,1-4.813-2.792,24.265,24.265,0,0,1-5.441-6.745c-1.572-2.944-2.932-5.513-3.069-8.957-.015-.369-.02-.735-.021-1.1a.649.649,0,0,0,.137-.314c.277-2.388,3.648-4.177,5.6-5,2.452-1.034,5.175-.783,7.753-1.2,3.372-.541,5.949-2.591,6.526-5.559a22.163,22.163,0,0,0,2.484,3.437c1.2,1.5,3.25,2.3,5.032,2.89a52.18,52.18,0,0,1,.294,6.848c-.139,3.444-1.5,6.013-3.07,8.957a24.251,24.251,0,0,1-5.442,6.745A10.956,10.956,0,0,1,10954.63-3748.414Z" transform="translate(-10930.749 3808.614)" fill="url(#linear-gradient)"/>
      <path id="Trazado_1034" data-name="Trazado 1034" d="M10953.638-3760.659c-.914.356-1.285-.246-2.146-.225a6.715,6.715,0,0,0-1.8.545.477.477,0,0,0-.107.056.542.542,0,0,0,.168,1.048h6.389a.477.477,0,0,0,.435-.249.453.453,0,0,0-.015-.717A2.509,2.509,0,0,0,10953.638-3760.659Z" transform="translate(-10929.396 3812.618)" fill="url(#linear-gradient-2)"/>
    </g>
    <path id="Trazado_1035" data-name="Trazado 1035" d="M11.753,0H176.079a11.753,11.753,0,0,1,11.753,11.753V95.076a11.753,11.753,0,0,1-11.753,11.753H11.753A11.753,11.753,0,0,1,0,95.076V11.753A11.753,11.753,0,0,1,11.753,0Z" transform="translate(0.5 0.5)" fill="none" stroke="#3d95ff" stroke-width="1"/>
    <line id="Línea_105" data-name="Línea 105" x2="83.61" transform="translate(91.535 23.998)" fill="none" stroke="#3d95ff" stroke-miterlimit="10" stroke-width="1"/>
    <line id="Línea_106" data-name="Línea 106" x2="83.61" transform="translate(91.535 43.219)" fill="none" stroke="#3d95ff" stroke-miterlimit="10" stroke-width="1"/>
    <line id="Línea_107" data-name="Línea 107" x2="83.61" transform="translate(91.535 62.442)" fill="none" stroke="#3d95ff" stroke-miterlimit="10" stroke-width="1"/>
    <line id="Línea_108" data-name="Línea 108" x2="83.61" transform="translate(91.535 81.664)" fill="none" stroke="#3d95ff" stroke-miterlimit="10" stroke-width="1"/>
  </g>
</svg>
