<svg id="Capa_1" data-name="Capa 1" xmlns="http://www.w3.org/2000/svg" xmlns:xlink="http://www.w3.org/1999/xlink" viewBox="0 0 127 187"><defs><style>.cls-1{fill:#3d95ff;}.cls-2{fill:url(#Degradado_sin_nombre_4);}.cls-3{fill:url(#Degradado_sin_nombre_4-2);}.cls-4{fill:url(#Degradado_sin_nombre_4-3);}.cls-5{fill:url(#Degradado_sin_nombre_4-4);}.cls-6{fill:url(#Degradado_sin_nombre_4-5);}.cls-7{fill:url(#Degradado_sin_nombre_4-6);}.cls-8{fill:url(#Degradado_sin_nombre_4-7);}.cls-9{fill:url(#Degradado_sin_nombre_4-8);}</style><linearGradient id="Degradado_sin_nombre_4" x1="153.551" y1="87.076" x2="164.846" y2="85.159" gradientTransform="matrix(7.407, 0, 0, -10.755, -1118.544, 957.598)" gradientUnits="userSpaceOnUse"><stop offset="0" stop-color="#14a9ff"/><stop offset="0.117" stop-color="#18a2ff"/><stop offset="0.285" stop-color="#248fff"/><stop offset="0.484" stop-color="#386fff"/><stop offset="0.707" stop-color="#5444ff"/><stop offset="0.947" stop-color="#770dff"/><stop offset="1" stop-color="#8000ff"/></linearGradient><linearGradient id="Degradado_sin_nombre_4-2" x1="143.413" y1="87.337" x2="151.486" y2="85.428" gradientTransform="matrix(10.35, 0, 0, -10.788, -1464.879, 961.15)" xlink:href="#Degradado_sin_nombre_4"/><linearGradient id="Degradado_sin_nombre_4-3" x1="153.019" y1="88.062" x2="164.99" y2="86.198" gradientTransform="matrix(6.978, 0, 0, -11.058, -1047.675, 990.17)" xlink:href="#Degradado_sin_nombre_4"/><linearGradient id="Degradado_sin_nombre_4-4" x1="151.903" y1="88.236" x2="163.874" y2="86.372" gradientTransform="matrix(6.978, 0, 0, -11.058, -1039.414, 990.17)" xlink:href="#Degradado_sin_nombre_4"/><linearGradient id="Degradado_sin_nombre_4-5" x1="148.933" y1="87.861" x2="160.228" y2="85.944" gradientTransform="matrix(7.405, 0, 0, -10.755, -1082.017, 957.598)" xlink:href="#Degradado_sin_nombre_4"/><linearGradient id="Degradado_sin_nombre_4-6" x1="140.264" y1="88.697" x2="148.46" y2="86.836" gradientTransform="matrix(10.224, 0, 0, -11.085, -1412.562, 993.072)" xlink:href="#Degradado_sin_nombre_4"/><linearGradient id="Degradado_sin_nombre_4-7" x1="142.763" y1="88.335" x2="152.53" y2="86.419" gradientTransform="matrix(8.553, 0, 0, -10.762, -1198.872, 958.33)" xlink:href="#Degradado_sin_nombre_4"/><linearGradient id="Degradado_sin_nombre_4-8" x1="143.041" y1="88.571" x2="153.373" y2="86.655" gradientTransform="matrix(8.086, 0, 0, -10.747, -1133.791, 956.735)" xlink:href="#Degradado_sin_nombre_4"/></defs><title>passport </title><g id="Rectángulo_6928" data-name="Rectángulo 6928"><path class="cls-1" d="M110.074,186.263H16.93A16.4,16.4,0,0,1,.55,169.883V17.38A16.4,16.4,0,0,1,16.93,1h93.144a16.4,16.4,0,0,1,16.38,16.38v152.5A16.4,16.4,0,0,1,110.074,186.263ZM16.93,2A15.4,15.4,0,0,0,1.55,17.38v152.5a15.4,15.4,0,0,0,15.38,15.38h93.144a15.4,15.4,0,0,0,15.38-15.38V17.38A15.4,15.4,0,0,0,110.074,2Z"/></g><g id="Grupo_1840" data-name="Grupo 1840"><path id="Trazado_1000" data-name="Trazado 1000" class="cls-2" d="M33.606,21.432a3.288,3.288,0,0,1-1.08,2.653A4.614,4.614,0,0,1,29.453,25H28.48v3.821H26.206V18.081h3.42a4.544,4.544,0,0,1,2.963.842A3.071,3.071,0,0,1,33.606,21.432Zm-5.126,1.7h.746a2.476,2.476,0,0,0,1.568-.416,1.451,1.451,0,0,0,.521-1.208,1.489,1.489,0,0,0-.436-1.183,2.034,2.034,0,0,0-1.366-.382H28.481Z"/><path id="Trazado_1001" data-name="Trazado 1001" class="cls-3" d="M42.18,28.825,41.4,26.269H37.5l-.777,2.556H34.281L38.06,18.037h2.776l3.8,10.788Zm-1.319-4.468q-1.075-3.476-1.212-3.931c-.089-.3-.155-.544-.194-.72q-.24.94-1.384,4.652Z"/><path id="Trazado_1002" data-name="Trazado 1002" class="cls-4" d="M52.3,25.841a2.782,2.782,0,0,1-1.043,2.292,4.525,4.525,0,0,1-2.9.838,6.8,6.8,0,0,1-3.032-.647V26.208a12.483,12.483,0,0,0,1.835.683,5.4,5.4,0,0,0,1.373.2,1.945,1.945,0,0,0,1.147-.287.983.983,0,0,0,.4-.852.933.933,0,0,0-.176-.562,1.943,1.943,0,0,0-.515-.475,13,13,0,0,0-1.389-.727,6.627,6.627,0,0,1-1.472-.889,3.372,3.372,0,0,1-.784-.992,2.847,2.847,0,0,1-.293-1.323,2.78,2.78,0,0,1,.964-2.24,3.988,3.988,0,0,1,2.662-.816,6.255,6.255,0,0,1,1.593.2,10.9,10.9,0,0,1,1.586.559l-.732,1.771a10.744,10.744,0,0,0-1.417-.492,4.586,4.586,0,0,0-1.1-.139,1.45,1.45,0,0,0-.988.3,1,1,0,0,0-.345.787.964.964,0,0,0,.14.526,1.511,1.511,0,0,0,.442.434,13.954,13.954,0,0,0,1.439.753,5.716,5.716,0,0,1,2.058,1.444A2.825,2.825,0,0,1,52.3,25.841Z"/><path id="Trazado_1003" data-name="Trazado 1003" class="cls-5" d="M60.557,25.841a2.782,2.782,0,0,1-1.043,2.292,4.527,4.527,0,0,1-2.9.838,6.8,6.8,0,0,1-3.032-.647V26.208a12.483,12.483,0,0,0,1.835.683,5.4,5.4,0,0,0,1.373.2,1.941,1.941,0,0,0,1.146-.287.979.979,0,0,0,.4-.852.94.94,0,0,0-.176-.562,1.947,1.947,0,0,0-.516-.475,13.085,13.085,0,0,0-1.388-.727,6.582,6.582,0,0,1-1.472-.889A3.356,3.356,0,0,1,54,22.307a2.835,2.835,0,0,1-.293-1.323,2.777,2.777,0,0,1,.964-2.24,3.988,3.988,0,0,1,2.662-.816,6.255,6.255,0,0,1,1.593.2,10.9,10.9,0,0,1,1.586.559l-.733,1.771a10.694,10.694,0,0,0-1.417-.492,4.572,4.572,0,0,0-1.1-.139,1.454,1.454,0,0,0-.989.3,1,1,0,0,0-.344.787.982.982,0,0,0,.138.526,1.543,1.543,0,0,0,.444.434,13.852,13.852,0,0,0,1.439.753,5.733,5.733,0,0,1,2.058,1.444A2.825,2.825,0,0,1,60.557,25.841Z"/><path id="Trazado_1004" data-name="Trazado 1004" class="cls-6" d="M69.9,21.432a3.288,3.288,0,0,1-1.08,2.653A4.612,4.612,0,0,1,65.742,25h-.973v3.821H62.5V18.081h3.42a4.544,4.544,0,0,1,2.963.842A3.071,3.071,0,0,1,69.9,21.432Zm-5.126,1.7h.747a2.475,2.475,0,0,0,1.567-.416,1.451,1.451,0,0,0,.521-1.208,1.486,1.486,0,0,0-.436-1.183,2.034,2.034,0,0,0-1.366-.382H64.77Z"/><path id="Trazado_1005" data-name="Trazado 1005" class="cls-7" d="M81.635,23.438a5.844,5.844,0,0,1-1.319,4.1,5.7,5.7,0,0,1-7.558,0,5.865,5.865,0,0,1-1.319-4.116,5.789,5.789,0,0,1,1.323-4.1,4.937,4.937,0,0,1,3.791-1.415,4.87,4.87,0,0,1,3.775,1.426A5.863,5.863,0,0,1,81.635,23.438Zm-7.815,0a4.49,4.49,0,0,0,.682,2.711,2.375,2.375,0,0,0,2.035.912q2.716,0,2.718-3.623t-2.7-3.63a2.4,2.4,0,0,0-2.044.914A4.481,4.481,0,0,0,73.82,23.438Z"/><path id="Trazado_1006" data-name="Trazado 1006" class="cls-8" d="M86.126,24.7v4.123H83.854V18.079h3.121a5.328,5.328,0,0,1,3.228.8A2.85,2.85,0,0,1,91.251,21.3a2.853,2.853,0,0,1-.522,1.687,3.44,3.44,0,0,1-1.471,1.158q2.416,3.624,3.149,4.681H89.888L87.331,24.7Zm0-1.851h.732a2.8,2.8,0,0,0,1.589-.36,1.287,1.287,0,0,0,.514-1.132,1.174,1.174,0,0,0-.525-1.088,3.159,3.159,0,0,0-1.622-.323h-.688Z"/><path id="Trazado_1007" data-name="Trazado 1007" class="cls-9" d="M97.889,28.825H95.617V19.978H92.71v-1.9H100.8v1.9H97.888Z"/></g></svg>