<svg id="Capa_1" data-name="Capa 1" xmlns="http://www.w3.org/2000/svg" xmlns:xlink="http://www.w3.org/1999/xlink" viewBox="0 0 156 206"><defs><style>.cls-1{fill:url(#Degradado_sin_nombre_4);}.cls-2{fill:url(#Degradado_sin_nombre_4-2);}.cls-3{fill:url(#Degradado_sin_nombre_4-3);}</style><linearGradient id="Degradado_sin_nombre_4" x1="121.782" y1="107.169" x2="122.239" y2="106.49" gradientTransform="matrix(196.19, 0, 0, -258.467, -23883.171, 27693.424)" gradientUnits="userSpaceOnUse"><stop offset="0" stop-color="#14a9ff"/><stop offset="0.117" stop-color="#18a2ff"/><stop offset="0.285" stop-color="#248fff"/><stop offset="0.484" stop-color="#386fff"/><stop offset="0.707" stop-color="#5444ff"/><stop offset="0.947" stop-color="#770dff"/><stop offset="1" stop-color="#8000ff"/></linearGradient><linearGradient id="Degradado_sin_nombre_4-2" x1="127.517" y1="109.977" x2="132.413" y2="90.436" gradientTransform="matrix(18.316, 0, 0, -8.984, -2315.828, 976.443)" xlink:href="#Degradado_sin_nombre_4"/><linearGradient id="Degradado_sin_nombre_4-3" x1="173.843" y1="105.949" x2="206.133" y2="96.264" gradientTransform="matrix(2.778, 0, 0, -18.121, -463.585, 1908.574)" xlink:href="#Degradado_sin_nombre_4"/></defs><title>mano icon </title><g id="Grupo_1858" data-name="Grupo 1858"><path id="Trazado_1015" data-name="Trazado 1015" class="cls-1" d="M95.151,42.727a13.943,13.943,0,0,1,7.505-2.411c1.7-.128,3.007.884,4.128,2.039a2.063,2.063,0,0,1,.333,1.314,42.737,42.737,0,0,1-.091,4.625,23.279,23.279,0,0,0,2.65,13.164c2.664,5.188,3.736,10.817,5.106,16.377,1.146,4.654,2.3,9.306,3.369,13.979a30.768,30.768,0,0,0,4.453,9.614c2.834,4.454,5.453,9.07,6.7,14.232a50.984,50.984,0,0,1,.839,15.09,5.814,5.814,0,0,0,.273,2.12c2.791,8.534,7.551,15.977,12.833,23.135,5.569,7.548,5.91,8.185,11.52,15.7,1.253,1.678-.374,1.481-1.352.2-13.032-17.811-19.035-25.035-19.124-25.137a44.355,44.355,0,0,0-4.088,6.379c-2.751,4.689-5.121,7.605-9.093,10.141-3.093,1.978-6.055,4.157-9.091,6.223-1.38.938-2.765,1.877-4.208,2.711a11.58,11.58,0,0,0-4.188,4.073c-1.069,1.755-2.111,3.529-3.244,5.244-.622.95-1.4,1.787-2.17,2.746.585.863,4.584,3.69,8.293,10.414,1.282,1.326,3.9,9.306,4.369,10.493l-.365.295c-.435-.375-1.017-.668-1.279-1.14a23.833,23.833,0,0,1-1.734-3.713c-2.057-5.939-5.736-10.78-10.142-15.111a7.907,7.907,0,0,0-2.611-1.145,7.662,7.662,0,0,1-1.751-.681c-3.317-2.494-6.574-5.069-9.889-7.567-2.118-1.6-4.341-3.055-6.447-4.668-1.21-.928-2.28-2.039-3.411-3.069-1.328-1.208-2.627-2.453-4.007-3.6-.3-.244-.89-.172-1.345-.172q-20.314-.012-40.629-.007c-7.663,0-12.714-5.057-12.718-12.73V136.328a8.885,8.885,0,0,1-6.408.369c-3.882-1.121-5.9-4.2-5.253-7.922A5.406,5.406,0,0,1,5.2,125.229c.87-.64,1.515-1.575,2.338-2.288A8.715,8.715,0,0,1,9.8,121.377c1.491-.615,3.067-1.029,4.673-1.545v-2.655c-2.628.884-5.173.442-7.717-.176a2.045,2.045,0,0,1-1.824-2.012c-.052-2.832-1.1-5.4-1.853-8.07a7.88,7.88,0,0,1,2.932-9.034c2.107-1.607,4.126-3.329,6.307-5.1-1.2.4-2.3.736-3.373,1.143-3.016,1.142-5.16-.58-7.131-2.351A5.414,5.414,0,0,1,.387,85.541a82.942,82.942,0,0,1,3.446-8.978c2.175-4.589,6.087-7.382,10.657-9.45V50.638c-4.106-1.874-7.181-5.064-10.425-8A6.643,6.643,0,0,1,2.4,39.531a9.844,9.844,0,0,1,1.249-8,5.877,5.877,0,0,1,5.961-2.327c1.608.39,3.205.825,4.951,1.278,0-3.506-.011-6.883,0-10.263.011-2.827-.159-5.673.117-8.476A11.836,11.836,0,0,1,26.486,1.033q28.35-.066,56.7,0c6.819.018,11.953,5.459,11.96,12.488q.014,13.693,0,27.387ZM89.441,151.9V10.8H19.582V151.9Zm23.26-76.2c-2.142,1.576-6.99-.117-4.7-.05,2.83.067,4.644-1.408,4.616-1.786-.34-4.673-5.056-15.382-5.429-16.919-1.131.327-2.1,1.072-3.225.362a16.951,16.951,0,0,1-2.312-.912c-1.366-.977-2.763-1.871-2.6-6.086,0,0,.534-4.035,1.8-5.808a8.078,8.078,0,0,1,2.278-1.572,11.42,11.42,0,0,1,2.177-.607l.051-.327c-1.115-.656-5.828-1.021-9.39,1.546A33.6,33.6,0,0,0,92.79,62.364c.1,4.634.223,8.493,1.227,11.062.692,3.971,2.643,12.36,2.532,13.651.752,5.65-.205,15.182-.777,16.225.136.079-.382,12.28-1.014,14.534-.87,3.118,1.48,25.87.59,31.687.712,7.753-2.839,10.453-4.352,12.25-1.607,2.645-10.982,3.09-13.626,3.007-3.061-.37-6.738-.675-6.3.546a192.866,192.866,0,0,0,15.554,11.807c4.313,3.575,7.025,6.755,10.257,6.243.805-.126,1.927-.29,2.289-.84,1.967-5.357,4.973-10.333,14.991-15.724-.029-.055,6.778-4.683,9.119-6.851,6.114-5.66,11.658-13.8,6-22.5-1.415-5.048-.1-13.74-.786-15.807-1.029-12.039-9.507-22.943-10.266-23.943-.343-3.406-1.885-11.016-5.524-22.017ZM18.167,113.372l-.242-.018a8.734,8.734,0,0,1-1.144,1.692,3.6,3.6,0,0,0-1.024,3c.047,4.958.023,9.915.023,14.874v19.541a10.737,10.737,0,0,0,10.485,10.984l.24,0q28.35.1,56.7,0a10.758,10.758,0,0,0,10.734-10.784c0-.071,0-.142,0-.213.008-3.9.14-7.807-.033-11.7-.215-4.826.2-10.99-.454-15.77-.625-4.52.546-18.672.513-22.03-.079-7.543-.01-15.086-.041-22.627a13.332,13.332,0,0,0-.359-3.171c-2.4-9.578-2.959-19.189-.671-28.877a22.8,22.8,0,0,0,1-4.865c.093-10.028.05-20.058.044-30.086a11.805,11.805,0,0,0-.1-1.793A10.818,10.818,0,0,0,82.911,2.238Q61.952,2.2,41,2.223c-4.758,0-9.515-.02-14.272.015A10.767,10.767,0,0,0,15.776,12.823c0,.145,0,.29,0,.435v8.61q0,26.357.015,52.712a19.575,19.575,0,0,0,.427,3.546c.535,2.865,1.4,5.775.441,8.628-1.01,3.018-.87,6.058-.881,9.124a10.892,10.892,0,0,1-.018,1.8c-.426,2.428.661,4.251,2.411,6.075V9.4H90.8V153.244H18.168ZM8.568,75.18a5.12,5.12,0,0,1-2.907,5,9.08,9.08,0,0,0-2.078,1.708,28.562,28.562,0,0,0-1.843,2.44c-2.67,4.359.158,6.38,2.142,7.825,2.269,1.251,3.279,1.587,8.07-.229a5.715,5.715,0,0,0,3.78-4.452c.87-3.4-1.09-16.839-1-16.924-.373-.4-.676-.98-1.135-1.154a1.967,1.967,0,0,0-1.605.129c-.847.6-3.921,1.536-3.418,5.661Zm2.885,22.332c-2.118-1.582-8.418,1.716-7.769,7.848.311-.265.5-.415.679-.578a5.405,5.405,0,0,1,6.188-.958c.684.339,1.7.8,1.8,1.519a5.765,5.765,0,0,1-1.476,1.483c-1.228.93-2.691,1.7-3.041,3.331-.388,1.793-.547,3.635-.77,5.459-.025.2.186.431.428.949,7.3.856,9.141-1.753,9.573-3.486a8.384,8.384,0,0,0,.881-5.28c-.252-3.214-4.615-9.66-6.5-10.287ZM14.526,49.6c.02-1.865.017-4.114-.025-6.761.105-.048-.222-5.228-.112-5.279-.4-1.282.337-5.017-.853-5.66a14.43,14.43,0,0,0-4.719-1.694c-4.311-1.181-5.524,4.12-5.524,4.12-1.144,4.008-.055,8.311,6.235,11.783Zm-2.058,86.725c1.6-.471,2.129-2.995,2.116-4.538-.026-3.264,0-7.457-.158-8.76-.271-2.057-.612-2.294-2.482-1.647-.806.279-3.112,1.266-7.032,4.984-.071,1.636.025,2.5.022,3.963,0,.928-.095,3.946.866,4.384A8.97,8.97,0,0,0,12.468,136.325Zm93.694-93.251a10.88,10.88,0,0,0-3.482,1.087A3.086,3.086,0,0,0,101.2,45.8a34.712,34.712,0,0,0-1.019,5.919,3.905,3.905,0,0,0,2.725,3.985c.658-.89,1.108-2.015,1.936-2.509,1.437-.858,1.359-2.057,1.416-3.464a21.164,21.164,0,0,0-.1-6.655ZM11.245,105.606l-.3-.317c-.938-1.039-1.748-1.039-3.085-.853-2.2.13-3.341,1.933-2.8,4.323.382,1.7.886,3.371,1.336,5.054-.026-3.659,1.213-6.595,4.849-8.21Zm83.984-20.1v14.833a31.815,31.815,0,0,0,0-14.835ZM7.829,75.163c-3.39.275-4.41,3.568-5.063,6.329,1.345-1.471,2.989-2.425,4.013-3.547a10.861,10.861,0,0,0,1.05-2.785Zm95.844-18.806a11.045,11.045,0,0,0,1.97.5c.237.011.7-.368.707-.577.02-.957-.089-1.916-.15-2.874l-.451-.153ZM4.613,133.644,4.106,127c-1.185,1.727-.921,5.6.507,6.638Zm9.135-35.819c.125-.08.753.068.877-.01.536-.87.271-3.854.034-4.114-1.179-1.274-2.8.169-4.92,2.1,1.586.676,2.766,1.494,4.009,2.022Z"/><path id="Trazado_1016" data-name="Trazado 1016" class="cls-2" d="M127.167,180.907l-14.491,6.909a10.952,10.952,0,0,1,1.194-1.146c3.231-2.335,6.981-3.57,10.647-4.984.856-.33,1.716-.652,2.575-.978Z"/><path id="Trazado_1017" data-name="Trazado 1017" class="cls-3" d="M98.83,137.463a26.127,26.127,0,0,0,.76,14.336C97.246,149.032,96.453,140.862,98.83,137.463Z"/></g></svg>