<svg id="Capa_1" data-name="Capa 1" xmlns="http://www.w3.org/2000/svg" viewBox="0 0 117 68"><defs><style>.cls-1{fill:#3d95ff;}</style></defs><title>tarjeta de residencia </title><g id="Rectángulo_6956" data-name="Rectángulo 6956"><path class="cls-1" d="M109.23,66.952H8.288a7.729,7.729,0,0,1-7.72-7.72V8.049A7.729,7.729,0,0,1,8.288.329H109.23a7.729,7.729,0,0,1,7.72,7.72V59.232A7.729,7.729,0,0,1,109.23,66.952ZM8.288,1.329a6.728,6.728,0,0,0-6.72,6.72V59.232a6.728,6.728,0,0,0,6.72,6.72H109.23a6.728,6.728,0,0,0,6.72-6.72V8.049a6.728,6.728,0,0,0-6.72-6.72Z"/></g><g id="Línea_109" data-name="Línea 109"><rect class="cls-1" x="56.989" y="14.763" width="51.36" height="1"/></g><g id="Línea_110" data-name="Línea 110"><rect class="cls-1" x="56.989" y="26.57" width="51.36" height="1"/></g><g id="Línea_111" data-name="Línea 111"><rect class="cls-1" x="56.989" y="38.379" width="51.36" height="1"/></g><g id="Línea_112" data-name="Línea 112"><rect class="cls-1" x="56.989" y="50.187" width="51.36" height="1"/></g><g id="Elipse_130" data-name="Elipse 130"><path class="cls-1" d="M24.208,39.379A14.784,14.784,0,1,1,38.849,24.6,14.73,14.73,0,0,1,24.208,39.379Zm0-28.566A13.784,13.784,0,1,0,37.849,24.6,13.729,13.729,0,0,0,24.208,10.813Z"/></g></svg>