<svg xmlns="http://www.w3.org/2000/svg" width="27.05" height="21.684" viewBox="0 0 27.05 21.684">
  <g id="Grupo_2376" data-name="Grupo 2376" transform="translate(-2805.132 -2090.575)">
    <path id="Trazado_1356" data-name="Trazado 1356" d="M-172.377-2488.486h-1.75l1.237-1.237a.552.552,0,0,0,0-.781.552.552,0,0,0-.781,0l-1.237,1.237v-1.75a.553.553,0,0,0-.552-.552.553.553,0,0,0-.552.552v1.75l-1.238-1.237a.552.552,0,0,0-.781,0,.552.552,0,0,0,0,.781l1.238,1.237h-1.75a.553.553,0,0,0-.552.552.553.553,0,0,0,.552.553h1.75l-1.238,1.238a.552.552,0,0,0,0,.781.551.551,0,0,0,.391.162.55.55,0,0,0,.39-.162l1.238-1.237v1.75a.553.553,0,0,0,.552.552.553.553,0,0,0,.552-.552v-1.75l1.237,1.237a.551.551,0,0,0,.391.162.55.55,0,0,0,.39-.162.552.552,0,0,0,0-.781l-1.237-1.238h1.75a.553.553,0,0,0,.552-.553A.553.553,0,0,0-172.377-2488.486Z" transform="translate(3003.325 4582.646)" fill="none" stroke="#27e3c9" stroke-miterlimit="10" stroke-width="1"/>
    <path id="Trazado_1357" data-name="Trazado 1357" d="M-204.273-2476.808h-23.84v-.5a2.141,2.141,0,0,1,2.139-2.139h12.864a.737.737,0,0,0,.737-.737.737.737,0,0,0-.737-.737h-12.864a3.616,3.616,0,0,0-3.612,3.612v8.537a3.616,3.616,0,0,0,3.612,3.612h18.826a3.616,3.616,0,0,0,3.612-3.612v-7.3A.737.737,0,0,0-204.273-2476.808Zm-2.875,10.176h-18.826a2.141,2.141,0,0,1-2.139-2.138v-6.564h23.1v6.564A2.141,2.141,0,0,1-207.149-2466.632Z" transform="translate(3035.219 4576.917)" fill="none" stroke="#27e3c9" stroke-miterlimit="10" stroke-width="1"/>
    <path id="Trazado_1358" data-name="Trazado 1358" d="M-190.452-2459.43H-200.73a.736.736,0,0,0-.737.737.737.737,0,0,0,.737.737h10.279a.737.737,0,0,0,.737-.737A.737.737,0,0,0-190.452-2459.43Z" transform="translate(3017.456 4563.343)" fill="none" stroke="#27e3c9" stroke-miterlimit="10" stroke-width="1"/>
    <path id="Trazado_1359" data-name="Trazado 1359" d="M-215.6-2451.9h-4.112a.737.737,0,0,0-.737.737.737.737,0,0,0,.737.737h4.112a.737.737,0,0,0,.737-.737A.737.737,0,0,0-215.6-2451.9Z" transform="translate(3029.443 4558.584)" fill="none" stroke="#27e3c9" stroke-miterlimit="10" stroke-width="1"/>
  </g>
</svg>
