<svg xmlns="http://www.w3.org/2000/svg" width="26.05" height="15.76" viewBox="0 0 26.05 15.76">
  <g id="Grupo_2380" data-name="Grupo 2380" transform="translate(27 -1)">
    <path id="Trazado_533" data-name="Trazado 533" d="M-823.47-2481.375H-842.3a3.616,3.616,0,0,0-3.612,3.612v8.537a3.616,3.616,0,0,0,3.612,3.612h18.827a3.616,3.616,0,0,0,3.612-3.612v-8.537A3.616,3.616,0,0,0-823.47-2481.375ZM-842.3-2479.9h18.827a2.141,2.141,0,0,1,2.138,2.138v.5h-23.1v-.5A2.141,2.141,0,0,1-842.3-2479.9Zm18.827,12.814H-842.3a2.141,2.141,0,0,1-2.138-2.139v-6.564h23.1v6.564A2.141,2.141,0,0,1-823.47-2467.088Z" transform="translate(818.908 2482.375)" fill="#272759"/>
    <path id="Trazado_534" data-name="Trazado 534" d="M-806.774-2459.887h-10.279a.737.737,0,0,0-.737.737.736.736,0,0,0,.737.737h10.279a.736.736,0,0,0,.737-.737A.737.737,0,0,0-806.774-2459.887Z" transform="translate(801.146 2468.801)" fill="#272759"/>
    <path id="Trazado_535" data-name="Trazado 535" d="M-831.918-2452.352h-4.112a.737.737,0,0,0-.737.737.737.737,0,0,0,.737.737h4.112a.737.737,0,0,0,.737-.737A.737.737,0,0,0-831.918-2452.352Z" transform="translate(813.133 2464.042)" fill="#272759"/>
  </g>
</svg>
