<svg id="Capa_1" data-name="Capa 1" xmlns="http://www.w3.org/2000/svg" viewBox="0 0 26 16"><defs><style>.cls-1{fill:none;}.cls-2{fill:#5972ff;}</style></defs><title>new precio icon </title><rect class="cls-1" x="10.954" width="17.556" height="15.947"/><g id="Símbolo_31_2" data-name="Símbolo 31 2"><g id="Grupo_343" data-name="Grupo 343"><g id="Trazado_266" data-name="Trazado 266"><path class="cls-2" d="M11.746,12.621a1.187,1.187,0,0,1-1.1-.764L6.7,1.178a1.024,1.024,0,0,1-.053-.3A.858.858,0,0,1,6.912.259.834.834,0,0,1,7.523.02H16.75a1.3,1.3,0,0,1,1.215.847l3.358,9.01A2.018,2.018,0,0,1,19.431,12.6ZM8.355,1.471l3.582,9.7,7.492-.019a.568.568,0,0,0,.534-.767L16.642,1.471Zm-.846,0a.162.162,0,0,1,.022,0Zm9.237,0h0Z"/></g><g id="Trazado_267" data-name="Trazado 267"><path class="cls-2" d="M9.105,15.923A1.18,1.18,0,0,1,8,15.161L4.059,4.48A.859.859,0,0,1,4.2,3.645a.725.725,0,0,1,1.288.509L9.3,14.471l7.491-.02a.568.568,0,0,0,.535-.767.76.76,0,0,1,.411-.968.694.694,0,0,1,.92.385,2.146,2.146,0,0,1,.155.782A2.021,2.021,0,0,1,16.789,15.9Z"/></g></g><g id="Línea_24" data-name="Línea 24"><path class="cls-2" d="M16.005,3.691H10.541a.726.726,0,1,1,0-1.451h5.464a.726.726,0,1,1,0,1.451Z"/></g><g id="Línea_25" data-name="Línea 25"><path class="cls-2" d="M16.954,5.784H11.489a.725.725,0,1,1,0-1.45h5.465a.725.725,0,0,1,0,1.45Z"/></g><g id="Línea_26" data-name="Línea 26"><path class="cls-2" d="M17.714,7.877H12.249a.725.725,0,1,1,0-1.45h5.465a.725.725,0,1,1,0,1.45Z"/></g></g></svg>