<svg id="Grupo_2156" data-name="Grupo 2156" xmlns="http://www.w3.org/2000/svg" width="26.001" height="15.73" viewBox="0 0 26.001 15.73">
  <g id="Grupo_2152" data-name="Grupo 2152">
    <path id="Trazado_1213" data-name="Trazado 1213" d="M3300.176-2597.23h-18.791a3.608,3.608,0,0,1-3.605-3.6v-8.521a3.608,3.608,0,0,1,3.605-3.6h18.791a3.608,3.608,0,0,1,3.605,3.6v8.521A3.609,3.609,0,0,1,3300.176-2597.23Zm-18.791-14.26a2.137,2.137,0,0,0-2.134,2.134v8.521a2.137,2.137,0,0,0,2.134,2.135h18.791a2.136,2.136,0,0,0,2.134-2.135v-8.521a2.136,2.136,0,0,0-2.134-2.134Z" transform="translate(-3277.78 2612.96)" fill="#fff"/>
  </g>
  <g id="Grupo_2153" data-name="Grupo 2153" transform="translate(0 4.102)">
    <path id="Trazado_1214" data-name="Trazado 1214" d="M3303.046-2607.7h-24.53a.735.735,0,0,1-.736-.736.736.736,0,0,1,.736-.736h24.53a.736.736,0,0,1,.735.736A.735.735,0,0,1,3303.046-2607.7Z" transform="translate(-3277.78 2609.173)" fill="#fff"/>
  </g>
  <g id="Grupo_2154" data-name="Grupo 2154" transform="translate(10.337 7.899)">
    <path id="Trazado_1215" data-name="Trazado 1215" d="M3298.317-2604.2h-10.259a.736.736,0,0,1-.735-.735.735.735,0,0,1,.735-.736h10.259a.735.735,0,0,1,.734.736A.735.735,0,0,1,3298.317-2604.2Z" transform="translate(-3287.322 2605.669)" fill="#fff"/>
  </g>
  <g id="Grupo_2155" data-name="Grupo 2155" transform="translate(3.361 10.669)">
    <path id="Trazado_1216" data-name="Trazado 1216" d="M3285.721-2601.641h-4.1a.736.736,0,0,1-.735-.736.736.736,0,0,1,.735-.736h4.1a.735.735,0,0,1,.736.736A.736.736,0,0,1,3285.721-2601.641Z" transform="translate(-3280.882 2603.112)" fill="#fff"/>
  </g>
</svg>
