<svg id="Grupo_2162" data-name="Grupo 2162" xmlns="http://www.w3.org/2000/svg" width="23.794" height="22.236" viewBox="0 0 23.794 22.236">
  <g id="Grupo_2157" data-name="Grupo 2157" transform="translate(1.558)">
    <path id="Trazado_1217" data-name="Trazado 1217" d="M3171.613-2592.227h-18.834a2.854,2.854,0,0,1-2.851-2.852v-18.833a.551.551,0,0,1,.552-.551h21.134a.551.551,0,0,1,.551.551v21.134A.551.551,0,0,1,3171.613-2592.227Zm-20.583-21.134v18.281a1.752,1.752,0,0,0,1.75,1.75h18.282v-20.031Z" transform="translate(-3149.927 2614.463)" fill="#fffbfc"/>
  </g>
  <g id="Grupo_2158" data-name="Grupo 2158" transform="translate(13.736 7.037)">
    <path id="Trazado_1218" data-name="Trazado 1218" d="M3164.494-2601.314a3.329,3.329,0,0,1-3.326-3.326,3.33,3.33,0,0,1,3.326-3.327,3.33,3.33,0,0,1,3.326,3.327A3.329,3.329,0,0,1,3164.494-2601.314Zm0-5.55a2.226,2.226,0,0,0-2.223,2.224,2.225,2.225,0,0,0,2.223,2.223,2.226,2.226,0,0,0,2.223-2.223A2.226,2.226,0,0,0,3164.494-2606.864Z" transform="translate(-3161.168 2607.967)" fill="#fffbfc"/>
  </g>
  <g id="Grupo_2159" data-name="Grupo 2159" transform="translate(0 8.454)">
    <path id="Trazado_1219" data-name="Trazado 1219" d="M3153.531-2605.557h-4.49a.55.55,0,0,1-.551-.551.55.55,0,0,1,.551-.551h4.49a.551.551,0,0,1,.552.551A.551.551,0,0,1,3153.531-2605.557Z" transform="translate(-3148.489 2606.659)" fill="#fffbfc"/>
  </g>
  <g id="Grupo_2160" data-name="Grupo 2160" transform="translate(0 12.587)">
    <path id="Trazado_1220" data-name="Trazado 1220" d="M3153.531-2601.741h-4.49a.551.551,0,0,1-.551-.552.55.55,0,0,1,.551-.551h4.49a.551.551,0,0,1,.552.551A.552.552,0,0,1,3153.531-2601.741Z" transform="translate(-3148.489 2602.844)" fill="#fffbfc"/>
  </g>
  <g id="Grupo_2161" data-name="Grupo 2161" transform="translate(10.688 3.99)">
    <path id="Trazado_1221" data-name="Trazado 1221" d="M3164.728-2598.032a6.38,6.38,0,0,1-6.373-6.373,6.381,6.381,0,0,1,6.373-6.374,6.381,6.381,0,0,1,6.373,6.374A6.38,6.38,0,0,1,3164.728-2598.032Zm0-11.645a5.277,5.277,0,0,0-5.271,5.271,5.277,5.277,0,0,0,5.271,5.271,5.278,5.278,0,0,0,5.272-5.271A5.278,5.278,0,0,0,3164.728-2609.677Z" transform="translate(-3158.355 2610.78)" fill="#fffbfc"/>
  </g>
</svg>
