<svg id="Grupo_2205" data-name="Grupo 2205" xmlns="http://www.w3.org/2000/svg" width="20.36" height="17.987" viewBox="0 0 20.36 17.987">
  <g id="Grupo_2203" data-name="Grupo 2203">
    <path id="Trazado_1252" data-name="Trazado 1252" d="M2197.557-2595.984h-13.828a5.8,5.8,0,0,1-5.793-5.795v-11.454a.738.738,0,0,1,.738-.738.738.738,0,0,1,.739.738v11.454a4.322,4.322,0,0,0,4.317,4.318h13.828a.738.738,0,0,1,.739.739A.738.738,0,0,1,2197.557-2595.984Z" transform="translate(-2177.936 2613.971)" fill="#fff"/>
  </g>
  <g id="Grupo_2204" data-name="Grupo 2204" transform="translate(3.839 2.275)">
    <path id="Trazado_1253" data-name="Trazado 1253" d="M2182.2-2600.263a.74.74,0,0,1-.392-.112.739.739,0,0,1-.232-1.018l3.923-6.261a.741.741,0,0,1,.561-.344.759.759,0,0,1,.612.239l2.756,3.042,4.741-6.844a.739.739,0,0,1,1.028-.187.739.739,0,0,1,.186,1.028l-5.271,7.607a.743.743,0,0,1-.559.316.736.736,0,0,1-.595-.241l-2.726-3.007-3.407,5.436A.737.737,0,0,1,2182.2-2600.263Z" transform="translate(-2181.465 2611.879)" fill="#fff"/>
  </g>
</svg>
