<svg xmlns="http://www.w3.org/2000/svg" width="17.705" height="23.925" viewBox="0 0 17.705 23.925">
  <path id="Trazado_1209" data-name="Trazado 1209" d="M3233.934-2606.639l-7.776-9.716a1.031,1.031,0,0,0-.875-.385,1.031,1.031,0,0,0-.817.5l-.028.047h0l-7.836,13.006a1.036,1.036,0,0,0,.078,1.177l6.653,8.339a2.278,2.278,0,0,0,1.778.855c.05,0,.1,0,.15,0a2.275,2.275,0,0,0,1.8-1.1l.167-.276a2.27,2.27,0,0,0,1.395.48c.05,0,.1,0,.149-.005a2.275,2.275,0,0,0,1.8-1.1l.034-.056,3.447-10.656A1.04,1.04,0,0,0,3233.934-2606.639Zm-3.19-2.177-.538,1.936a1.937,1.937,0,0,1-1.558,1.417,1.941,1.941,0,0,1-1.951-.792,1.965,1.965,0,0,1-.292-1.708l1.342-4.6Zm-5.558,14.867a1.129,1.129,0,0,1-.969-.428l-6.611-8.285,4.9-8.129-2.422,6.765a1.036,1.036,0,0,0,.111,1.119l6.248,7.83-.346.576A1.136,1.136,0,0,1,3225.186-2593.95Zm4.383-1.4a1.127,1.127,0,0,1-.873.5,1.128,1.128,0,0,1-.971-.428l-6.613-8.287,4.278-11.943,1.494,1.867-1.565,5.357a3.089,3.089,0,0,0,.461,2.687,3.077,3.077,0,0,0,2.509,1.293,3.176,3.176,0,0,0,.558-.05,3.084,3.084,0,0,0,2.447-2.228l.319-1.149.656.82.558.7h0l.18.225Z" transform="translate(-3216.454 2616.742)" fill="#fff"/>
</svg>
