<svg id="Grupo_2379" data-name="Grupo 2379" xmlns="http://www.w3.org/2000/svg" xmlns:xlink="http://www.w3.org/1999/xlink" viewBox="0 0 19.14 19.674"><defs><style>.cls-1{fill:none;}.cls-2{clip-path:url(#clip-path);}.cls-3{fill:#fff;}</style><clipPath id="clip-path"><rect class="cls-1" x="0.086" y="0.342" width="18.968" height="18.968"/></clipPath></defs><title>icono recibir </title><g class="cls-2"><g id="Componente_43_1" data-name="Componente 43 1"><g id="Grupo_37" data-name="Grupo 37"><path id="Trazado_30" data-name="Trazado 30" class="cls-3" d="M18.216,6.282a.837.837,0,0,0,.837-.837V1.179a.837.837,0,0,0-.837-.837H13.46a.838.838,0,0,0,0,1.675h3.915V5.444a.837.837,0,0,0,.836.838Z"/></g><g id="Grupo_38" data-name="Grupo 38"><path id="Trazado_31" data-name="Trazado 31" class="cls-3" d="M13.951,19.31h4.265a.837.837,0,0,0,.837-.837V13.721a.838.838,0,0,0-1.675,0v3.915H13.951a.838.838,0,0,0,0,1.675Z"/></g><g id="Grupo_39" data-name="Grupo 39"><path id="Trazado_32" data-name="Trazado 32" class="cls-3" d="M.923,19.31H5.675a.838.838,0,1,0,0-1.675H1.761V14.207a.838.838,0,0,0-1.675,0h0v4.265a.837.837,0,0,0,.836.838Z"/></g><g id="Grupo_40" data-name="Grupo 40"><path id="Trazado_33" data-name="Trazado 33" class="cls-3" d="M.923,6.768a.838.838,0,0,0,.838-.837V2.017H5.188a.838.838,0,1,0,0-1.675H.923a.839.839,0,0,0-.837.837V5.931a.837.837,0,0,0,.837.837Z"/></g></g></g></svg>