<svg xmlns="http://www.w3.org/2000/svg" width="18.902" height="21.177" viewBox="0 0 18.902 21.177">
  <g id="Grupo_2151" data-name="Grupo 2151" transform="translate(0 0)">
    <g id="Grupo_2149" data-name="Grupo 2149" transform="translate(0 11.805)">
      <path id="Trazado_1211" data-name="Trazado 1211" d="M3361.965-2595.205h-8.657a7.1,7.1,0,0,1-7.1-7.1,2.278,2.278,0,0,1,2.276-2.276h13.478a3.152,3.152,0,0,1,3.148,3.148v3.076A3.151,3.151,0,0,1,3361.965-2595.205Zm-13.478-7.9a.806.806,0,0,0-.8.806,5.632,5.632,0,0,0,5.626,5.626h8.657a1.681,1.681,0,0,0,1.678-1.678v-3.076a1.68,1.68,0,0,0-1.678-1.678Z" transform="translate(-3346.211 2604.577)" fill="#fff"/>
    </g>
    <g id="Grupo_2150" data-name="Grupo 2150" transform="translate(4.202)">
      <path id="Trazado_1212" data-name="Trazado 1212" d="M3355.34-2604.976a5.256,5.256,0,0,1-5.25-5.25,5.255,5.255,0,0,1,5.25-5.249,5.255,5.255,0,0,1,5.249,5.249A5.256,5.256,0,0,1,3355.34-2604.976Zm0-9.028a3.784,3.784,0,0,0-3.78,3.779,3.784,3.784,0,0,0,3.78,3.78,3.783,3.783,0,0,0,3.778-3.78A3.783,3.783,0,0,0,3355.34-2614Z" transform="translate(-3350.09 2615.474)" fill="#fff"/>
    </g>
  </g>
</svg>
