<svg id="Grupo_2379" data-name="Grupo 2379" xmlns="http://www.w3.org/2000/svg" xmlns:xlink="http://www.w3.org/1999/xlink" viewBox="0 0 18.147 24.329"><defs><style>.cls-1,.cls-3{fill:none;}.cls-2{clip-path:url(#clip-path);}.cls-3{stroke:#fff;stroke-linecap:round;stroke-linejoin:round;stroke-width:1.5px;}.cls-4{fill:#fff;}</style><clipPath id="clip-path"><rect class="cls-1" width="18.147" height="24.329"/></clipPath></defs><title>icono enviar </title><g class="cls-2"><g id="Símbolo_8_22" data-name="Símbolo 8 22"><path id="Trazado_12" data-name="Trazado 12" class="cls-3" d="M11.867,3.9,9.484.927A.469.469,0,0,0,8.825.854a.461.461,0,0,0-.109.124L.841,14.051a.469.469,0,0,0,.035.534l6.662,8.349a1.712,1.712,0,0,0,2.805-.184l6.962-11.558a.469.469,0,0,0-.035-.535L15.31,8.208M12.986,13.56l-6.481,2.7.9-7.008m-.9,7.008L13.566,6.024"/></g></g><path id="Trazado_49" data-name="Trazado 49" class="cls-4" d="M15.4,1.619a1.318,1.318,0,1,1-1.318,1.318A1.319,1.319,0,0,1,15.4,1.619Z"/></svg>