<svg xmlns="http://www.w3.org/2000/svg" xmlns:xlink="http://www.w3.org/1999/xlink" width="233.826" height="285.528" viewBox="0 0 233.826 285.528">
  <defs>
    <linearGradient id="linear-gradient" x1="0.483" y1="-0.041" x2="0.516" y2="1.053" gradientUnits="objectBoundingBox">
      <stop offset="0.037" stop-color="#8361f5"/>
      <stop offset="0.414" stop-color="#8062f5"/>
      <stop offset="0.684" stop-color="#7665f5"/>
      <stop offset="0.921" stop-color="#676cf5"/>
      <stop offset="1" stop-color="#606ff6"/>
    </linearGradient>
    <linearGradient id="linear-gradient-2" x1="0.483" y1="-0.041" x2="0.516" y2="1.053" xlink:href="#linear-gradient"/>
    <linearGradient id="linear-gradient-3" y1="0.5" x2="1" y2="0.5" gradientUnits="objectBoundingBox">
      <stop offset="0" stop-color="#fac579"/>
      <stop offset="1" stop-color="#ea5933"/>
    </linearGradient>
  </defs>
  <g id="Grupo_2381" data-name="Grupo 2381" transform="translate(-21.594 -19.992)">
    <g id="Grupo_2379" data-name="Grupo 2379" transform="translate(36.541 48.642)">
      <path id="Trazado_41" data-name="Trazado 41" d="M343.3,197.681l-.221-.276-.113-.141-.465-.582h0l-.584-.73v0l-.417-.521h0l-.581-.727h0l-.214-.268-.133-.166h0l-.546-.683a.076.076,0,0,0-.125.008l-1.507,2.5-.1.167-1.728,2.868a.254.254,0,0,0,.019.29l2.736,3.4a.735.735,0,0,0,1.2-.082l2.8-4.685A.327.327,0,0,0,343.3,197.681Z" transform="translate(-320.194 -193.556)" fill="url(#linear-gradient)"/>
      <path id="Trazado_42" data-name="Trazado 42" d="M297.077,214.647l-.142-.177-.072-.091-.3-.373h0l-.374-.468h0l-.267-.334h0l-.373-.466h0l-.138-.172-.085-.107h0l-.35-.437a.049.049,0,0,0-.08.005l-.966,1.6-.065.107-1.108,1.839a.162.162,0,0,0,.012.186l1.755,2.181a.471.471,0,0,0,.772-.053l1.8-3A.21.21,0,0,0,297.077,214.647Z" transform="translate(-292.733 -205.122)" fill="#5496ff"/>
      <path id="Trazado_43" data-name="Trazado 43" d="M356,243.853l-.086-.108-.044-.055-.182-.228h0l-.229-.286h0l-.163-.2h0l-.227-.284h0l-.084-.1-.052-.065h0l-.213-.267a.03.03,0,0,0-.049,0l-.589.978-.039.066-.675,1.122a.1.1,0,0,0,.007.114l1.07,1.33a.287.287,0,0,0,.471-.032l1.1-1.832A.128.128,0,0,0,356,243.853Z" transform="translate(-330.741 -224.082)" fill="#93b5e5"/>
    </g>
    <g id="Grupo_2380" data-name="Grupo 2380" transform="translate(213.517 42.499)">
      <g id="Grupo_54" data-name="Grupo 54" transform="translate(0 10.156)">
        <path id="Trazado_44" data-name="Trazado 44" d="M773.978,212.391l-.22-.274-.112-.141-.463-.578h0l-.581-.726,0,0-.415-.518h0l-.578-.722h0l-.213-.266-.132-.165h0l-.543-.679a.076.076,0,0,0-.125.009l-1.5,2.487-.1.166-1.718,2.852a.254.254,0,0,0,.019.289l2.721,3.382a.731.731,0,0,0,1.2-.082L774,212.761A.325.325,0,0,0,773.978,212.391Z" transform="translate(-767.241 -206.807)" fill="url(#linear-gradient-2)"/>
        <path id="Trazado_45" data-name="Trazado 45" d="M840.225,206.946l-.141-.176-.072-.09-.3-.371h0l-.373-.466h0l-.266-.332h0l-.371-.463h0l-.137-.171-.085-.106h0l-.348-.435a.049.049,0,0,0-.08.005l-.961,1.595-.064.107-1.1,1.829a.162.162,0,0,0,.013.185l1.745,2.169a.469.469,0,0,0,.768-.053l1.788-2.987A.209.209,0,0,0,840.225,206.946Z" transform="translate(-810.296 -204.316)" fill="#5496ff"/>
      </g>
      <path id="Trazado_46" data-name="Trazado 46" d="M796.505,178.691l-.086-.107-.044-.055-.181-.226h0l-.227-.284h0l-.162-.2h0l-.226-.282h0l-.084-.1-.052-.065h0l-.212-.266a.03.03,0,0,0-.049,0l-.586.973-.039.065-.672,1.116a.1.1,0,0,0,.008.113l1.064,1.323a.286.286,0,0,0,.468-.032l1.09-1.822A.127.127,0,0,0,796.505,178.691Z" transform="translate(-783.939 -177.086)" fill="#93b5e5"/>
    </g>
    <path id="Trazado_1359" data-name="Trazado 1359" d="M2935.057-1811.976a45.055,45.055,0,0,1-1.494,24.135,46.441,46.441,0,0,1-15.271,22.064,47.106,47.106,0,0,1-25,10.261c10.406,7.178,17.391,15.9,20.907,26.062,3.565,10.117,3.517,20.715-.1,31.65a60.1,60.1,0,0,1-14.356,23.172,54.2,54.2,0,0,1-22.93,14.115q-12.863,3.829-28.664.481c-4.143-.915-12.187-3.227-23.364-6.648l-11.466,34.637-28.76-9.49,11.369-34.4-18.692-6.167-11.369,34.348-28.375-9.394,11.369-34.348-46.632-15.464,10.453-31.554,18.788,6.214a13.842,13.842,0,0,0,17.487-8.768l33.192-100.3a13.808,13.808,0,0,0-8.767-17.439l-18.788-6.214,10.454-31.6,46.633,15.464,12.092-36.419,28.374,9.394-12.091,36.419,18.691,6.166,12.092-36.419,28.711,9.538-4.322,13.086-7.77,23.526a173.563,173.563,0,0,1,21.1,8.864,51.333,51.333,0,0,1,17.2,14.4A50.725,50.725,0,0,1,2935.057-1811.976Zm-46.247,15.319c1.927-5.829,1.927-11.128-.1-15.849-2.023-4.769-6.118-8.575-12.236-11.465-3.661-1.686-8.816-3.613-26.833-9.587l-19.174-6.358-14.548,43.886,22.3,7.37c14.886,4.914,18.6,5.878,22.353,6.648,6.792,1.4,12.718.867,17.728-1.686C2883.27-1786.155,2886.786-1790.491,2888.81-1796.657Zm-19.366,82.088a26.233,26.233,0,0,0,.626-15.9,24.878,24.878,0,0,0-9.1-12.67c-4.625-3.468-9.972-6.31-27.363-12.043l-28.086-9.3L2788.7-1713.75l32.614,10.791c13.777,4.577,17.005,5.2,20.955,5.637a25.086,25.086,0,0,0,16.427-2.939C2863.615-1703.1,2867.179-1707.872,2869.444-1714.569Z" transform="translate(-2680.638 1937.566)" opacity="0.089" fill="url(#linear-gradient-3)"/>
  </g>
</svg>
