<svg id="Capa_1" data-name="Capa 1" xmlns="http://www.w3.org/2000/svg" xmlns:xlink="http://www.w3.org/1999/xlink" viewBox="0 0 234 286"><defs><style>.cls-1{fill:none;}.cls-2{opacity:0.15;isolation:isolate;fill:url(#Degradado_sin_nombre_2);}</style><linearGradient id="Degradado_sin_nombre_2" x1="1.804" y1="285.617" x2="2.804" y2="285.617" gradientTransform="matrix(233.816, 0, 0, -285.531, -421.82, 81695.36)" gradientUnits="userSpaceOnUse"><stop offset="0" stop-color="#fac579"/><stop offset="1" stop-color="#ea5933"/></linearGradient></defs><title>bitcoin icon </title><rect class="cls-1" x="31" y="10" width="169.307" height="267.196"/><path id="Trazado_105" data-name="Trazado 105" class="cls-2" d="M232.825,105.6a45.06,45.06,0,0,1-1.494,24.135A46.442,46.442,0,0,1,216.06,151.8a47.1,47.1,0,0,1-25,10.261c10.406,7.178,17.391,15.9,20.907,26.062,3.565,10.117,3.517,20.715-.1,31.65a60.106,60.106,0,0,1-14.356,23.172,54.194,54.194,0,0,1-22.93,14.115q-12.862,3.829-28.664.481c-4.143-.915-12.187-3.227-23.364-6.648l-11.466,34.637-28.76-9.49,11.369-34.4L75,235.47,63.635,269.818,35.26,260.424l11.369-34.348L0,210.612,10.45,179.058l18.788,6.214A13.842,13.842,0,0,0,46.725,176.5L79.917,76.2A13.808,13.808,0,0,0,71.15,58.765L52.362,52.551l10.454-31.6,46.633,15.464L121.541,0,149.915,9.39,137.824,45.809l18.691,6.166,12.092-36.419,28.711,9.538L185.227,61.706a173.542,173.542,0,0,1,21.1,8.864,51.336,51.336,0,0,1,17.2,14.4A50.729,50.729,0,0,1,232.825,105.6Zm-46.247,15.319c1.927-5.829,1.927-11.128-.1-15.849-2.023-4.769-6.118-8.575-12.236-11.465-3.661-1.686-8.816-3.613-26.833-9.587l-19.174-6.358-14.548,43.886,22.3,7.37c14.886,4.914,18.6,5.878,22.353,6.648,6.792,1.4,12.718.867,17.728-1.686,4.97-2.457,8.486-6.793,10.51-12.959Zm-19.366,82.088a26.228,26.228,0,0,0,.626-15.9,24.878,24.878,0,0,0-9.1-12.67c-4.625-3.468-9.972-6.31-27.363-12.043l-28.086-9.3L86.468,203.824l32.614,10.791c13.777,4.577,17,5.2,20.955,5.637a25.081,25.081,0,0,0,16.427-2.939c4.919-2.839,8.483-7.611,10.748-14.308Z"/></svg>