<svg id="Capa_1" data-name="Capa 1" xmlns="http://www.w3.org/2000/svg" xmlns:xlink="http://www.w3.org/1999/xlink" viewBox="0 0 234 286"><defs><style>.cls-1{fill:none;}.cls-2{opacity:0.15;fill:url(#Degradado_sin_nombre_4);}</style><linearGradient id="Degradado_sin_nombre_4" x1="15.73" y1="278.291" x2="15.73" y2="268.408" gradientTransform="matrix(20.738, 0, 0, -28.937, -208.742, 8052.936)" gradientUnits="userSpaceOnUse"><stop offset="0" stop-color="#29abe2"/><stop offset="1" stop-color="#345d9d"/></linearGradient></defs><title>litecoin icon </title><rect class="cls-1" x="31" y="10" width="169.307" height="267.196"/><path id="Trazado_1356" data-name="Trazado 1356" class="cls-2" d="M215.556,234.635H93.861l22.06-74.018L152.49,149.39l5.5-25.7L123.7,134.347,161.8,6.5A4.458,4.458,0,0,0,157.6.781L105.454,0a4.459,4.459,0,0,0-4.339,3.193L56.264,155.31l-33.93,10.546L15,191.553l33.6-10.318L17.728,286H204.9a4.457,4.457,0,0,0,4.319-3.37l10.6-42.42a4.458,4.458,0,0,0-3.2-5.433A4.505,4.505,0,0,0,215.556,234.635Z"/></svg>