<svg id="Capa_1" data-name="Capa 1" xmlns="http://www.w3.org/2000/svg" xmlns:xlink="http://www.w3.org/1999/xlink" viewBox="0 0 100 100"><defs><style>.cls-1{fill:url(#Degradado_sin_nombre_4);}</style><linearGradient id="Degradado_sin_nombre_4" x1="27.552" y1="73.413" x2="27.409" y2="70.376" gradientTransform="matrix(35.52, 0, 0, -35.52, -925.813, 2603.162)" gradientUnits="userSpaceOnUse"><stop offset="0" stop-color="#29abe2"/><stop offset="1" stop-color="#345d9d"/></linearGradient></defs><title>LiteCoin Icon</title><path class="cls-1" d="M50.266,1a49,49,0,1,0,49,49A49,49,0,0,0,50.266,1ZM69.872,65.088l-2.031,8.126a.854.854,0,0,1-.828.646H31.155L37.07,53.789l-6.438,1.977,1.4-4.923,6.5-2.02L47.13,19.681a.853.853,0,0,1,.831-.612l9.99.15a.853.853,0,0,1,.8,1.1l-7.3,24.492,6.568-2.041-1.053,4.923L49.967,49.84,45.74,64.02H69.055a.836.836,0,0,1,.2.027A.853.853,0,0,1,69.872,65.088Z"/></svg>