<svg id="Grupo_1352" data-name="Grupo 1352" xmlns="http://www.w3.org/2000/svg" width="16.343" height="22.085" viewBox="0 0 16.343 22.085">
  <g id="Grupo_1351" data-name="Grupo 1351">
    <path id="Trazado_896" data-name="Trazado 896" d="M4371.331-3925.46l-7.177-8.969a.955.955,0,0,0-.809-.356.957.957,0,0,0-.754.46l-.026.044h0l-7.233,12.006a.958.958,0,0,0,.072,1.087l6.141,7.7a2.1,2.1,0,0,0,1.641.79c.046,0,.092,0,.138,0a2.1,2.1,0,0,0,1.661-1.013l.154-.254a2.1,2.1,0,0,0,1.287.443c.046,0,.092,0,.138,0a2.1,2.1,0,0,0,1.661-1.011l.031-.052,3.182-9.836A.96.96,0,0,0,4371.331-3925.46Zm-2.945-2.01-.5,1.787a1.789,1.789,0,0,1-1.437,1.308,1.791,1.791,0,0,1-1.8-.731,1.811,1.811,0,0,1-.271-1.577l1.239-4.243Zm-5.13,13.723a1.043,1.043,0,0,1-.9-.4l-6.1-7.648,4.521-7.5-2.237,6.245a.958.958,0,0,0,.1,1.033l5.768,7.228-.32.531A1.045,1.045,0,0,1,4363.256-3913.747Zm4.046-1.292a1.042,1.042,0,0,1-.806.463,1.04,1.04,0,0,1-.9-.4l-6.1-7.649,3.949-11.024,1.379,1.723-1.445,4.945a2.851,2.851,0,0,0,.426,2.48,2.838,2.838,0,0,0,2.316,1.194,2.913,2.913,0,0,0,.515-.046,2.847,2.847,0,0,0,2.259-2.056l.295-1.061.606.757.515.644h0l.167.208Z" transform="translate(-4355.196 3934.787)" fill="#fff"/>
    <path id="Trazado_897" data-name="Trazado 897" d="M4366.2-3924.769a1.56,1.56,0,0,0,1.559-1.559,1.561,1.561,0,0,0-1.559-1.559,1.561,1.561,0,0,0-1.559,1.559A1.56,1.56,0,0,0,4366.2-3924.769Zm0-2.075a.516.516,0,0,1,.515.516.516.516,0,0,1-.515.516.517.517,0,0,1-.516-.516A.517.517,0,0,1,4366.2-3926.844Z" transform="translate(-4355.196 3934.787)" fill="#fff"/>
  </g>
</svg>
