<svg id="Capa_1" data-name="Capa 1" xmlns="http://www.w3.org/2000/svg" xmlns:xlink="http://www.w3.org/1999/xlink" viewBox="0 0 100 100"><defs><style>.cls-1{fill:url(#Degradado_sin_nombre_2);}.cls-2{fill:url(#Degradado_sin_nombre_2-2);}.cls-3{fill:url(#Degradado_sin_nombre_2-3);}</style><linearGradient id="Degradado_sin_nombre_2" x1="65.309" y1="20.554" x2="64.498" y2="-0.387" gradientTransform="matrix(6.285, 0, 0, -5.157, -354.913, 101.581)" gradientUnits="userSpaceOnUse"><stop offset="0" stop-color="#fac579"/><stop offset="1" stop-color="#ea5933"/></linearGradient><linearGradient id="Degradado_sin_nombre_2-2" x1="70.676" y1="9.884" x2="69.779" y2="-14.207" gradientTransform="matrix(5.671, 0, 0, -4.486, -341.161, 40.086)" xlink:href="#Degradado_sin_nombre_2"/><linearGradient id="Degradado_sin_nombre_2-3" x1="27.549" y1="73.413" x2="27.406" y2="70.376" gradientTransform="matrix(35.52, 0, 0, -35.52, -925.813, 2603.162)" xlink:href="#Degradado_sin_nombre_2"/></defs><title>BTC icon </title><path id="Trazado_59-2" data-name="Trazado 59-2" class="cls-1" d="M58.987,56.691a18.427,18.427,0,0,0-5.772-2.547l-5.921-1.962-3.54,10.692,6.873,2.276a20.567,20.567,0,0,0,4.414,1.192,5.261,5.261,0,0,0,3.463-.627A5.173,5.173,0,0,0,60.761,62.7a5.455,5.455,0,0,0,.132-3.347A5.184,5.184,0,0,0,58.987,56.691Z"/><path id="Trazado_60-2" data-name="Trazado 60-2" class="cls-2" d="M62.24,39.64a60.012,60.012,0,0,0-5.656-2.022l-4.04-1.338-3.062,9.245,4.69,1.553a40.494,40.494,0,0,0,4.713,1.407,5.6,5.6,0,0,0,3.732-.353A4.439,4.439,0,0,0,64.825,45.4a4.634,4.634,0,0,0-.022-3.347A4.875,4.875,0,0,0,62.24,39.64Z"/><g id="Grupo_104" data-name="Grupo 104"><g id="Grupo_103" data-name="Grupo 103"><path id="Trazado_61" data-name="Trazado 61" class="cls-3" d="M50.166,1a49,49,0,1,0,49,49,49,49,0,0,0-49-49ZM74.277,47.255a9.979,9.979,0,0,1-8.489,6.812A11.077,11.077,0,0,1,70.2,59.554a10.15,10.15,0,0,1-.03,6.677,12.586,12.586,0,0,1-3.035,4.884,11.288,11.288,0,0,1-4.831,2.968,12.021,12.021,0,0,1-6.042.1c-.872-.187-2.572-.676-4.925-1.4l-2.42,7.306-6.07-2.006,2.4-7.242-3.937-1.3-2.4,7.242L32.931,74.8l2.4-7.24L25.5,64.3l2.207-6.655,3.962,1.313a2.907,2.907,0,0,0,3.674-1.847h0l7-21.143A2.906,2.906,0,0,0,40.5,32.294h0l-3.962-1.311,2.207-6.655,9.83,3.256,2.541-7.675L57.1,21.889l-2.541,7.678,3.94,1.3L61.037,23.2,67.106,25.2l-2.554,7.725A36.709,36.709,0,0,1,69.005,34.8a10.624,10.624,0,0,1,5.587,7.386,9.518,9.518,0,0,1-.315,5.06Z"/></g></g></svg>