<svg xmlns="http://www.w3.org/2000/svg" xmlns:xlink="http://www.w3.org/1999/xlink" width="12.228" height="12.229" viewBox="0 0 12.228 12.229">
  <defs>
    <linearGradient id="linear-gradient" y1="0.5" x2="1" y2="0.5" gradientUnits="objectBoundingBox">
      <stop offset="0" stop-color="#41da9c"/>
      <stop offset="1" stop-color="#15e9e9"/>
    </linearGradient>
  </defs>
  <path id="Trazado_58" data-name="Trazado 58" d="M308.8,249.533h-4.414a.122.122,0,0,1-.122-.122V245a.122.122,0,0,0-.123-.123h-2.667a.122.122,0,0,0-.122.123v4.414a.122.122,0,0,1-.122.122h-4.414a.122.122,0,0,0-.122.122v2.667a.122.122,0,0,0,.122.122h4.414a.122.122,0,0,1,.122.122v4.414a.122.122,0,0,0,.122.123h2.667a.122.122,0,0,0,.123-.123v-4.414a.122.122,0,0,1,.122-.122H308.8a.122.122,0,0,0,.122-.122v-2.667A.122.122,0,0,0,308.8,249.533Z" transform="translate(-296.695 -244.874)" fill="url(#linear-gradient)"/>
</svg>
