<svg id="Capa_1" data-name="Capa 1" xmlns="http://www.w3.org/2000/svg" xmlns:xlink="http://www.w3.org/1999/xlink" viewBox="0 0 369 369"><defs><style>.cls-1{fill:#fff;}.cls-2{fill:url(#Degradado_sin_nombre_2);}</style><linearGradient id="Degradado_sin_nombre_2" x1="4.649" y1="366.723" x2="2.096" y2="362.764" gradientTransform="matrix(91.76, 0, 0, -91.76, -121.5, 33647.944)" gradientUnits="userSpaceOnUse"><stop offset="0" stop-color="#8000ff"/><stop offset="0.112" stop-color="#770dff"/><stop offset="1" stop-color="#14a9ff"/></linearGradient></defs><title>eth 1</title><circle class="cls-1" cx="184" cy="184" r="137"/><path id="Trazado_1541" data-name="Trazado 1541" class="cls-2" d="M184.38,3A181.62,181.62,0,0,0,2.76,184.62h0A181.616,181.616,0,0,0,184.372,366.24h.008A181.62,181.62,0,0,0,366,184.62h0A181.616,181.616,0,0,0,184.384,3Zm0,68.879,67.985,111.538-66.481-27.564-1.5-.7-1.5.7L116.4,183.417Zm67.213,119.55L184.38,230.148l-67.213-38.719,67.213-27.873Zm-67.2,105.88-71.437-98.458,71.421,41.169L255.8,198.851Z"/></svg>