<svg id="Capa_1" data-name="Capa 1" xmlns="http://www.w3.org/2000/svg" xmlns:xlink="http://www.w3.org/1999/xlink" viewBox="0 0 82.984 82.995"><defs><style>.cls-1{fill:url(#Degradado_sin_nombre_3);}</style><linearGradient id="Degradado_sin_nombre_3" x1="7.425" y1="68.303" x2="78.123" y2="12.675" gradientUnits="userSpaceOnUse"><stop offset="0" stop-color="#61a6fb"/><stop offset="0.159" stop-color="#7ab4fb"/><stop offset="1" stop-color="#fff"/></linearGradient></defs><title>icono ETH azul</title><path class="cls-1" d="M41.492,6.951A34.547,34.547,0,1,0,76.038,41.5v0A34.546,34.546,0,0,0,41.492,6.951Zm0,12.043,9.86,16.177.52.852,3.193,5.239L51.041,39.6l-9.179-3.8-.073-.031-.3-.138-.3.138-13.273,5.5ZM48.248,46.7,41.49,50.6l-3.814-2.2-9.6-5.533,13.27-5.5.148-.062,7.691,3.19,5.728,2.375ZM41.491,64,27.233,44.345l9.9,5.7,2.314,1.334,2.049,1.182.554-.319L49.07,48.2l6.681-3.852Z"/></svg>