<svg xmlns="http://www.w3.org/2000/svg" width="14.387" height="25.171" viewBox="0 0 14.387 25.171">
  <g id="Grupo_2293" data-name="Grupo 2293" transform="translate(-4325.263 3687.227)">
    <path id="Trazado_1316" data-name="Trazado 1316" d="M4325.263-3674.64v-9.446a2.93,2.93,0,0,1,3.147-3.138c2.749,0,5.5-.006,8.248,0a2.9,2.9,0,0,1,2.95,2.437,3.571,3.571,0,0,1,.04.647q0,9.532,0,19.064a2.912,2.912,0,0,1-3.025,3.016q-4.176,0-8.351,0a2.914,2.914,0,0,1-3.008-3Q4325.259-3669.849,4325.263-3674.64Zm13.58,6.961v-14.747h-.361q-6.024,0-12.046-.007c-.313,0-.4.08-.4.4q.015,6.964,0,13.929c0,.342.08.438.432.437,4-.013,8.008-.009,12.012-.009Zm-12.762.8c0,.761-.057,1.514.015,2.255a2.02,2.02,0,0,0,2,1.766q4.361.018,8.72,0a1.977,1.977,0,0,0,1.973-1.627,18,18,0,0,0,.022-2.394Zm12.752-16.332a13.033,13.033,0,0,0-.009-1.426,2.038,2.038,0,0,0-1.955-1.777c-2.941-.018-5.881-.012-8.822,0a1.954,1.954,0,0,0-1.507.762,3.245,3.245,0,0,0-.477,2.443Z" fill="#fff"/>
    <path id="Trazado_1317" data-name="Trazado 1317" d="M4332.479-3666.027a1.149,1.149,0,0,1,1.141,1.162,1.178,1.178,0,0,1-1.151,1.164,1.176,1.176,0,0,1-1.177-1.173A1.155,1.155,0,0,1,4332.479-3666.027Zm-.089,1.588.161,0c.094-.144.245-.279.268-.433a.325.325,0,0,0-.356-.368.329.329,0,0,0-.365.392C4332.127-3664.7,4332.288-3664.576,4332.39-3664.439Z" fill="#fff"/>
    <path id="Trazado_1318" data-name="Trazado 1318" d="M4332.425-3684.76c-.352,0-.7,0-1.057,0-.275,0-.448-.124-.449-.4s.17-.381.427-.381h2.216c.257,0,.429.127.433.379,0,.269-.169.4-.445.4C4333.175-3684.763,4332.8-3684.759,4332.425-3684.76Z" fill="#fff"/>
  </g>
</svg>
