<svg id="Capa_1" data-name="Capa 1" xmlns="http://www.w3.org/2000/svg" xmlns:xlink="http://www.w3.org/1999/xlink" viewBox="0 0 369 369"><defs><style>.cls-1{fill:#fff;}.cls-2{fill:url(#Degradado_sin_nombre_3);}.cls-3{fill:url(#Degradado_sin_nombre_3-2);}.cls-4{fill:url(#Degradado_sin_nombre_3-3);}</style><linearGradient id="Degradado_sin_nombre_3" x1="2.055" y1="319.337" x2="27.489" y2="336.452" gradientTransform="matrix(13.075, 0, 0, -10.725, -89.406, 3784.772)" gradientUnits="userSpaceOnUse"><stop offset="0" stop-color="#8dc351"/><stop offset="1" stop-color="#199168"/></linearGradient><linearGradient id="Degradado_sin_nombre_3-2" x1="0.026" y1="314.918" x2="28.203" y2="334.594" gradientTransform="matrix(11.802, 0, 0, -9.327, -85.076, 3256.904)" xlink:href="#Degradado_sin_nombre_3"/><linearGradient id="Degradado_sin_nombre_3-3" x1="0.578" y1="361.669" x2="5.076" y2="364.152" gradientTransform="matrix(73.86, 0, 0, -73.864, -121.5, 27044.315)" xlink:href="#Degradado_sin_nombre_3"/></defs><title>btc cash 1</title><circle class="cls-1" cx="184" cy="184" r="137"/><g id="Grupo_2810" data-name="Grupo 2810"><g id="Grupo_2839" data-name="Grupo 2839"><path id="Trazado_1538-2" data-name="Trazado 1538-2" class="cls-2" d="M217.111,209.43c-3.6-2.734-7.788-4.917-21.393-9.431l-21.937-7.266-13.128,39.618,25.473,8.437a76.2,76.2,0,0,0,16.382,4.425,19.526,19.526,0,0,0,12.832-2.326,19.178,19.178,0,0,0,8.359-11.171,20.221,20.221,0,0,0,.491-12.4A19.214,19.214,0,0,0,217.111,209.43Z"/></g><g id="Grupo_2840" data-name="Grupo 2840"><path id="Trazado_1539-2" data-name="Trazado 1539-2" class="cls-3" d="M229.21,146.276c-2.846-1.308-6.883-2.832-20.959-7.5l-14.971-4.956-11.338,34.259,17.395,5.757A149.928,149.928,0,0,0,216.8,179.05a20.755,20.755,0,0,0,13.83-1.3,16.489,16.489,0,0,0,8.226-10.128,17.143,17.143,0,0,0-.084-12.4A18.084,18.084,0,0,0,229.21,146.276Z"/></g><g id="Grupo_2650" data-name="Grupo 2650"><g id="Grupo_2649" data-name="Grupo 2649"><path id="Trazado_1540" data-name="Trazado 1540" class="cls-4" d="M184.445,3.085a181.58,181.58,0,1,0,0,363.159h0A181.584,181.584,0,0,0,366,184.665h0A181.579,181.579,0,0,0,184.445,3.085Zm89.344,171.4a36.982,36.982,0,0,1-31.466,25.252,41.048,41.048,0,0,1,16.362,20.335,37.555,37.555,0,0,1-.113,24.745,46.6,46.6,0,0,1-11.2,18.1,41.846,41.846,0,0,1-17.9,11,44.617,44.617,0,0,1-22.385.378c-3.231-.7-9.529-2.507-18.251-5.2l-8.968,27.071-22.444-7.434,8.884-26.825-14.592-4.833-8.889,26.825-22.16-7.34,8.885-26.825L93.129,237.67l8.166-24.656,14.681,4.862a10.786,10.786,0,0,0,13.624-6.844l25.97-78.351a10.788,10.788,0,0,0-6.849-13.624L134.04,114.2l8.166-24.652L178.638,101.6l9.42-28.448L210.222,80.5,200.8,108.944l14.6,4.833,9.42-28.447,22.444,7.429-9.469,28.59a136.253,136.253,0,0,1,16.5,6.932A39.4,39.4,0,0,1,275,155.662a35.233,35.233,0,0,1-1.2,18.825Z"/></g></g></g></svg>