<svg xmlns="http://www.w3.org/2000/svg" width="18.55" height="18.55" viewBox="0 0 18.55 18.55">
  <g id="Grupo_2300" data-name="Grupo 2300" transform="translate(-5976.806 4087.957)">
    <g id="Grupo_2297" data-name="Grupo 2297">
      <g id="Grupo_2295" data-name="Grupo 2295">
        <path id="Trazado_1319" data-name="Trazado 1319" d="M5989.6-4074.318a.84.84,0,0,1-.6-.248l-7.035-7.033a.849.849,0,0,1,0-1.2.851.851,0,0,1,1.2,0l7.033,7.033a.85.85,0,0,1,0,1.2A.845.845,0,0,1,5989.6-4074.318Z" fill="#f05"/>
      </g>
      <g id="Grupo_2296" data-name="Grupo 2296">
        <path id="Trazado_1320" data-name="Trazado 1320" d="M5982.565-4074.318a.846.846,0,0,1-.6-.248.849.849,0,0,1,0-1.2L5989-4082.8a.849.849,0,0,1,1.2,0,.85.85,0,0,1,0,1.2l-7.033,7.033A.844.844,0,0,1,5982.565-4074.318Z" fill="#f05"/>
      </g>
    </g>
    <g id="Grupo_2298" data-name="Grupo 2298">
      <path id="Trazado_1321" data-name="Trazado 1321" d="M5986.081-4069.407a9.285,9.285,0,0,1-9.275-9.275,9.284,9.284,0,0,1,9.275-9.275,9.285,9.285,0,0,1,9.275,9.275A9.285,9.285,0,0,1,5986.081-4069.407Zm0-16.854a7.588,7.588,0,0,0-7.579,7.579,7.588,7.588,0,0,0,7.579,7.579,7.588,7.588,0,0,0,7.579-7.579A7.588,7.588,0,0,0,5986.081-4086.261Z" fill="#f05"/>
    </g>
  </g>
</svg>
