<svg xmlns="http://www.w3.org/2000/svg" xmlns:xlink="http://www.w3.org/1999/xlink" width="69.092" height="73.044" viewBox="0 0 69.092 73.044">
  <defs>
    <linearGradient id="linear-gradient" x1="-5.095" y1="3.127" x2="3.718" y2="-1.025" gradientUnits="objectBoundingBox">
      <stop offset="0" stop-color="#61a6fb"/>
      <stop offset="0.159" stop-color="#7ab4fb"/>
      <stop offset="1" stop-color="#fff"/>
    </linearGradient>
    <filter id="Trazado_1124" x="13.856" y="30.693" width="44.558" height="42.351" filterUnits="userSpaceOnUse">
      <feOffset dy="10.775" input="SourceAlpha"/>
      <feGaussianBlur stdDeviation="5.387" result="blur"/>
      <feFlood flood-color="#e58f28" flood-opacity="0.2"/>
      <feComposite operator="in" in2="blur"/>
      <feComposite in="SourceGraphic"/>
    </filter>
    <linearGradient id="linear-gradient-2" x1="-6.332" y1="3.831" x2="3.432" y2="-0.946" xlink:href="#linear-gradient"/>
    <filter id="Trazado_1125" x="17.906" y="19.487" width="43.365" height="41.039" filterUnits="userSpaceOnUse">
      <feOffset dy="10.775" input="SourceAlpha"/>
      <feGaussianBlur stdDeviation="5.387" result="blur-2"/>
      <feFlood flood-color="#e58f28" flood-opacity="0.2"/>
      <feComposite operator="in" in2="blur-2"/>
      <feComposite in="SourceGraphic"/>
    </filter>
    <linearGradient id="linear-gradient-3" x1="-0.502" y1="0.887" x2="1.058" y2="0.284" xlink:href="#linear-gradient"/>
  </defs>
  <g id="Grupo_2051" data-name="Grupo 2051" transform="translate(-124.638 -84.534)">
    <g transform="matrix(1, 0, 0, 1, 124.64, 84.53)" filter="url(#Trazado_1124)">
      <path id="Trazado_1124-2" data-name="Trazado 1124" d="M383.547,78.928a12.973,12.973,0,0,0-4.073-1.8l-4.174-1.38-2.5,7.536,4.847,1.606a14.641,14.641,0,0,0,3.117.842,3.724,3.724,0,0,0,2.441-.444,3.636,3.636,0,0,0,1.59-2.125,3.848,3.848,0,0,0,.094-2.361A3.637,3.637,0,0,0,383.547,78.928Z" transform="translate(-342.79 -39.67)" fill="url(#linear-gradient)"/>
    </g>
    <g transform="matrix(1, 0, 0, 1, 124.64, 84.53)" filter="url(#Trazado_1125)">
      <path id="Trazado_1125-2" data-name="Trazado 1125" d="M382.876,75.14a41.085,41.085,0,0,0-3.99-1.429l-2.847-.94-2.158,6.517,3.309,1.094a29.491,29.491,0,0,0,3.324.993,3.975,3.975,0,0,0,2.632-.248,3.161,3.161,0,0,0,1.564-1.925,3.263,3.263,0,0,0-.019-2.361A3.442,3.442,0,0,0,382.876,75.14Z" transform="translate(-339.81 -47.9)" fill="url(#linear-gradient-2)"/>
    </g>
    <g id="Grupo_2050" data-name="Grupo 2050">
      <g id="Grupo_2049" data-name="Grupo 2049" transform="translate(124.638 84.534)">
        <path id="Trazado_1126" data-name="Trazado 1126" d="M399.367,66.156A34.546,34.546,0,1,0,433.913,100.7,34.545,34.545,0,0,0,399.367,66.156Zm17,32.61a7.019,7.019,0,0,1-5.983,4.8,7.8,7.8,0,0,1,3.11,3.869,7.143,7.143,0,0,1-.019,4.708,8.848,8.848,0,0,1-2.132,3.444,7.99,7.99,0,0,1-3.4,2.094,8.529,8.529,0,0,1-4.26.071c-.613-.135-1.812-.478-3.471-.989l-1.707,5.152L394.23,120.5l1.688-5.1-2.775-.921-1.692,5.107-4.215-1.4,1.692-5.107-6.934-2.294,1.553-4.693,2.794.925a2.053,2.053,0,0,0,2.595-1.3l4.933-14.906a2.047,2.047,0,0,0-1.3-2.591l-2.794-.925,1.553-4.693,6.93,2.3,1.794-5.415,4.215,1.4-1.79,5.411,2.775.921,1.794-5.415,4.268,1.414-1.8,5.441a25.551,25.551,0,0,1,3.14,1.316,7.692,7.692,0,0,1,2.557,2.14,7.605,7.605,0,0,1,1.384,3.068A6.729,6.729,0,0,1,416.364,98.766Z" transform="translate(-364.821 -66.156)" fill="url(#linear-gradient-3)"/>
      </g>
    </g>
  </g>
</svg>
