<svg id="Capa_1" data-name="Capa 1" xmlns="http://www.w3.org/2000/svg" xmlns:xlink="http://www.w3.org/1999/xlink" viewBox="0 0 369 369"><defs><style>.cls-1{fill:#fff;}.cls-2{fill:url(#Degradado_sin_nombre_3);}.cls-3{fill:url(#Degradado_sin_nombre_3-2);}.cls-4{fill:url(#Degradado_sin_nombre_3-3);}</style><linearGradient id="Degradado_sin_nombre_3" x1="4.131" y1="363.171" x2="13.809" y2="344.32" gradientTransform="matrix(23.244, 0, 0, -19.066, -64.446, 6892.547)" gradientUnits="userSpaceOnUse"><stop offset="0" stop-color="#ffc575"/><stop offset="1" stop-color="#ff592d"/></linearGradient><linearGradient id="Degradado_sin_nombre_3-2" x1="6.191" y1="362.582" x2="16.913" y2="340.906" gradientTransform="matrix(20.981, 0, 0, -16.581, -56.749, 5954.22)" xlink:href="#Degradado_sin_nombre_3"/><linearGradient id="Degradado_sin_nombre_3-3" x1="1.262" y1="367.691" x2="2.974" y2="364.954" gradientTransform="matrix(131.309, 0, 0, -131.308, -121.5, 48241.152)" xlink:href="#Degradado_sin_nombre_3"/></defs><title>btc 1</title><circle class="cls-1" cx="184" cy="184" r="137"/><g id="Grupo_2651" data-name="Grupo 2651"><g id="Grupo_2810" data-name="Grupo 2810"><g id="Grupo_2837" data-name="Grupo 2837"><path id="Trazado_1538-2" data-name="Trazado 1538-2" class="cls-2" d="M216.869,208.957c-3.6-2.742-7.8-4.936-21.424-9.448l-21.969-7.276L160.333,231.91l25.51,8.447c10.8,3.579,13.294,4.069,16.405,4.432a19.572,19.572,0,0,0,12.849-2.327,19.208,19.208,0,0,0,8.378-11.187,20.288,20.288,0,0,0,.493-12.425A19.26,19.26,0,0,0,216.869,208.957Z"/></g><g id="Grupo_2838" data-name="Grupo 2838"><path id="Trazado_1539-2" data-name="Trazado 1539-2" class="cls-3" d="M228.99,145.71C226.139,144.4,222.1,142.871,208,138.2l-14.99-4.963-11.356,34.309,17.422,5.766a150.561,150.561,0,0,0,17.485,5.218,20.774,20.774,0,0,0,13.849-1.307,16.493,16.493,0,0,0,8.237-10.14,17.173,17.173,0,0,0-.083-12.414A18.114,18.114,0,0,0,228.99,145.71Z"/></g><g id="Grupo_2650" data-name="Grupo 2650"><g id="Grupo_2649" data-name="Grupo 2649"><path id="Trazado_1540" data-name="Trazado 1540" class="cls-4" d="M184.156,2.31A181.844,181.844,0,0,0,2.309,184.151v0a181.846,181.846,0,0,0,363.691,0v0h0A181.844,181.844,0,0,0,184.156,2.31Zm89.462,171.654a37.036,37.036,0,0,1-31.5,25.285A41.109,41.109,0,0,1,258.5,219.615a37.629,37.629,0,0,1-.111,24.781,46.635,46.635,0,0,1-11.22,18.125,41.907,41.907,0,0,1-17.923,11.018,44.679,44.679,0,0,1-22.418.379c-3.235-.7-9.542-2.509-18.28-5.2l-8.983,27.11-22.476-7.445,8.9-26.867-14.616-4.841-8.9,26.866-22.191-7.351,8.9-26.866-36.46-12.079,8.179-24.692,14.7,4.869a10.8,10.8,0,0,0,13.644-6.855L155.229,132.1a10.8,10.8,0,0,0-6.855-13.644l-14.7-4.869L141.848,88.9l36.486,12.082,9.417-28.493,22.2,7.351-9.44,28.493,14.619,4.838,9.434-28.489,22.476,7.442-9.481,28.631a135.48,135.48,0,0,1,16.527,6.944,39.427,39.427,0,0,1,20.737,27.42,35.315,35.315,0,0,1-1.2,18.853Z"/></g></g></g></g></svg>