<svg id="Capa_1" data-name="Capa 1" xmlns="http://www.w3.org/2000/svg" xmlns:xlink="http://www.w3.org/1999/xlink" viewBox="0 0 71.744 72.93"><defs><style>.cls-1{fill:url(#Degradado_sin_nombre_3);}.cls-2{fill:url(#Degradado_sin_nombre_3-2);}.cls-3{fill:url(#Degradado_sin_nombre_3-3);}</style><linearGradient id="Degradado_sin_nombre_3" x1="-368.042" y1="158.993" x2="-359.229" y2="163.145" gradientTransform="matrix(12.231, 0, 0, -10.031, 4471.692, 1665.897)" gradientUnits="userSpaceOnUse"><stop offset="0" stop-color="#61a6fb"/><stop offset="0.159" stop-color="#7ab4fb"/><stop offset="1" stop-color="#fff"/></linearGradient><linearGradient id="Degradado_sin_nombre_3-2" x1="-366.183" y1="154.418" x2="-356.419" y2="159.195" gradientTransform="matrix(11.041, 0, 0, -8.723, 4008.204, 1406.36)" xlink:href="#Degradado_sin_nombre_3"/><linearGradient id="Degradado_sin_nombre_3-3" x1="2.756" y1="84.42" x2="58.57" y2="5.164" gradientTransform="matrix(1, 0, 0, 1, 0, 0)" xlink:href="#Degradado_sin_nombre_3"/></defs><title>monerpo azul </title><path class="cls-1" d="M33.043,42.075l-1.231,3.712,4.847,1.606a14.616,14.616,0,0,0,3.117.842,3.719,3.719,0,0,0,2.441-.444,3.638,3.638,0,0,0,1.59-2.125,3.849,3.849,0,0,0,.094-2.361,3.649,3.649,0,0,0-1.342-1.874,12.909,12.909,0,0,0-1.515-.856L36.187,44.83Z"/><path class="cls-2" d="M44.868,29.413a41.542,41.542,0,0,0-3.99-1.429l-2.847-.94-2.158,6.517,3.309,1.094c.215.079.434.143.651.216l5.757-5.045A3.462,3.462,0,0,0,44.868,29.413Z"/><path class="cls-3" d="M36.346,2.177A34.546,34.546,0,1,0,70.892,36.723v0A34.547,34.547,0,0,0,36.346,2.177ZM59.868,48.283H47.791V34.663l-6.747,5.912L36.187,44.83l-3.144-2.755-8.46-7.412v13.62H12.823V43.2H19.5V23.445L36.184,38.069l3.649-3.2,5.757-5.045,7.281-6.381V43.2h7Z"/></svg>