<svg id="Capa_1" data-name="Capa 1" xmlns="http://www.w3.org/2000/svg" xmlns:xlink="http://www.w3.org/1999/xlink" viewBox="0 0 82.984 82.995"><defs><style>.cls-1{fill:url(#Degradado_sin_nombre_3);}</style><linearGradient id="Degradado_sin_nombre_3" x1="7.425" y1="68.303" x2="78.123" y2="12.675" gradientUnits="userSpaceOnUse"><stop offset="0" stop-color="#61a6fb"/><stop offset="0.159" stop-color="#7ab4fb"/><stop offset="1" stop-color="#fff"/></linearGradient></defs><title>icono LTC azul </title><path class="cls-1" d="M41.492,6.951A34.547,34.547,0,1,0,76.038,41.5v0A34.546,34.546,0,0,0,41.492,6.951ZM55.158,54.478l-1.416,5.665a.6.6,0,0,1-.577.45H28.171L32.294,46.6l-4.487,1.378.979-3.431,4.531-1.409,5.989-20.313a.6.6,0,0,1,.579-.426l6.964.1a.613.613,0,0,1,.159.025.6.6,0,0,1,.4.74L42.322,40.342,46.9,38.919l-.734,3.432-4.883,1.5-2.946,9.884H54.588a.579.579,0,0,1,.143.019A.6.6,0,0,1,55.158,54.478Z"/></svg>