<svg xmlns="http://www.w3.org/2000/svg" width="4.784" height="4.784" viewBox="0 0 4.784 4.784">
  <path id="Trazado_1205" data-name="Trazado 1205" d="M604.058,804.387h-1.727a.048.048,0,0,1-.048-.048v-1.727a.048.048,0,0,0-.048-.048h-1.043a.048.048,0,0,0-.048.048v1.727a.048.048,0,0,1-.048.048H599.37a.048.048,0,0,0-.048.048v1.044a.048.048,0,0,0,.048.048H601.1a.048.048,0,0,1,.048.048V807.3a.048.048,0,0,0,.048.048h1.043a.048.048,0,0,0,.048-.048v-1.727a.048.048,0,0,1,.048-.048h1.727a.048.048,0,0,0,.048-.048v-1.044A.048.048,0,0,0,604.058,804.387Z" transform="translate(-599.322 -802.565)" fill="#15e9e9"/>
</svg>
