<svg xmlns="http://www.w3.org/2000/svg" xmlns:xlink="http://www.w3.org/1999/xlink" width="28.186" height="29.837" viewBox="0 0 28.186 29.837">
  <defs>
    <linearGradient id="linear-gradient" x1="0.68" y1="-3.979" x2="0.386" y2="3.613" gradientUnits="objectBoundingBox">
      <stop offset="0" stop-color="#ffc26b"/>
      <stop offset="1" stop-color="#fc4b1d"/>
    </linearGradient>
    <filter id="Trazado_1275" x="5.63" y="12.513" width="18.225" height="17.324" filterUnits="userSpaceOnUse">
      <feOffset dy="4.411" input="SourceAlpha"/>
      <feGaussianBlur stdDeviation="2.206" result="blur"/>
      <feFlood flood-color="#ff8a00" flood-opacity="0.2"/>
      <feComposite operator="in" in2="blur"/>
      <feComposite in="SourceGraphic"/>
    </filter>
    <linearGradient id="linear-gradient-2" x1="0.647" y1="-3.275" x2="0.322" y2="5.457" xlink:href="#linear-gradient"/>
    <filter id="Trazado_1276" x="7.282" y="7.941" width="17.738" height="16.79" filterUnits="userSpaceOnUse">
      <feOffset dy="4.411" input="SourceAlpha"/>
      <feGaussianBlur stdDeviation="2.206" result="blur-2"/>
      <feFlood flood-color="#ff8a00" flood-opacity="0.2"/>
      <feComposite operator="in" in2="blur-2"/>
      <feComposite in="SourceGraphic"/>
    </filter>
    <linearGradient id="linear-gradient-3" x1="0.526" y1="-0.056" x2="0.474" y2="1.045" xlink:href="#linear-gradient"/>
  </defs>
  <g id="Grupo_2380" data-name="Grupo 2380" transform="translate(-13.391 -9.633)">
    <g id="Grupo_2252" data-name="Grupo 2252">
      <g transform="matrix(1, 0, 0, 1, 13.39, 9.63)" filter="url(#Trazado_1275)">
        <path id="Trazado_1275-2" data-name="Trazado 1275" d="M6792.067,1466.416a5.291,5.291,0,0,0-1.66-.733l-1.7-.563-1.018,3.075,1.977.654a5.923,5.923,0,0,0,1.271.343,1.517,1.517,0,0,0,1-.18,1.485,1.485,0,0,0,.649-.867,1.564,1.564,0,0,0,.038-.963A1.481,1.481,0,0,0,6792.067,1466.416Z" transform="translate(-6775.44 -1450.4)" fill="url(#linear-gradient)"/>
      </g>
      <g transform="matrix(1, 0, 0, 1, 13.39, 9.63)" filter="url(#Trazado_1276)">
        <path id="Trazado_1276-2" data-name="Trazado 1276" d="M6793.007,1461.515a17.249,17.249,0,0,0-1.627-.582l-1.162-.385-.88,2.659,1.349.447a11.76,11.76,0,0,0,1.356.4,1.612,1.612,0,0,0,1.074-.1,1.278,1.278,0,0,0,.638-.786,1.328,1.328,0,0,0-.007-.962A1.4,1.4,0,0,0,6793.007,1461.515Z" transform="translate(-6775.44 -1450.4)" fill="url(#linear-gradient-2)"/>
      </g>
      <g id="Grupo_2251" data-name="Grupo 2251">
        <g id="Grupo_2250" data-name="Grupo 2250" transform="translate(13.391 9.633)">
          <path id="Trazado_1277" data-name="Trazado 1277" d="M6789.532,1450.4a14.093,14.093,0,1,0,14.093,14.093A14.094,14.094,0,0,0,6789.532,1450.4Zm6.935,13.3a2.869,2.869,0,0,1-2.442,1.96,3.188,3.188,0,0,1,1.27,1.578,2.919,2.919,0,0,1-.009,1.921,3.623,3.623,0,0,1-.869,1.405,3.249,3.249,0,0,1-1.389.853,3.461,3.461,0,0,1-1.738.03c-.251-.054-.739-.2-1.416-.4l-.7,2.1-1.742-.577.69-2.083-1.133-.375-.69,2.083-1.72-.57.69-2.083-2.828-.936.634-1.914,1.14.378a.837.837,0,0,0,1.057-.532l2.014-6.08a.838.838,0,0,0-.532-1.058l-1.139-.377.634-1.914,2.827.936.732-2.208,1.719.57-.731,2.208,1.133.375.731-2.208,1.742.577-.735,2.219a10.375,10.375,0,0,1,1.281.538,3.054,3.054,0,0,1,1.607,2.124A2.734,2.734,0,0,1,6796.467,1463.7Z" transform="translate(-6775.439 -1450.401)" fill="url(#linear-gradient-3)"/>
        </g>
      </g>
    </g>
    <g id="Grupo_2255" data-name="Grupo 2255" transform="translate(20.32 14.977)">
      <g id="Grupo_2254" data-name="Grupo 2254">
        <g id="Grupo_2253" data-name="Grupo 2253">
          <path id="Trazado_1278" data-name="Trazado 1278" d="M6795.358,1467.272a3.222,3.222,0,0,0-1.284-1.595,2.9,2.9,0,0,0,2.468-1.981,2.775,2.775,0,0,0,.094-1.478,3.144,3.144,0,0,0-.57-1.266,3.182,3.182,0,0,0-1.055-.882,10.806,10.806,0,0,0-1.294-.544l.742-2.243-1.761-.583-.739,2.232-1.145-.379.739-2.232-1.738-.576-.74,2.232-2.858-.946-.641,1.934,1.152.382a.845.845,0,0,1,.537,1.069l-2.035,6.147a.846.846,0,0,1-1.069.537l-1.152-.382-.641,1.935,2.858.946-.7,2.106,1.739.576.7-2.106,1.145.379-.7,2.106,1.761.583.7-2.124c.685.211,1.179.353,1.432.408a3.5,3.5,0,0,0,1.757-.03,3.288,3.288,0,0,0,1.4-.863,3.673,3.673,0,0,0,.879-1.42A2.953,2.953,0,0,0,6795.358,1467.272Zm-3.958-6.378c1.1.366,1.421.485,1.644.588a1.417,1.417,0,0,1,.75.7,1.343,1.343,0,0,1,.007.973,1.292,1.292,0,0,1-.645.794,1.631,1.631,0,0,1-1.086.1,12.108,12.108,0,0,1-1.37-.409l-1.365-.452.891-2.688Zm.556,8.167a1.531,1.531,0,0,1-1.007.183,6.047,6.047,0,0,1-1.285-.347l-2-.662,1.029-3.109,1.722.57a5.376,5.376,0,0,1,1.678.741,1.511,1.511,0,0,1,.556.774,1.585,1.585,0,0,1-.039.974A1.5,1.5,0,0,1,6791.956,1469.061Z" transform="translate(-6782.368 -1455.745)" fill="#fff"/>
        </g>
      </g>
    </g>
  </g>
</svg>
