<svg id="Capa_1" data-name="Capa 1" xmlns="http://www.w3.org/2000/svg" xmlns:xlink="http://www.w3.org/1999/xlink" viewBox="0 0 369 369"><defs><style>.cls-1{fill:#fff;}.cls-2{isolation:isolate;fill:url(#Degradado_sin_nombre_3);}</style><linearGradient id="Degradado_sin_nombre_3" x1="2.479" y1="362.727" x2="3.884" y2="365.947" gradientTransform="matrix(91.76, 0, 0, -91.76, -121.499, 33647.944)" gradientUnits="userSpaceOnUse"><stop offset="0" stop-color="#29abe2"/><stop offset="1" stop-color="#345d9d"/></linearGradient></defs><title>ltc 1</title><circle class="cls-1" cx="184" cy="184" r="137"/><path id="Trazado_7970" data-name="Trazado 7970" class="cls-2" d="M184.381,1.761h0a182.619,182.619,0,0,0,0,365.238h0A182.619,182.619,0,0,0,367,184.38h0A182.616,182.616,0,0,0,184.389,1.761ZM252.64,249.192l-7.069,28.3a2.973,2.973,0,0,1-2.886,2.248H117.841l20.6-69.843-22.43,6.874,4.888-17.115,22.636-7.038L173.451,91.16a2.963,2.963,0,0,1,2.89-2.134l34.784.518a2.937,2.937,0,0,1,.8.123,2.969,2.969,0,0,1,1.99,3.7h0l-25.355,85.263,22.84-7.1-3.67,17.116-24.416,7.487-14.727,49.356h81.2a3.009,3.009,0,0,1,.7.092,2.97,2.97,0,0,1,2.162,3.6Z"/></svg>