<svg id="Layer_1" data-name="Layer 1" xmlns="http://www.w3.org/2000/svg" xmlns:xlink="http://www.w3.org/1999/xlink" viewBox="0 0 44.508 42.828"><defs><style>.cls-1{fill:none;}.cls-2{clip-path:url(#clip-path);}.cls-3{fill:url(#Degradado_sin_nombre_29);}.cls-4{fill:url(#Degradado_sin_nombre_29-2);}.cls-5{fill:#fff;}</style><clipPath id="clip-path"><rect class="cls-1" width="44.508" height="42.828" transform="translate(44.508 42.828) rotate(180)"/></clipPath><linearGradient id="Degradado_sin_nombre_29" x1="-24.55" y1="-34.367" x2="-26.783" y2="-61.437" gradientUnits="userSpaceOnUse"><stop offset="0" stop-color="#ff7267"/><stop offset="1" stop-color="#ff007f"/></linearGradient><linearGradient id="Degradado_sin_nombre_29-2" x1="-18.597" y1="1.088" x2="-21.084" y2="49.699" xlink:href="#Degradado_sin_nombre_29"/></defs><title>red buttom</title><g class="cls-2"><path class="cls-3" d="M44.508,21.414h0A21.414,21.414,0,0,1,23.094,42.828H-82.715V0H23.094A21.414,21.414,0,0,1,44.508,21.414Z"/><path class="cls-4" d="M44.508,21.414h0A21.414,21.414,0,0,1,23.094,42.828H-82.715V0H23.094A21.414,21.414,0,0,1,44.508,21.414Z"/><path class="cls-5" d="M28.136,18.19a.762.762,0,0,0,.762-.762V13.547a.762.762,0,0,0-.762-.762H23.813a.762.762,0,0,0,0,1.524h3.561v3.119A.762.762,0,0,0,28.136,18.19Z"/><path class="cls-5" d="M24.256,30.043h3.88a.762.762,0,0,0,.762-.762V24.958a.762.762,0,1,0-1.524,0v3.561H24.256a.762.762,0,0,0,0,1.524Z"/><path class="cls-5" d="M12.4,30.043h4.323a.762.762,0,1,0,0-1.524H13.164V25.4a.762.762,0,0,0-1.524,0v3.88A.762.762,0,0,0,12.4,30.043Z"/><path class="cls-5" d="M12.4,18.632a.762.762,0,0,0,.762-.761V14.309h3.118a.762.762,0,0,0,0-1.524H12.4a.763.763,0,0,0-.762.762v4.324A.762.762,0,0,0,12.4,18.632Z"/></g></svg>