<svg id="Layer_1" data-name="Layer 1" xmlns="http://www.w3.org/2000/svg" xmlns:xlink="http://www.w3.org/1999/xlink" viewBox="0 0 127.224 42.828"><defs><style>.cls-1{fill:url(#Degradado_sin_nombre_27);}.cls-2{fill:url(#Degradado_sin_nombre_27-2);}.cls-3{font-size:13.564px;font-family:Roboto-Bold, Roboto;font-weight:700;}.cls-3,.cls-4{fill:#fff;}.cls-5{fill:none;stroke:#fff;stroke-linecap:round;stroke-linejoin:round;stroke-width:1.697px;}</style><linearGradient id="Degradado_sin_nombre_27" x1="66.636" y1="47.825" x2="62.407" y2="-3.455" gradientUnits="userSpaceOnUse"><stop offset="0" stop-color="#00de96"/><stop offset="1" stop-color="#00ecea"/></linearGradient><linearGradient id="Degradado_sin_nombre_27-2" x1="65.237" y1="0.078" x2="62.75" y2="48.689" xlink:href="#Degradado_sin_nombre_27"/></defs><title>buttoms</title><path class="cls-1" d="M0,21.414H0A21.414,21.414,0,0,0,21.414,42.828h105.81V0H21.414A21.414,21.414,0,0,0,0,21.414Z"/><path class="cls-2" d="M0,21.414H0A21.414,21.414,0,0,0,21.414,42.828h105.81V0H21.414A21.414,21.414,0,0,0,0,21.414Z"/><text class="cls-3" transform="translate(47.929 25.379)">RECIBIR</text><circle class="cls-4" cx="32.554" cy="10.957" r="1.365"/><path class="cls-5" d="M27.89,12.859,25.422,9.775a.486.486,0,0,0-.8.052L16.47,23.368a.484.484,0,0,0,.036.553l6.9,8.648a1.773,1.773,0,0,0,2.905-.191l7.211-11.971a.485.485,0,0,0-.036-.554l-2.031-2.537M29.05,22.859l-6.713,2.8.936-7.258m-.936,7.258,7.313-10.6"/></svg>