<svg xmlns="http://www.w3.org/2000/svg" xmlns:xlink="http://www.w3.org/1999/xlink" width="101.088" height="25.688" viewBox="0 0 101.088 25.688">
  <defs>
    <clipPath id="clip-path">
      <rect width="17.962" height="24.274" fill="none"/>
    </clipPath>
  </defs>
  <g id="Grupo_57" data-name="Grupo 57" transform="translate(0 1.414)">
    <text id="Monedero" transform="translate(24.088 16.586)" fill="#272759" font-size="17" font-family="Roboto-Regular, Roboto"><tspan x="0" y="0">Monedero</tspan></text>
    <g id="Símbolo_21_12" data-name="Símbolo 21 – 12" clip-path="url(#clip-path)">
      <path id="Trazado_47" data-name="Trazado 47" d="M442.173,94.251l-7.888-9.858a1.049,1.049,0,0,0-1.717.115l-.029.049h0l-7.949,13.2a1.054,1.054,0,0,0,.079,1.195l6.75,8.459a2.309,2.309,0,0,0,1.8.868c.05,0,.1,0,.152-.005a2.309,2.309,0,0,0,1.826-1.113l.168-.279a2.309,2.309,0,0,0,1.415.487c.05,0,.1,0,.152-.005a2.309,2.309,0,0,0,1.825-1.112l.034-.056,3.5-10.812A1.054,1.054,0,0,0,442.173,94.251Zm-3.237-2.209L438.391,94a2,2,0,0,1-3.559.635,1.992,1.992,0,0,1-.3-1.734l1.362-4.664ZM433.3,107.124a1.143,1.143,0,0,1-.984-.434l-6.707-8.405,4.969-8.247L428.117,96.9a1.055,1.055,0,0,0,.112,1.135l6.34,7.945-.352.584A1.147,1.147,0,0,1,433.3,107.124Zm4.447-1.42a1.162,1.162,0,0,1-1.87.075l-6.709-8.407,4.34-12.117,1.515,1.894-1.588,5.436a3.154,3.154,0,0,0,3.014,4.037,3.206,3.206,0,0,0,.566-.05,3.127,3.127,0,0,0,2.483-2.259l.324-1.166.666.832.567.708h0l.183.228Z" transform="translate(-424.44 -83.999)" fill="#272759"/>
      <path id="Trazado_48" data-name="Trazado 48" d="M453.985,107.76a1.714,1.714,0,1,0-1.713-1.714A1.715,1.715,0,0,0,453.985,107.76Zm0-2.281a.567.567,0,1,1-.567.567A.568.568,0,0,1,453.985,105.479Z" transform="translate(-441.892 -96.749)" fill="#272759"/>
    </g>
  </g>
</svg>
