<svg xmlns="http://www.w3.org/2000/svg" xmlns:xlink="http://www.w3.org/1999/xlink" width="37.499" height="37.499" viewBox="0 0 37.499 37.499">
  <defs>
    <clipPath id="clip-path">
      <rect width="37.499" height="37.499" fill="none"/>
    </clipPath>
    <clipPath id="clip-path-2">
      <rect width="16.084" height="17.154" fill="none"/>
    </clipPath>
  </defs>
  <g id="Símbolo_6_63" data-name="Símbolo 6 – 63" transform="translate(0 0)" clip-path="url(#clip-path)">
    <g id="Símbolo_7_1" data-name="Símbolo 7 – 1" transform="translate(10.708 10.173)" clip-path="url(#clip-path-2)">
      <path id="Trazado_15" data-name="Trazado 15" d="M183.746,1907.882l-4.236-1.184a.2.2,0,0,0-.243.238l.267,1.042-5.778,1.434a6.421,6.421,0,0,0-4.815,5.493l-.461,4.1a1.095,1.095,0,1,0,2.175.244l.461-4.1a4.223,4.223,0,0,1,3.167-3.612l5.8-1.438.282,1.1a.2.2,0,0,0,.328.092l.712-.7,2.431-2.38A.2.2,0,0,0,183.746,1907.882Z" transform="translate(-168.472 -1906.691)" fill="#7300ff"/>
      <path id="Trazado_16" data-name="Trazado 16" d="M186.9,1922.331l.456-4.106a1.094,1.094,0,1,0-2.176-.242l-.456,4.107a4.222,4.222,0,0,1-3.168,3.619l-4.8,1.191-.28-1.09a.2.2,0,0,0-.328-.092l-.712.7-2.43,2.379a.2.2,0,0,0,.085.33l4.236,1.183a.2.2,0,0,0,.244-.238l-.27-1.05,4.781-1.186A6.42,6.42,0,0,0,186.9,1922.331Z" transform="translate(-171.28 -1913.161)" fill="#7300ff"/>
    </g>
    <circle id="Elipse_14" data-name="Elipse 14" cx="18" cy="18" r="18" transform="translate(0.75 0.75)" fill="none" stroke="#7300ff" stroke-miterlimit="10" stroke-width="1.5"/>
  </g>
</svg>
