<svg xmlns="http://www.w3.org/2000/svg" width="71.496" height="71.496" viewBox="0 0 71.496 71.496">
  <g id="Grupo_2371" data-name="Grupo 2371" transform="translate(-5976.806 4087.957)">
    <g id="Grupo_2297" data-name="Grupo 2297" transform="translate(5995.729 -4069.033)">
      <g id="Grupo_2295" data-name="Grupo 2295">
        <path id="Trazado_1319" data-name="Trazado 1319" d="M6012.1-4049.4a3.232,3.232,0,0,1-2.309-.955l-27.115-27.107a3.27,3.27,0,0,1,0-4.625,3.278,3.278,0,0,1,4.629,0l27.107,27.106a3.275,3.275,0,0,1,0,4.626A3.251,3.251,0,0,1,6012.1-4049.4Z" transform="translate(-5981.714 4083.047)" fill="#faf7f8"/>
      </g>
      <g id="Grupo_2296" data-name="Grupo 2296">
        <path id="Trazado_1320" data-name="Trazado 1320" d="M5984.988-4049.4a3.253,3.253,0,0,1-2.316-.955,3.271,3.271,0,0,1,0-4.626l27.115-27.106a3.269,3.269,0,0,1,4.621,0,3.274,3.274,0,0,1,0,4.625l-27.107,27.107A3.251,3.251,0,0,1,5984.988-4049.4Z" transform="translate(-5981.714 4083.047)" fill="#faf7f8"/>
      </g>
    </g>
    <g id="Grupo_2298" data-name="Grupo 2298" transform="translate(5976.806 -4087.957)">
      <path id="Trazado_1321" data-name="Trazado 1321" d="M6012.553-4016.461a35.787,35.787,0,0,1-35.748-35.747,35.784,35.784,0,0,1,35.748-35.749,35.784,35.784,0,0,1,35.748,35.749A35.787,35.787,0,0,1,6012.553-4016.461Zm0-64.959a29.244,29.244,0,0,0-29.211,29.212A29.244,29.244,0,0,0,6012.553-4023a29.246,29.246,0,0,0,29.213-29.211A29.245,29.245,0,0,0,6012.553-4081.42Z" transform="translate(-5976.805 4087.957)" fill="#faf7f8"/>
    </g>
  </g>
</svg>
