<svg xmlns="http://www.w3.org/2000/svg" xmlns:xlink="http://www.w3.org/1999/xlink" viewBox="0 0 120 120"><defs><style>.cls-1{isolation:isolate;}.cls-2{fill:url(#Degradado_sin_nombre_20);}.cls-3{fill:url(#Degradado_sin_nombre_53);}.cls-4,.cls-5,.cls-7{mix-blend-mode:multiply;}.cls-4{fill:url(#Degradado_sin_nombre_65);}.cls-5{fill:url(#Degradado_sin_nombre_43);}.cls-6{fill:url(#Degradado_sin_nombre_24);}.cls-7{fill:url(#Degradado_sin_nombre_43-2);}</style><linearGradient id="Degradado_sin_nombre_20" x1="46.484" y1="30.98" x2="47.028" y2="137.56" gradientUnits="userSpaceOnUse"><stop offset="0" stop-color="#6cd6ea"/><stop offset="0.196" stop-color="#6cd3eb"/><stop offset="0.35" stop-color="#6ac9ed"/><stop offset="0.491" stop-color="#68b8f0"/><stop offset="0.623" stop-color="#66a1f4"/><stop offset="0.748" stop-color="#6283fa"/><stop offset="0.828" stop-color="#5f6bff"/></linearGradient><linearGradient id="Degradado_sin_nombre_53" x1="29.84" y1="-24.253" x2="24.114" y2="86.067" gradientUnits="userSpaceOnUse"><stop offset="0" stop-color="#6cd6ea"/><stop offset="0.08" stop-color="#6ac4ee"/><stop offset="0.244" stop-color="#66a4f4"/><stop offset="0.415" stop-color="#638bf9"/><stop offset="0.592" stop-color="#6179fc"/><stop offset="0.781" stop-color="#5f6efe"/><stop offset="1" stop-color="#5f6bff"/></linearGradient><linearGradient id="Degradado_sin_nombre_65" x1="33.538" y1="97.92" x2="68.612" y2="50.203" gradientUnits="userSpaceOnUse"><stop offset="0" stop-color="#004ebd"/><stop offset="0.171" stop-color="#0d52c6" stop-opacity="0.859"/><stop offset="0.538" stop-color="#305dde" stop-opacity="0.497"/><stop offset="1" stop-color="#5f6bff" stop-opacity="0"/></linearGradient><linearGradient id="Degradado_sin_nombre_43" x1="11.518" y1="78.169" x2="49.817" y2="52.891" gradientUnits="userSpaceOnUse"><stop offset="0" stop-color="#9b96bd"/><stop offset="0.204" stop-color="#8d8ccc" stop-opacity="0.767"/><stop offset="0.59" stop-color="#747ae7" stop-opacity="0.357"/><stop offset="0.864" stop-color="#656ff8" stop-opacity="0.099"/><stop offset="1" stop-color="#5f6bff" stop-opacity="0"/></linearGradient><linearGradient id="Degradado_sin_nombre_24" x1="79.829" y1="2.202" x2="82.367" y2="119.541" gradientUnits="userSpaceOnUse"><stop offset="0.037" stop-color="#8a59fd"/><stop offset="0.386" stop-color="#875afd"/><stop offset="0.636" stop-color="#7e5efe"/><stop offset="0.855" stop-color="#6e65fe"/><stop offset="1" stop-color="#5f6bff"/></linearGradient><linearGradient id="Degradado_sin_nombre_43-2" x1="53.72" y1="78.39" x2="94.503" y2="51.473" xlink:href="#Degradado_sin_nombre_43"/></defs><title>icono eyewallet</title><g class="cls-1"><g id="Layer_1" data-name="Layer 1"><path class="cls-2" d="M43.274,72.511a2.857,2.857,0,0,1-.221-3.264l28.917-48L60.48,6.886a.86.86,0,0,0-1.408.093L21.562,69.247a2.856,2.856,0,0,0,.221,3.264l30.771,38.245a8.264,8.264,0,0,0,13.542-.922L69.17,104.7Z"/><path class="cls-3" d="M21.783,72.511a2.856,2.856,0,0,1-.221-3.264L50.671,20.925,39.436,6.886a.86.86,0,0,0-1.408.093L.518,69.247a2.857,2.857,0,0,0,.221,3.264l30.772,38.245a8.263,8.263,0,0,0,13.541-.922l2.884-4.818Z"/><path class="cls-4" d="M69.17,104.7l-25.9-32.186a2.857,2.857,0,0,1-.221-3.264l28.917-48-6.449-8.06-5.041-6.3a.847.847,0,0,0-.312-.242c-.008,0-.015-.01-.023-.013a.888.888,0,0,0-.167-.049c-.009,0-.018-.006-.027-.007a.893.893,0,0,0-.879.4L42.127,35.11l-1.135,1.883c-8.692,16.587-16.341,22.324.18,41.861L66.1,109.833Z"/><path class="cls-5" d="M47.932,105.012l-26.149-32.5a2.856,2.856,0,0,1-.221-3.264L50.671,20.925,40.861,8.666,39.43,6.885a.855.855,0,0,0-1.4.094L19.9,37.066c-8.676,16.531-16.278,22.28.218,41.788l24.925,30.979Z"/><path class="cls-6" d="M118.835,52.953l-2.483-3.1-1.272-1.589-5.231-6.54-.007-.006L103.271,33.5c-.006-.009-.011-.018-.017-.026l-4.691-5.859,0,0L92.02,19.443h0L89.609,16.43l-1.495-1.869h0L81.971,6.885a.859.859,0,0,0-1.407.094L63.618,35.11l-1.134,1.883L43.054,69.248a2.857,2.857,0,0,0,.219,3.263l30.773,38.245a8.264,8.264,0,0,0,13.542-.923L119.12,57.142A3.674,3.674,0,0,0,118.835,52.953Z"/><path class="cls-7" d="M118.835,52.953l-2.483-3.1h0S90.557,16.767,89.609,16.43L81.971,6.885a.859.859,0,0,0-1.407.094L63.618,35.11l-1.134,1.883c-8.692,16.587-16.341,22.324.179,41.861l24.925,30.979L119.12,57.142A3.674,3.674,0,0,0,118.835,52.953Z"/></g></g></svg>