<svg id="Layer_1" data-name="Layer 1" xmlns="http://www.w3.org/2000/svg" viewBox="0 0 120 120"><defs><style>.cls-1{fill:#fff;}</style></defs><title>icono huella</title><path class="cls-1" d="M67.556,57.456a11.924,11.924,0,0,0-1.274-6.144,9.534,9.534,0,0,0-3.872-4.025c-2.664-1.427-5-1.054-7.515,1.284a7.1,7.1,0,0,0-1.926,4.809c-.278,2.9-.436,5.813-.739,8.711a23.5,23.5,0,0,1-6.637,14.04,29.171,29.171,0,0,1-15.609,8.707,30.22,30.22,0,0,1-4.463.458,2.113,2.113,0,0,1-2.275-2.146,2.145,2.145,0,0,1,2.194-2.241,23.143,23.143,0,0,0,12.366-4,22.338,22.338,0,0,0,8.978-10.8,22.3,22.3,0,0,0,1.237-6.068c.234-2.657.337-5.33.659-7.976a11.014,11.014,0,0,1,8.809-9.806,10.061,10.061,0,0,1,8.9,2.392,14.8,14.8,0,0,1,5.571,11.226,49.2,49.2,0,0,1-2.428,17.1A51.337,51.337,0,0,1,61.336,89.19a36.559,36.559,0,0,1-15.34,12c-1.592.65-3.25,1.15-4.819,1.849-1.815.808-2.179,1.71-1.77,3.654a4.492,4.492,0,0,1,.173,1.561,2.119,2.119,0,0,1-1.862,1.713,2.168,2.168,0,0,1-2.347-1.412c-1.271-3.473-.5-6.755,2.754-8.9a21.732,21.732,0,0,1,4.86-2.046,31.617,31.617,0,0,0,13.766-9.622,45.733,45.733,0,0,0,9.256-18.9A46.047,46.047,0,0,0,67.556,57.456Z"/><path class="cls-1" d="M82.121,57.2a36.522,36.522,0,0,1-1.442,10.07c-1.561,5.095-3.262,10.148-4.813,15.246a58.513,58.513,0,0,0-1.494,6.335,4.981,4.981,0,0,0,.811,4.053,5.082,5.082,0,0,0,2.195,1.526,2.183,2.183,0,0,1,1.416,2.285,2.141,2.141,0,0,1-1.84,1.95,2.638,2.638,0,0,1-1.2-.135c-4.064-1.453-6.039-4.611-5.818-9.231a33.783,33.783,0,0,1,1.978-9.049c1.06-3.188,2.233-6.338,3.259-9.536A47.822,47.822,0,0,0,77.6,59.687c.668-9.054-3.03-15.925-10.782-20.515A16.007,16.007,0,0,0,53.67,37.708a13.65,13.65,0,0,0-7.633,6,23.729,23.729,0,0,0-3.544,10.647A23.633,23.633,0,0,1,37.471,67.3a21.674,21.674,0,0,1-12.322,7.516c-.819.188-1.647.347-2.478.462a2.184,2.184,0,0,1-2.637-1.865,2.222,2.222,0,0,1,2.1-2.534,18.007,18.007,0,0,0,11.192-5.52,18.023,18.023,0,0,0,4.621-10.466A31.852,31.852,0,0,1,41,43.556c2.579-5,6.366-8.675,11.871-10.218a20.743,20.743,0,0,1,15.7,1.719,22.907,22.907,0,0,1,4.137,2.734A25.442,25.442,0,0,1,81.881,53.81C82.08,55.145,82.075,56.51,82.121,57.2Z"/><path class="cls-1" d="M91.81,58.776A56.238,56.238,0,0,1,88.2,76.99c-.561,1.5-1.267,2.939-1.83,4.434-1.079,2.869-1.213,5.7.646,8.339a8.575,8.575,0,0,0,3.407,2.665A2.212,2.212,0,0,1,91.565,95.5a2.162,2.162,0,0,1-2.785,1.023,11.948,11.948,0,0,1-7.549-12.452A20.02,20.02,0,0,1,83.112,77.8,49.5,49.5,0,0,0,87.34,55.5a29.753,29.753,0,0,0-7.5-18.4,29.237,29.237,0,0,0-13.025-8.862,27.362,27.362,0,0,0-12.392-1.188,22.2,22.2,0,0,0-11.3,4.769,2.2,2.2,0,0,1-3.247-.416,2.163,2.163,0,0,1,.469-3.02,25.524,25.524,0,0,1,11.048-5.3,31.243,31.243,0,0,1,15.589.571C76.252,26.444,83,32.323,87.673,40.7a31.155,31.155,0,0,1,3.555,9.979A42.047,42.047,0,0,1,91.81,58.776Z"/><path class="cls-1" d="M58.061,11.647A42.091,42.091,0,0,1,83.2,19.859,42.985,42.985,0,0,1,94.938,33.381a48.925,48.925,0,0,1,4.934,12.034,2.363,2.363,0,0,1-.618,2.694,2.178,2.178,0,0,1-3.523-1.045c-.429-1.326-.768-2.683-1.221-4a42.631,42.631,0,0,0-9.184-15.379,35.828,35.828,0,0,0-20.987-11.11,33.871,33.871,0,0,0-35.968,17.86,46.688,46.688,0,0,0-3.978,10.311A2.212,2.212,0,1,1,20.1,43.724,49.291,49.291,0,0,1,23.994,33.25,38.67,38.67,0,0,1,35.828,19.056a37.126,37.126,0,0,1,18.189-7.111C55.565,11.77,57.127,11.714,58.061,11.647Z"/><path class="cls-1" d="M60.048.934A52.54,52.54,0,0,1,69.815,2.2a45.04,45.04,0,0,1,17.638,8.377c1.51,1.161,2.924,2.451,4.344,3.724a2.191,2.191,0,1,1-3,3.177A44.366,44.366,0,0,0,77.083,9.315a40.788,40.788,0,0,0-9.558-3.148A41.5,41.5,0,0,0,37.646,11.2a45.832,45.832,0,0,0-8.17,6.1,2.193,2.193,0,0,1-3.8-1.013,2.086,2.086,0,0,1,.778-2.144c1.514-1.29,3-2.625,4.592-3.811A47.286,47.286,0,0,1,50.09,1.785,46.119,46.119,0,0,1,60.048.934Z"/><path class="cls-1" d="M79.489,109.745a13.829,13.829,0,0,1-6.354-2.01,46.525,46.525,0,0,1-6.268-4.95c-.436-.371-.912-.7-1.381-1.029a1.228,1.228,0,0,0-1.5-.072,21.928,21.928,0,0,0-2.554,1.994c-2.076,2.014-4.022,4.168-6.142,6.134A23.565,23.565,0,0,1,44.017,115.8a4.2,4.2,0,0,1-1.335.136,2.166,2.166,0,0,1-1.921-2.138,2.311,2.311,0,0,1,1.824-2.243,38.058,38.058,0,0,0,4.763-1.6,22.917,22.917,0,0,0,6.846-5.159c1.8-1.825,3.56-3.7,5.432-5.45a10.332,10.332,0,0,1,2.769-1.8,5.654,5.654,0,0,1,6.121.92c1.647,1.289,3.192,2.707,4.8,4.043a12.613,12.613,0,0,0,4.065,2.386,9.013,9.013,0,0,0,6.817-.6c.668-.309,1.318-.666,1.954-1.04a2.239,2.239,0,0,1,3.14.614,2.192,2.192,0,0,1-.783,3.135A16.549,16.549,0,0,1,79.489,109.745Z"/><path class="cls-1" d="M20.645,64.826a2.283,2.283,0,0,1-2.625-2.142,2.254,2.254,0,0,1,2.193-2.279c3.937-.257,6.358-2.028,7.572-5.839.7-2.2,1.046-4.508,1.636-6.745.573-2.173,1.148-4.357,1.919-6.464a53.1,53.1,0,0,1,2.4-5.167A2.072,2.072,0,0,1,35.9,34.957,2.186,2.186,0,0,1,37.6,38.329a33.923,33.923,0,0,0-3.817,10.083C33.3,50.7,32.872,53,32.239,55.241a13.127,13.127,0,0,1-4.664,7.209A12.829,12.829,0,0,1,20.645,64.826Z"/><path class="cls-1" d="M102.174,64.527a53.528,53.528,0,0,1-3.851,20.36c-.482,1.2-1.021,2.373-1.576,3.539a2.2,2.2,0,0,1-3.125,1.124,2.255,2.255,0,0,1-.812-3.142A48.715,48.715,0,0,0,97.2,72.375a54.737,54.737,0,0,0,.36-12.4c-.072-.959-.243-1.912-.4-2.863a2.227,2.227,0,0,1,1.8-2.64,2.172,2.172,0,0,1,2.557,1.907c.306,2.707.556,5.42.829,8.13Z"/><path class="cls-1" d="M62.851,57.114a46.456,46.456,0,0,1-4.576,18.949,64.939,64.939,0,0,1-3.868,6.276,2.137,2.137,0,0,1-3.147.478,2.181,2.181,0,0,1-.369-3.168,36.025,36.025,0,0,0,6.772-15.995,50.466,50.466,0,0,0,.761-8.762,2.195,2.195,0,0,1,1.387-2.2,2.024,2.024,0,0,1,2.412.532,3.142,3.142,0,0,1,.6,1.49A19.183,19.183,0,0,1,62.851,57.114Z"/><path class="cls-1" d="M66.933,112.21a27.025,27.025,0,0,1,8.081,1.172,2.134,2.134,0,0,1,1.485,2.546,2.186,2.186,0,0,1-2.508,1.671c-1.028-.188-2.037-.479-3.066-.657A19.612,19.612,0,0,0,57.4,119.313a2.244,2.244,0,0,1-3.226-.653,2.212,2.212,0,0,1,.948-3.146A24.1,24.1,0,0,1,66.933,112.21Z"/><path class="cls-1" d="M30.548,95.9A2.3,2.3,0,0,1,28,93.889a2.25,2.25,0,0,1,1.811-2.362c2.438-.625,4.9-1.182,7.293-1.951a27.8,27.8,0,0,0,7.511-3.892,2.22,2.22,0,1,1,2.59,3.589,38.359,38.359,0,0,1-13.885,6.06C32.3,95.565,31.275,95.755,30.548,95.9Z"/></svg>